<svg xmlns="http://www.w3.org/2000/svg" xmlns:xlink="http://www.w3.org/1999/xlink" id="Layer_1" data-name="Layer 1" viewBox="0 0 480 280"><defs><linearGradient id="linear-gradient" x1="149.478" x2="149.478" y1="238.655" y2="41.345" gradientUnits="userSpaceOnUse"><stop offset=".316" stop-color="#1c425c"/><stop offset=".478" stop-color="#2b7485"/><stop offset=".642" stop-color="#389fa9"/><stop offset=".79" stop-color="#42bfc3"/><stop offset=".914" stop-color="#48d2d3"/><stop offset="1" stop-color="#4ad9d9"/></linearGradient><linearGradient id="linear-gradient-2" x1="336.39" x2="336.39" y1="174.193" y2="105.807" gradientUnits="userSpaceOnUse"><stop offset=".156" stop-color="#1c425c"/><stop offset=".435" stop-color="#2c7889"/><stop offset=".82" stop-color="#42bec2"/><stop offset="1" stop-color="#4ad9d9"/></linearGradient></defs><title>ec2</title><g><rect width="80.121" height="197.309" x="109.417" y="41.345" fill="url(#linear-gradient)" stroke="#1c425c" stroke-miterlimit="10" stroke-width="10" rx="30" ry="30"/><rect width="68.386" height="68.386" x="302.197" y="15" fill="#4ad9d9" stroke="#1c425c" stroke-linejoin="round" stroke-width="10"/><rect width="68.386" height="68.386" x="302.197" y="105.807" fill="url(#linear-gradient-2)" stroke="#1c425c" stroke-linejoin="round" stroke-width="10"/><rect width="68.386" height="68.386" x="302.197" y="196.614" fill="#1c425c" stroke="#1c425c" stroke-linejoin="round" stroke-width="10"/><g><line x1="188.417" x2="269.888" y1="140" y2="140" fill="none" stroke="#1c425c" stroke-linejoin="round" stroke-width="10"/><polygon fill="#1c425c" points="265.511 154.959 291.417 140 265.511 125.041 265.511 154.959"/></g><g><line x1="188.417" x2="275.283" y1="140" y2="63.254" fill="none" stroke="#1c425c" stroke-linejoin="round" stroke-width="10"/><polygon fill="#1c425c" points="281.907 77.363 291.417 49 262.099 54.942 281.907 77.363"/></g><g><line x1="188.417" x2="275.283" y1="140" y2="216.746" fill="none" stroke="#1c425c" stroke-linejoin="round" stroke-width="10"/><polygon fill="#1c425c" points="262.099 225.058 291.417 231 281.907 202.637 262.099 225.058"/></g></g></svg>