<svg xmlns="http://www.w3.org/2000/svg" xmlns:xlink="http://www.w3.org/1999/xlink" x="0" y="0" version="1.1" viewBox="0 0 400 400" xml:space="preserve" style="enable-background:new 0 0 400 400"><g id="Revised_color_icons"><g><g><circle style="fill:#36b1bf;stroke:#1c425c;stroke-width:8;stroke-linecap:round;stroke-linejoin:round;stroke-miterlimit:10" cx="75.326" cy="62.01" r="50.004"/><path style="fill:#36b1bf;stroke:#1c425c;stroke-width:8;stroke-linecap:round;stroke-linejoin:round;stroke-miterlimit:10" d="M25.321,145.827c0,17.285,3.158,33.283,8.592,46.541c0.446,1.089,1.381,1.762,2.391,1.762h78.036 c1.008,0,1.942-0.671,2.389-1.757c5.458-13.258,8.617-29.259,8.617-46.545c0-12.67-1.689-24.638-4.753-35.356 c-0.623-2.179-2.875-2.914-4.289-1.361c-9,9.885-20.45,16.571-33.133,18.53c-0.996,0.154-1.842,0.946-2.174,2.086l-3.164,10.868 c-0.829,2.846-4.174,2.848-5.004,0.003l-3.158-10.813c-0.332-1.138-1.175-1.928-2.169-2.083 c-12.686-1.982-24.141-8.647-33.18-18.531c-1.418-1.55-3.67-0.808-4.287,1.374C27.009,121.242,25.321,133.22,25.321,145.827z"/></g></g><g><g><circle style="fill:#ffd34e;stroke:#1c425c;stroke-width:8;stroke-linecap:round;stroke-linejoin:round;stroke-miterlimit:10" cx="324.659" cy="62.01" r="50.004"/><path style="fill:#ffd34e;stroke:#1c425c;stroke-width:8;stroke-linecap:round;stroke-linejoin:round;stroke-miterlimit:10" d="M274.655,145.827c0,17.285,3.158,33.283,8.592,46.541c0.446,1.089,1.381,1.762,2.391,1.762h78.036 c1.008,0,1.942-0.671,2.389-1.757c5.458-13.258,8.617-29.259,8.617-46.545c0-12.67-1.689-24.638-4.753-35.356 c-0.623-2.179-2.875-2.914-4.289-1.361c-9,9.885-20.45,16.571-33.133,18.53c-0.996,0.154-1.842,0.946-2.174,2.086l-3.164,10.868 c-0.829,2.846-4.174,2.848-5.004,0.003l-3.158-10.813c-0.332-1.138-1.175-1.928-2.169-2.083 c-12.686-1.982-24.141-8.647-33.18-18.531c-1.418-1.55-3.67-0.808-4.287,1.374C276.342,121.242,274.655,133.22,274.655,145.827z"/></g></g><g><g><circle style="fill:#d64700;stroke:#1c425c;stroke-width:8;stroke-linecap:round;stroke-linejoin:round;stroke-miterlimit:10" cx="199.992" cy="81.276" r="50.004"/><path style="fill:#d64700;stroke:#1c425c;stroke-width:8;stroke-linecap:round;stroke-linejoin:round;stroke-miterlimit:10" d="M149.988,165.092c0,17.285,3.158,33.283,8.592,46.541c0.446,1.089,1.381,1.762,2.391,1.762h78.036 c1.008,0,1.942-0.671,2.389-1.757c5.458-13.258,8.617-29.259,8.617-46.545c0-12.67-1.689-24.638-4.753-35.356 c-0.623-2.179-2.875-2.914-4.289-1.361c-9,9.885-20.45,16.571-33.133,18.53c-0.996,0.154-1.842,0.946-2.174,2.086l-3.164,10.868 c-0.829,2.846-4.174,2.848-5.004,0.003l-3.158-10.813c-0.332-1.138-1.175-1.928-2.169-2.083 c-12.686-1.982-24.141-8.647-33.18-18.531c-1.418-1.55-3.67-0.808-4.287,1.374C151.676,140.507,149.988,152.485,149.988,165.092z"/></g></g><g><g><circle style="fill:#ff9311;stroke:#1c425c;stroke-width:8;stroke-linecap:round;stroke-linejoin:round;stroke-miterlimit:10" cx="116.984" cy="173.934" r="50.004"/><path style="fill:#ff9311;stroke:#1c425c;stroke-width:8;stroke-linecap:round;stroke-linejoin:round;stroke-miterlimit:10" d="M66.98,257.751c0,17.285,3.158,33.283,8.592,46.541c0.446,1.089,1.381,1.762,2.391,1.762h78.036 c1.008,0,1.942-0.671,2.389-1.757c5.458-13.258,8.617-29.259,8.617-46.545c0-12.67-1.689-24.638-4.753-35.356 c-0.623-2.179-2.875-2.914-4.289-1.361c-9,9.885-20.45,16.571-33.133,18.53c-0.996,0.154-1.842,0.946-2.174,2.086l-3.164,10.868 c-0.829,2.846-4.174,2.848-5.004,0.003l-3.158-10.813c-0.332-1.138-1.175-1.928-2.169-2.083 c-12.686-1.982-24.141-8.647-33.18-18.531c-1.418-1.55-3.67-0.808-4.287,1.374C68.668,233.166,66.98,245.144,66.98,257.751z"/></g></g><g><g><circle style="fill:#4ad9d9;stroke:#1c425c;stroke-width:8;stroke-linecap:round;stroke-linejoin:round;stroke-miterlimit:10" cx="283" cy="173.934" r="50.004"/><path style="fill:#4ad9d9;stroke:#1c425c;stroke-width:8;stroke-linecap:round;stroke-linejoin:round;stroke-miterlimit:10" d="M232.996,257.751c0,17.285,3.158,33.283,8.592,46.541c0.446,1.089,1.381,1.762,2.391,1.762h78.036 c1.008,0,1.942-0.671,2.389-1.757c5.458-13.258,8.617-29.259,8.617-46.545c0-12.67-1.689-24.638-4.753-35.356 c-0.623-2.179-2.875-2.914-4.289-1.361c-9,9.885-20.45,16.571-33.133,18.53c-0.996,0.154-1.842,0.946-2.174,2.086l-3.164,10.868 c-0.829,2.846-4.174,2.848-5.004,0.003l-3.158-10.813c-0.332-1.138-1.175-1.928-2.169-2.083 c-12.686-1.982-24.141-8.647-33.18-18.531c-1.418-1.55-3.67-0.808-4.287,1.374C234.684,233.166,232.996,245.144,232.996,257.751z"/></g></g><g><g><circle style="fill:#94399e;stroke:#1c425c;stroke-width:8;stroke-linecap:round;stroke-linejoin:round;stroke-miterlimit:10" cx="199.992" cy="236.609" r="50.004"/><path style="fill:#94399e;stroke:#1c425c;stroke-width:8;stroke-linecap:round;stroke-linejoin:round;stroke-miterlimit:10" d="M149.988,320.426c0,17.285,3.158,33.283,8.592,46.541c0.446,1.089,1.381,1.762,2.391,1.762h78.036 c1.008,0,1.942-0.671,2.389-1.757c5.458-13.258,8.617-29.259,8.617-46.545c0-12.67-1.689-24.638-4.753-35.356 c-0.623-2.179-2.875-2.914-4.289-1.361c-9,9.885-20.45,16.571-33.133,18.53c-0.996,0.154-1.842,0.946-2.174,2.086l-3.164,10.868 c-0.829,2.846-4.174,2.848-5.004,0.003l-3.158-10.813c-0.332-1.138-1.175-1.928-2.169-2.083 c-12.686-1.982-24.141-8.647-33.18-18.531c-1.418-1.55-3.67-0.808-4.287,1.374C151.676,295.84,149.988,307.819,149.988,320.426z"/></g></g></g></svg>