<svg xmlns="http://www.w3.org/2000/svg" xmlns:xlink="http://www.w3.org/1999/xlink" x="0" y="0" version="1.1" viewBox="0 0 400 400" xml:space="preserve" style="enable-background:new 0 0 400 400"><g id="Revised_color_icons"><g><polygon style="fill:#36b1bf;stroke:#1c425c;stroke-width:8;stroke-linecap:round;stroke-linejoin:round;stroke-miterlimit:10" points="240.377 289.525 240.377 289.535 159.627 289.535 159.627 289.525 168.567 252.116 169.487 248.285 230.517 248.285 231.436 252.116"/><path style="fill:#4ad9d9;stroke:#1c425c;stroke-width:8;stroke-linecap:round;stroke-linejoin:round;stroke-miterlimit:10" d="M339.547,15.695h-279.1c-10.17,0-18.43,8.25-18.43,18.43v199.56c0,10.18,8.26,18.43,18.43,18.43h279.1 c10.18,0,18.43-8.25,18.43-18.43V34.125C357.977,23.945,349.727,15.695,339.547,15.695z"/><rect style="fill:#4ad9d9;stroke:#1c425c;stroke-width:8;stroke-linecap:round;stroke-linejoin:round;stroke-miterlimit:10" width="143.937" height="20.625" x="128.032" y="289.529"/><polygon style="fill:#4ad9d9;stroke:#1c425c;stroke-width:8;stroke-linecap:round;stroke-linejoin:round;stroke-miterlimit:10" points="357.979 369.847 42.021 369.847 68.372 323.646 331.628 323.646"/><rect style="fill:#36b1bf;stroke:#1c425c;stroke-width:8;stroke-linecap:round;stroke-linejoin:round;stroke-miterlimit:10" width="315.959" height="14.461" x="42.021" y="369.847"/><g><g><path style="fill:#ffd34e;stroke:#1c425c;stroke-width:8;stroke-linecap:round;stroke-linejoin:round;stroke-miterlimit:10" d="M74.332,337.565c6.982,0,13.963,0,20.945,0c-1.418,3.26-2.836,6.519-4.254,9.779 c-7.265,0-14.53,0-21.795,0C70.929,344.085,72.631,340.825,74.332,337.565z"/><path style="fill:#ffd34e;stroke:#1c425c;stroke-width:8;stroke-linecap:round;stroke-linejoin:round;stroke-miterlimit:10" d="M95.277,337.565c6.982,0,13.963,0,20.944,0c-1.135,3.26-2.269,6.519-3.403,9.779 c-7.265,0-14.53,0-21.795,0C92.441,344.085,93.859,340.825,95.277,337.565z"/><path style="fill:#ffd34e;stroke:#1c425c;stroke-width:8;stroke-linecap:round;stroke-linejoin:round;stroke-miterlimit:10" d="M116.221,337.565c6.982,0,13.963,0,20.945,0c-0.851,3.26-1.701,6.519-2.552,9.779 c-7.265,0-14.531,0-21.796,0C113.952,344.085,115.087,340.825,116.221,337.565z"/><path style="fill:#ffd34e;stroke:#1c425c;stroke-width:8;stroke-linecap:round;stroke-linejoin:round;stroke-miterlimit:10" d="M137.166,337.565c6.981,0,13.963,0,20.945,0c-0.567,3.26-1.135,6.519-1.702,9.779 c-7.265,0-14.531,0-21.795,0C135.465,344.085,136.316,340.825,137.166,337.565z"/><path style="fill:#ffd34e;stroke:#1c425c;stroke-width:8;stroke-linecap:round;stroke-linejoin:round;stroke-miterlimit:10" d="M158.111,337.565c6.981,0,13.962,0,20.944,0c-0.283,3.26-0.567,6.519-0.851,9.779 c-7.265,0-14.53,0-21.795,0C156.977,344.085,157.544,340.825,158.111,337.565z"/><path style="fill:#ffd34e;stroke:#1c425c;stroke-width:8;stroke-linecap:round;stroke-linejoin:round;stroke-miterlimit:10" d="M179.055,337.565c6.981,0,13.963,0,20.945,0c0,3.26,0,6.519,0,9.779c-7.265,0-14.53,0-21.795,0 C178.488,344.085,178.772,340.825,179.055,337.565z"/><path style="fill:#ffd34e;stroke:#1c425c;stroke-width:8;stroke-linecap:round;stroke-linejoin:round;stroke-miterlimit:10" d="M200,337.565c6.982,0,13.963,0,20.945,0c0.284,3.26,0.566,6.519,0.851,9.779c-7.266,0-14.531,0-21.796,0 C200,344.085,200,340.825,200,337.565z"/><path style="fill:#ffd34e;stroke:#1c425c;stroke-width:8;stroke-linecap:round;stroke-linejoin:round;stroke-miterlimit:10" d="M220.945,337.565c6.981,0,13.962,0,20.944,0c0.567,3.26,1.135,6.519,1.702,9.779 c-7.264,0-14.529,0-21.795,0C221.512,344.085,221.229,340.825,220.945,337.565z"/><path style="fill:#ffd34e;stroke:#1c425c;stroke-width:8;stroke-linecap:round;stroke-linejoin:round;stroke-miterlimit:10" d="M241.889,337.565c6.982,0,13.964,0,20.945,0c0.851,3.26,1.702,6.519,2.552,9.779 c-7.266,0-14.53,0-21.795,0C243.024,344.085,242.456,340.825,241.889,337.565z"/><path style="fill:#ffd34e;stroke:#1c425c;stroke-width:8;stroke-linecap:round;stroke-linejoin:round;stroke-miterlimit:10" d="M262.834,337.565c6.981,0,13.963,0,20.944,0c1.134,3.26,2.269,6.519,3.403,9.779 c-7.265,0-14.53,0-21.794,0C264.535,344.085,263.684,340.825,262.834,337.565z"/><path style="fill:#ffd34e;stroke:#1c425c;stroke-width:8;stroke-linecap:round;stroke-linejoin:round;stroke-miterlimit:10" d="M283.778,337.565c6.981,0,13.962,0,20.945,0c1.417,3.26,2.835,6.519,4.254,9.779 c-7.265,0-14.531,0-21.796,0C286.046,344.085,284.912,340.825,283.778,337.565z"/><path style="fill:#ffd34e;stroke:#1c425c;stroke-width:8;stroke-linecap:round;stroke-linejoin:round;stroke-miterlimit:10" d="M304.723,337.565c6.981,0,13.963,0,20.945,0c1.702,3.26,3.402,6.519,5.104,9.779 c-7.266,0-14.531,0-21.795,0C307.559,344.085,306.141,340.825,304.723,337.565z"/><path style="fill:#ffd34e;stroke:#1c425c;stroke-width:8;stroke-linecap:round;stroke-linejoin:round;stroke-miterlimit:10" d="M69.228,347.344c7.265,0,14.531,0,21.795,0c-1.417,3.26-2.835,6.519-4.253,9.779 c-7.549,0-15.098,0-22.646,0C65.825,353.863,67.526,350.604,69.228,347.344z"/><path style="fill:#ffd34e;stroke:#1c425c;stroke-width:8;stroke-linecap:round;stroke-linejoin:round;stroke-miterlimit:10" d="M91.023,347.344c7.265,0,14.53,0,21.795,0c-1.134,3.26-2.269,6.519-3.403,9.779 c-7.548,0-15.097,0-22.646,0C88.187,353.863,89.605,350.604,91.023,347.344z"/><path style="fill:#ffd34e;stroke:#1c425c;stroke-width:8;stroke-linecap:round;stroke-linejoin:round;stroke-miterlimit:10" d="M112.818,347.344c7.264,0,14.53,0,21.796,0c-0.851,3.26-1.702,6.519-2.552,9.779 c-7.549,0-15.098,0-22.647,0C110.55,353.863,111.685,350.604,112.818,347.344z"/><path style="fill:#ffd34e;stroke:#1c425c;stroke-width:8;stroke-linecap:round;stroke-linejoin:round;stroke-miterlimit:10" d="M134.614,347.344c7.266,0,14.53,0,21.795,0c-0.567,3.26-1.134,6.519-1.702,9.779 c-7.548,0-15.098,0-22.646,0C132.913,353.863,133.765,350.604,134.614,347.344z"/><path style="fill:#ffd34e;stroke:#1c425c;stroke-width:8;stroke-linecap:round;stroke-linejoin:round;stroke-miterlimit:10" d="M156.41,347.344c7.265,0,14.53,0,21.795,0c-0.284,3.26-0.566,6.519-0.851,9.779 c-7.549,0-15.098,0-22.646,0C155.275,353.863,155.842,350.604,156.41,347.344z"/><path style="fill:#ffd34e;stroke:#1c425c;stroke-width:8;stroke-linecap:round;stroke-linejoin:round;stroke-miterlimit:10" d="M178.205,347.344c7.266,0,14.531,0,21.795,0c0,3.26,0,6.519,0,9.779c-7.548,0-15.098,0-22.646,0 C177.638,353.863,177.92,350.604,178.205,347.344z"/><path style="fill:#ffd34e;stroke:#1c425c;stroke-width:8;stroke-linecap:round;stroke-linejoin:round;stroke-miterlimit:10" d="M199.999,347.344c7.265,0,14.531,0,21.796,0c0.283,3.26,0.566,6.519,0.851,9.779 c-7.549,0-15.098,0-22.647,0C199.999,353.863,199.999,350.604,199.999,347.344z"/><path style="fill:#ffd34e;stroke:#1c425c;stroke-width:8;stroke-linecap:round;stroke-linejoin:round;stroke-miterlimit:10" d="M221.796,347.344c7.266,0,14.529,0,21.795,0c0.567,3.26,1.135,6.519,1.702,9.779 c-7.548,0-15.097,0-22.646,0C222.363,353.863,222.079,350.604,221.796,347.344z"/><path style="fill:#ffd34e;stroke:#1c425c;stroke-width:8;stroke-linecap:round;stroke-linejoin:round;stroke-miterlimit:10" d="M243.591,347.344c7.265,0,14.53,0,21.795,0c0.85,3.26,1.702,6.519,2.552,9.779 c-7.549,0-15.097,0-22.646,0C244.725,353.863,244.158,350.604,243.591,347.344z"/><path style="fill:#ffd34e;stroke:#1c425c;stroke-width:8;stroke-linecap:round;stroke-linejoin:round;stroke-miterlimit:10" d="M265.386,347.344c7.265,0,14.529,0,21.794,0c1.135,3.26,2.268,6.519,3.403,9.779 c-7.548,0-15.098,0-22.646,0C267.088,353.863,266.236,350.604,265.386,347.344z"/><path style="fill:#ffd34e;stroke:#1c425c;stroke-width:8;stroke-linecap:round;stroke-linejoin:round;stroke-miterlimit:10" d="M287.181,347.344c7.266,0,14.531,0,21.796,0c1.417,3.26,2.835,6.519,4.253,9.779 c-7.549,0-15.098,0-22.647,0C289.449,353.863,288.315,350.604,287.181,347.344z"/><path style="fill:#ffd34e;stroke:#1c425c;stroke-width:8;stroke-linecap:round;stroke-linejoin:round;stroke-miterlimit:10" d="M308.977,347.344c7.265,0,14.531,0,21.795,0c1.701,3.26,3.402,6.519,5.104,9.779 c-7.548,0-15.097,0-22.646,0C311.812,353.863,310.395,350.604,308.977,347.344z"/></g></g></g><rect style="fill:#fff;stroke:#1c425c;stroke-width:8;stroke-linecap:round;stroke-linejoin:round;stroke-miterlimit:10" width="276.44" height="196.667" x="61.78" y="35.452"/><rect style="fill:#94399e;stroke:#1c425c;stroke-width:8;stroke-linecap:round;stroke-linejoin:round;stroke-miterlimit:10" width="276.44" height="22.424" x="61.78" y="35.452"/><g><g><line style="fill:none;stroke:#1c425c;stroke-width:8;stroke-linecap:round;stroke-linejoin:round;stroke-miterlimit:10" x1="82.936" x2="106.475" y1="78.096" y2="78.096"/><line style="fill:none;stroke:#1c425c;stroke-width:8;stroke-linecap:round;stroke-linejoin:round;stroke-miterlimit:10" x1="82.936" x2="106.475" y1="97.003" y2="97.003"/><line style="fill:none;stroke:#1c425c;stroke-width:8;stroke-linecap:round;stroke-linejoin:round;stroke-miterlimit:10" x1="82.936" x2="106.475" y1="115.91" y2="115.91"/><line style="fill:none;stroke:#1c425c;stroke-width:8;stroke-linecap:round;stroke-linejoin:round;stroke-miterlimit:10" x1="82.936" x2="106.475" y1="134.817" y2="134.817"/></g><g><line style="fill:none;stroke:#1c425c;stroke-width:8;stroke-linecap:round;stroke-linejoin:round;stroke-miterlimit:10" x1="127.711" x2="315.397" y1="78.096" y2="78.096"/><line style="fill:none;stroke:#1c425c;stroke-width:8;stroke-linecap:round;stroke-linejoin:round;stroke-miterlimit:10" x1="127.711" x2="192.569" y1="97.003" y2="97.003"/><line style="fill:none;stroke:#1c425c;stroke-width:8;stroke-linecap:round;stroke-linejoin:round;stroke-miterlimit:10" x1="127.711" x2="207.942" y1="115.91" y2="115.91"/><line style="fill:none;stroke:#1c425c;stroke-width:8;stroke-linecap:round;stroke-linejoin:round;stroke-miterlimit:10" x1="127.711" x2="228.887" y1="134.817" y2="134.817"/><line style="fill:none;stroke:#1c425c;stroke-width:8;stroke-linecap:round;stroke-linejoin:round;stroke-miterlimit:10" x1="127.711" x2="200.002" y1="153.724" y2="153.724"/><line style="fill:none;stroke:#1c425c;stroke-width:8;stroke-linecap:round;stroke-linejoin:round;stroke-miterlimit:10" x1="127.711" x2="214.22" y1="172.631" y2="172.631"/><line style="fill:none;stroke:#1c425c;stroke-width:8;stroke-linecap:round;stroke-linejoin:round;stroke-miterlimit:10" x1="127.711" x2="240.377" y1="191.538" y2="191.538"/><line style="fill:none;stroke:#1c425c;stroke-width:8;stroke-linecap:round;stroke-linejoin:round;stroke-miterlimit:10" x1="127.711" x2="254.488" y1="211.757" y2="211.757"/></g></g></g></svg>