<svg xmlns="http://www.w3.org/2000/svg" xmlns:xlink="http://www.w3.org/1999/xlink" x="0" y="0" version="1.1" viewBox="0 0 400 400" xml:space="preserve" style="enable-background:new 0 0 400 400"><g id="Revised_color_icons"><g><path style="fill:#fff;stroke:#1c425c;stroke-width:8;stroke-linecap:round;stroke-linejoin:round;stroke-miterlimit:10" d="M378.887,346.289H17.768c-3.314,0-6-2.686-6-6V59.711c0-3.314,2.686-6,6-6h361.119c3.314,0,6,2.686,6,6 v280.578C384.887,343.603,382.2,346.289,378.887,346.289z"/><path style="fill:#94399e;stroke:#1c425c;stroke-width:8;stroke-linecap:round;stroke-linejoin:round;stroke-miterlimit:10" d="M384.887,87.24H11.768V59.711c0-3.314,2.686-6,6-6h361.119c3.314,0,6,2.686,6,6V87.24z"/></g><g><rect style="fill:#4ad9d9;stroke:#1c425c;stroke-width:8;stroke-linecap:round;stroke-linejoin:round;stroke-miterlimit:10" width="51" height="21.394" x="33.044" y="108.789"/><rect style="fill:#fff;stroke:#1c425c;stroke-width:8;stroke-linecap:round;stroke-linejoin:round;stroke-miterlimit:10" width="51" height="21.394" x="33.044" y="130.183"/><rect style="fill:#4ad9d9;stroke:#1c425c;stroke-width:8;stroke-linecap:round;stroke-linejoin:round;stroke-miterlimit:10" width="51" height="21.394" x="33.044" y="151.577"/><rect style="fill:#fff;stroke:#1c425c;stroke-width:8;stroke-linecap:round;stroke-linejoin:round;stroke-miterlimit:10" width="51" height="21.394" x="33.044" y="172.972"/><rect style="fill:#4ad9d9;stroke:#1c425c;stroke-width:8;stroke-linecap:round;stroke-linejoin:round;stroke-miterlimit:10" width="51" height="21.394" x="33.044" y="194.366"/><line style="fill:none;stroke:#1c425c;stroke-width:8;stroke-linecap:round;stroke-linejoin:round;stroke-miterlimit:10" x1="128.477" x2="363.611" y1="108.789" y2="108.789"/><line style="fill:none;stroke:#1c425c;stroke-width:8;stroke-linecap:round;stroke-linejoin:round;stroke-miterlimit:10" x1="128.477" x2="363.611" y1="130.183" y2="130.183"/><line style="fill:none;stroke:#1c425c;stroke-width:8;stroke-linecap:round;stroke-linejoin:round;stroke-miterlimit:10" x1="157.04" x2="214.381" y1="248.309" y2="248.309"/><line style="fill:none;stroke:#1c425c;stroke-width:8;stroke-linecap:round;stroke-linejoin:round;stroke-miterlimit:10" x1="265.707" x2="363.611" y1="173.428" y2="173.428"/><line style="fill:none;stroke:#1c425c;stroke-width:8;stroke-linecap:round;stroke-linejoin:round;stroke-miterlimit:10" x1="265.707" x2="363.611" y1="194.823" y2="194.823"/><line style="fill:none;stroke:#1c425c;stroke-width:8;stroke-linecap:round;stroke-linejoin:round;stroke-miterlimit:10" x1="265.707" x2="363.611" y1="216.217" y2="216.217"/><line style="fill:none;stroke:#1c425c;stroke-width:8;stroke-linecap:round;stroke-linejoin:round;stroke-miterlimit:10" x1="265.707" x2="363.611" y1="237.612" y2="237.612"/><line style="fill:none;stroke:#1c425c;stroke-width:8;stroke-linecap:round;stroke-linejoin:round;stroke-miterlimit:10" x1="265.707" x2="363.611" y1="259.006" y2="259.006"/><line style="fill:none;stroke:#1c425c;stroke-width:8;stroke-linecap:round;stroke-linejoin:round;stroke-miterlimit:10" x1="265.707" x2="363.611" y1="280.4" y2="280.4"/><line style="fill:none;stroke:#1c425c;stroke-width:8;stroke-linecap:round;stroke-linejoin:round;stroke-miterlimit:10" x1="265.707" x2="363.611" y1="301.795" y2="301.795"/><rect style="fill:none;stroke:#1c425c;stroke-width:8;stroke-linecap:round;stroke-linejoin:round;stroke-miterlimit:10" width="115.125" height="150.674" x="128.477" y="172.972"/><line style="fill:none;stroke:#1c425c;stroke-width:8;stroke-linecap:round;stroke-linejoin:round;stroke-miterlimit:10" x1="157.04" x2="214.381" y1="248.309" y2="200"/><line style="fill:none;stroke:#1c425c;stroke-width:8;stroke-linecap:round;stroke-linejoin:round;stroke-miterlimit:10" x1="214.381" x2="157.04" y1="296.617" y2="248.309"/><rect style="fill:#4ad9d9;stroke:#1c425c;stroke-width:8;stroke-linecap:round;stroke-linejoin:round;stroke-miterlimit:10" width="33.333" height="48" x="140.373" y="224.309"/><circle style="fill:#f48e36;stroke:#1c425c;stroke-width:8;stroke-linecap:round;stroke-linejoin:round;stroke-miterlimit:10" cx="214.381" cy="200" r="15.761"/><circle style="fill:#f48e36;stroke:#1c425c;stroke-width:8;stroke-linecap:round;stroke-linejoin:round;stroke-miterlimit:10" cx="214.381" cy="248.309" r="15.761"/><circle style="fill:#f48e36;stroke:#1c425c;stroke-width:8;stroke-linecap:round;stroke-linejoin:round;stroke-miterlimit:10" cx="214.381" cy="296.617" r="15.761"/></g></g></svg>