<svg xmlns="http://www.w3.org/2000/svg" xmlns:xlink="http://www.w3.org/1999/xlink" id="Layer_1" x="0" y="0" version="1.1" viewBox="0 0 400 200" xml:space="preserve" style="enable-background:new 0 0 400 200"><style type="text/css">.st10{stroke:#1c425c;stroke-width:5;stroke-linecap:round;stroke-linejoin:round;stroke-miterlimit:10}.st7{fill:none}.st7,.st8,.st9{stroke:#1c425c;stroke-width:5;stroke-linecap:round;stroke-linejoin:round;stroke-miterlimit:10}.st8{fill:#ffd34e}.st9{fill:#4ad9d9}.st10{fill:#efefef}</style><g><g><line x1="140.804" x2="113.926" y1="88.789" y2="88.789" class="st7"/><circle cx="113.926" cy="88.789" r="4.904" class="st8"/></g><g><line x1="164.765" x2="75.845" y1="110.256" y2="110.256" class="st7"/><circle cx="75.845" cy="110.256" r="4.904" class="st8"/></g><g><line x1="164.765" x2="125.491" y1="138.604" y2="138.604" class="st7"/><circle cx="125.491" cy="138.604" r="4.904" class="st8"/></g><g><line x1="144.649" x2="144.649" y1="84.759" y2="8.625" class="st7"/><circle cx="144.649" cy="8.625" r="4.904" class="st8"/></g><g><g><polyline points="189.213 135.687 189.213 191.375 225.028 191.375" class="st7"/><circle cx="225.028" cy="191.375" r="4.904" class="st8"/></g><g><line x1="243.687" x2="243.687" y1="145.76" y2="191.375" class="st7"/><circle cx="243.687" cy="191.375" r="4.904" class="st8"/></g><g><line x1="164.333" x2="164.333" y1="115.241" y2="191.375" class="st7"/><circle cx="164.333" cy="191.375" r="4.904" class="st8"/></g></g><g><polyline points="164.453 64.313 164.453 8.625 243.687 8.625" class="st7"/><circle cx="243.687" cy="8.625" r="4.904" class="st8"/></g><g><line x1="264.125" x2="295.913" y1="138.725" y2="138.725" class="st7"/><circle cx="295.913" cy="138.725" r="4.904" class="st8"/></g><g><line x1="256.28" x2="295.913" y1="105.233" y2="105.233" class="st7"/><circle cx="295.913" cy="105.233" r="4.904" class="st8"/></g><g><line x1="256.28" x2="324.155" y1="71.861" y2="71.861" class="st7"/><circle cx="324.155" cy="71.861" r="4.904" class="st8"/></g><circle cx="204.718" cy="97.359" r="73.203" class="st9"/><path d="M253.726,71.5905h-49.6803c-0.0116-0.1944-0.0177-0.3911-0.0177-0.5888c0-5.2147,4.1133-9.4683,9.2727-9.6936 c0-0.2408,0.0077-0.4822,0.0237-0.7258c0.3955-6.0349,5.6085-10.6061,11.6434-10.2106c4.8678,0.3192,8.7833,3.773,9.9079,8.2641 c0.1077-0.0033,0.2154-0.005,0.3237-0.005c3.6328,0,6.8325,1.8526,8.7066,4.664c0.4573-0.0773,0.9274-0.1176,1.4068-0.1176 C249.959,63.1772,253.726,66.9436,253.726,71.5905z" class="st10"/><path d="M264.285,107.9969H145.1565c-0.0278-0.4662-0.0424-0.9377-0.0424-1.4118 c0-12.5042,9.8633-22.7039,22.235-23.2443c0-0.5775,0.0185-1.1563,0.0569-1.7404c0.9483-14.4711,13.4486-25.4323,27.9196-24.4839 c11.6725,0.7655,21.0616,9.0473,23.7581,19.8165c0.2583-0.0079,0.5166-0.0119,0.7762-0.0119 c8.711,0,16.3836,4.4422,20.8775,11.1837c1.0966-0.1854,2.2238-0.2821,3.3734-0.2821 C255.2521,87.8227,264.285,96.8542,264.285,107.9969z" class="st10"/><path d="M259.3201,133.9599h-81.8297c-0.0191-0.3202-0.0291-0.6441-0.0291-0.9698 c0-8.5892,6.7751-15.5954,15.2733-15.9665c0-0.3967,0.0127-0.7943,0.0391-1.1955c0.6514-9.9402,9.2378-17.4695,19.178-16.8181 c8.0178,0.5258,14.4672,6.2146,16.3195,13.612c0.1774-0.0055,0.3548-0.0082,0.5331-0.0082c5.9836,0,11.2539,3.0514,14.3408,7.6821 c0.7533-0.1274,1.5275-0.1938,2.3172-0.1938C253.1154,120.1023,259.3201,126.306,259.3201,133.9599z" class="st10"/></g></svg>