<svg xmlns="http://www.w3.org/2000/svg" xmlns:xlink="http://www.w3.org/1999/xlink" id="Layer_1" x="0" y="0" version="1.1" viewBox="0 0 400 200" xml:space="preserve" style="enable-background:new 0 0 400 200"><style type="text/css">.st8{fill:#ffd34e;stroke-linejoin:round}.st12,.st8,.st9{stroke:#1c425c;stroke-width:5;stroke-linecap:round;stroke-miterlimit:10}.st9{fill:#4ad9d9}.st12,.st16,.st17,.st9{stroke-linejoin:round}.st12{fill:#bdd350}.st16,.st17{stroke-width:5;stroke-miterlimit:10}.st16{fill:none;stroke:#1c425c}.st17{fill:#1c425c}.st17,.st18,.st19{stroke:#1c425c}.st18,.st19,.st20{stroke-width:5;stroke-miterlimit:10}.st18{fill:#e74c3c;stroke-linecap:round;stroke-linejoin:round}.st19,.st20{fill:none}.st20{stroke:#fff;stroke-linecap:round}</style><g><rect width="224" height="171.25" x="88" y="14.375" class="st16"/><rect width="224" height="14.5" x="88" y="14.375" class="st17"/><circle cx="120.951" cy="65.825" r="13.95" class="st9"/><circle cx="120.951" cy="154.175" r="13.95" class="st9"/><rect width="27.9" height="27.9" x="159.7" y="51.876" class="st12"/><rect width="27.9" height="27.9" x="212.4" y="51.876" class="st12"/><rect width="27.9" height="27.9" x="212.4" y="96.05" class="st12"/><rect width="27.9" height="27.9" x="212.09" y="139.295" class="st12"/><rect width="27.9" height="27.9" x="265.099" y="96.05" class="st18"/><rect width="27.9" height="27.9" x="265.099" y="51.876" class="st8"/><line x1="134.901" x2="160.01" y1="65.825" y2="65.825" class="st19"/><line x1="187.91" x2="212.09" y1="65.825" y2="65.825" class="st19"/><line x1="239.99" x2="265.099" y1="65.825" y2="65.825" class="st19"/><line x1="173.96" x2="212.09" y1="79.775" y2="109.535" class="st19"/><line x1="239.99" x2="265.099" y1="109.535" y2="109.535" class="st19"/><line x1="134.901" x2="212.09" y1="154.175" y2="154.175" class="st19"/><line x1="239.99" x2="279.049" y1="153.245" y2="123.485" class="st19"/><line x1="271.286" x2="286.813" y1="22.072" y2="22.072" class="st20"/><line x1="244.936" x2="260.463" y1="22.072" y2="22.072" class="st20"/><line x1="218.586" x2="234.113" y1="22.072" y2="22.072" class="st20"/><line x1="113.187" x2="128.714" y1="22.072" y2="22.072" class="st20"/></g></svg>