<svg xmlns="http://www.w3.org/2000/svg" xmlns:xlink="http://www.w3.org/1999/xlink" style="enable-background:new 0 0 75.1 71.1" id="Layer_1" x="0" y="0" version="1.1" viewBox="0 0 75.1 71.1" xml:space="preserve"><style type="text/css">.st43,.st44,.st45{stroke:#1c425c;stroke-miterlimit:10}.st43{fill:#00bfc0;stroke-width:.3211;stroke-linejoin:round}.st44{fill:#9534a0;stroke-width:.5}.st45{fill:#f7a600;stroke-width:.3211}</style><g id="LMa5Iv.tif"><g><path d="M31.2,1.9c2.9,0.8,5.3,2.1,6.8,4.8c2.6,4.8,0.7,10.7-4.3,13c-4.7,2.2-10.6-0.1-12.5-5 c-2-5.1,0.7-10.7,5.9-12.3c0.5-0.2,1-0.3,1.5-0.5C29.5,1.9,30.4,1.9,31.2,1.9z" class="st43"/><path d="M15.4,60.3c0.3-2.3,0.3-4.7,1-6.9c1.4-4.1,4.4-6.7,8.8-7.1c3.2-0.3,6.4-0.4,9.6-0.1 c6.2,0.6,10.1,5.1,10.2,11.3c0,2.2-0.1,4.5,0,6.7c0.1,1.5-0.5,2.1-1.8,2.5c-4.9,1.6-10,2.4-15.2,1.8c-3.6-0.4-7.2-1.4-10.9-2 c-1.3-0.2-1.6-0.9-1.5-2.1c0.1-1.4,0-2.8,0-4.2C15.6,60.3,15.5,60.3,15.4,60.3z" class="st44"/><path d="M19.2,37.3c1.1,2.5,2.1,4.8,3.2,7.3c-6.5,2.5-9.3,7.8-8.8,15c-4.4-0.2-8.4-1.1-12.4-2.3 c-0.3-0.1-0.6-0.7-0.6-1.1c0-2.9-0.1-5.9,0.1-8.8c0.3-5,3.9-9.3,8.8-10C12.8,37,16.2,37.3,19.2,37.3z" class="st45"/><path d="M61.2,50.9c0.5-7.2-2.3-12.4-9.2-15.1c1.7-2,2.9-4.1,3.1-6.6c0-0.3,0.7-0.6,1-0.6c2.6,0,5.1-0.1,7.7,0.1 c4.8,0.4,9.1,4.7,9.4,9.4c0.2,3.1,0.1,6.3,0.1,9.4c0,0.4-0.4,1-0.7,1.2C70.5,50,64.1,51.2,61.2,50.9z" class="st45"/><path d="M38.2,44.7c1.1-2.4,2.1-4.7,3.3-7.4c5-1.7,12.3,0.2,15.5,4.2c1.3,1.7,2.1,3.7,2.2,5.9c0.1,2.9,0.1,5.8,0,8.7 c0,0.4-0.3,1.1-0.6,1.3c-3.6,1.6-7.4,2.3-11.5,2.4C47.5,52.5,44.8,47.2,38.2,44.7z" class="st43"/><path d="M30.4,45.4c-4.7,0-8.6-3.8-8.6-8.5c0-4.7,3.8-8.6,8.5-8.6c4.7,0,8.6,3.8,8.6,8.5 C38.9,41.5,35.1,45.4,30.4,45.4z" class="st44"/><path d="M6.7,28.2c-0.2-4.7,3.5-8.6,8.3-8.8c4.4-0.2,8.5,3.4,8.8,7.9c0,0.6-0.4,1.3-0.7,1.9c-1,1.7-1.9,3.4-3,5 c-0.4,0.6-0.8,1.3-1.3,1.6C13.3,38.3,6.9,34.3,6.7,28.2z" class="st45"/><path d="M53.1,27.9c0,5.6-5.2,9.8-10.7,8.4c-0.9-0.2-1.6-0.6-1.8-1.7c-0.4-2.5-1.7-4.5-3.7-5.9 c-0.8-0.6-0.9-1.3-0.8-2.2c0.8-4.2,4.8-7.4,8.9-7C49.7,19.8,53.1,23.3,53.1,27.9z" class="st43"/><path d="M67.3,19.3c0,5.6-5.3,9.7-10.8,8.3c-0.9-0.2-1.5-0.7-1.7-1.8c-0.5-2.5-1.8-4.5-3.8-5.9 c-0.8-0.6-0.9-1.2-0.8-2.1c0.8-4.3,4.8-7.5,8.9-7.1C63.9,11.2,67.3,14.7,67.3,19.3z" class="st45"/><path d="M23.8,21.4c4.1,0,8.2,0,12.2,0c-0.7,1.9-1.3,3.7-1.9,5.5c-2.8-1.1-5.7-1-8.4,0.4 C25.1,25.3,24.5,23.4,23.8,21.4z" class="st43"/></g></g></svg>