<svg xmlns="http://www.w3.org/2000/svg" xmlns:xlink="http://www.w3.org/1999/xlink" style="enable-background:new 0 0 40 40" id="Layer_1" x="0" y="0" version="1.1" viewBox="0 0 40 40" xml:space="preserve"><style type="text/css"/><g id="_x37_AyQSl.tif"><g><path d="M24,0c0,1.7,0,3.5,0,5.3c0.8,0,1.6,0,2.3,0c1.2,0,2.4,0.2,3.6,0.7c2.8,1.1,4.3,3.2,4.6,6.1c0.1,0.5,0.1,1,0.1,1.5 c0,5.3,0,10.6,0,15.8c0,0.3,0.1,0.5,0.3,0.7c2,1.4,2.8,3.8,2,6.1c-0.8,2.2-3,3.7-5.4,3.5c-2.2-0.2-4.1-1.8-4.7-3.9 c-0.6-2.2,0.2-4.4,2.1-5.7c0.3-0.2,0.4-0.4,0.4-0.7c0-5.3,0-10.6,0-15.8c0-0.8-0.3-1.5-0.8-2.2c-0.4-0.5-1-0.8-1.6-0.8 c-0.9,0-1.8,0-2.8,0c0,1.7,0,3.5,0,5.3c-2.7-2.7-5.3-5.3-7.9-7.9C16.1,8.4,16.1,8.7,16,9c-0.3,1.4-1.1,2.5-2.2,3.3 c-0.2,0.2-0.3,0.3-0.3,0.6c0,5.5,0,11.1,0,16.6c0,0.3,0.1,0.4,0.3,0.6c2,1.4,2.8,3.8,2.1,6.1c-0.8,2.3-2.9,3.7-5.3,3.6 c-2.4-0.1-4.5-2-4.9-4.3c0-0.1-0.1-0.2-0.1-0.3c0-0.4,0-0.9,0-1.3c0,0,0.1-0.1,0.1-0.1c0.3-1.6,1.1-2.8,2.4-3.7 c0.1-0.1,0.2-0.3,0.2-0.5c0-5.6,0-11.1,0-16.7c0-0.2-0.1-0.4-0.3-0.5c-1.1-0.7-1.8-1.7-2.2-2.9C5.6,9.1,5.6,8.9,5.5,8.6 c0-0.4,0-0.9,0-1.3c0-0.1,0.1-0.2,0.1-0.3C6,4.5,8.3,2.6,10.9,2.6c2.6,0,4.8,1.9,5.1,4.5c0,0.2,0.1,0.5,0.1,0.7 c0.1-0.1,0.1-0.1,0.2-0.1c2.5-2.5,5-5,7.5-7.5C23.9,0.2,23.9,0.1,24,0C24,0,24,0,24,0z M8.2,34.4c0,1.5,1.2,2.7,2.6,2.7 c1.5,0,2.7-1.2,2.7-2.6c0-1.4-1.2-2.6-2.6-2.7C9.4,31.8,8.2,32.9,8.2,34.4z M32,31.8c-1.5,0-2.7,1.2-2.7,2.6 c0,1.5,1.2,2.7,2.6,2.7c1.4,0,2.6-1.2,2.7-2.6C34.7,33,33.5,31.8,32,31.8z M13.5,7.9c0-1.5-1.2-2.6-2.7-2.6 c-1.4,0-2.6,1.2-2.6,2.6c0,1.5,1.2,2.7,2.6,2.7C12.3,10.6,13.5,9.4,13.5,7.9z"/></g></g></svg>