<svg xmlns="http://www.w3.org/2000/svg" xmlns:xlink="http://www.w3.org/1999/xlink" style="enable-background:new 0 0 360 200" id="Layer_1" x="0" y="0" version="1.1" viewBox="0 0 360 200" xml:space="preserve"><style type="text/css">.st0{fill:none;stroke:#1c425c;stroke-width:3;stroke-linecap:round;stroke-linejoin:round;stroke-miterlimit:10}.st2{fill:#00bfc0}.st2,.st3{stroke:#1c425c;stroke-width:3;stroke-miterlimit:10}.st3,.st7{fill:#9534a0}.st18{fill:#db9e36;stroke:#1c425c;stroke-width:2;stroke-miterlimit:10}.st30,.st31,.st32{fill:none;stroke-width:3.262;stroke-linejoin:round}.st30{stroke:#9534a0;stroke-miterlimit:10;stroke-dasharray:3.262,3.262}.st31{stroke:#a6d3eb}.st32{stroke:#1c425c;stroke-linecap:round;stroke-miterlimit:10}</style><g><g><circle cx="132.4" cy="100.8" r="55.3" class="st30"/><line x1="278.1" x2="278.1" y1="182.1" y2="180.4" class="st31"/><line x1="278.1" x2="278.1" y1="177.2" y2="22.8" class="st30"/><line x1="278.1" x2="278.1" y1="21.2" y2="19.6" class="st31"/><path d="M269.6,180.7h17c0.5,0,0.8,0.6,0.4,1l-8.5,8.5c-0.2,0.2-0.6,0.2-0.8,0l-8.5-8.5 C268.8,181.4,269.1,180.7,269.6,180.7" class="st7"/><path d="M269.6,20.9h17c0.5,0,0.8-0.6,0.4-1l-8.5-8.5c-0.2-0.2-0.6-0.2-0.8,0l-8.5,8.5 C268.8,20.3,269.1,20.9,269.6,20.9" class="st7"/><path d="M151.9,31.8h44.6c2.8,0,5,2.2,5,5v44.6" class="st0"/><path d="M63.4,120.3v44.6c0,2.8,2.2,5,5,5H113" class="st0"/><path d="M63.4,81.4V36.8c0-2.8,2.2-5,5-5H113" class="st0"/><path d="M201.4,120.3v44.6c0,2.8-2.2,5-5,5h-44.6" class="st0"/><path d="M167.8,102.8c0-0.7,0.1-1.3,0.1-2c0-0.7,0-1.4-0.1-2l-10.1-5c-0.6-2.2-1.5-4.4-2.7-6.3l3.6-10.5 c-1-1.1-2.2-2.2-3.3-3.2l-10.6,3.9h0c-1.6-0.8-3.2-1.5-5-2L135,65.5c-0.9-0.1-1.7-0.1-2.6-0.1c-0.9,0-1.7,0-2.6,0.1l-4.6,10.1 c-1.7,0.5-3.4,1.2-5,2l-10.6-3.9c-1.2,1-2.3,2.1-3.3,3.2l3.6,10.5c-1.2,2-2.1,4.1-2.7,6.3l-10.1,5c0,0.7-0.1,1.3-0.1,2 c0,0.7,0,1.4,0.1,2l10.1,5c0.6,2.2,1.5,4.4,2.7,6.3l-3.6,10.5c1,1.1,2.2,2.2,3.3,3.2l10.6-3.9c1.6,0.8,3.2,1.5,5,2l4.6,10.1 c0.9,0.1,1.7,0.1,2.6,0.1c0.9,0,1.7,0,2.6-0.1l4.6-10.1c1.7-0.5,3.4-1.2,5-2h0l10.6,3.9c1.2-1,2.3-2.1,3.3-3.2l-3.6-10.5 c1.2-2,2.1-4.1,2.7-6.3L167.8,102.8z M132.4,110.6c-5.4,0-9.8-4.4-9.8-9.8c0-5.4,4.4-9.8,9.8-9.8c5.4,0,9.8,4.4,9.8,9.8 C142.2,106.2,137.9,110.6,132.4,110.6" class="st3"/><path d="M167.8,102.8c0-0.7,0.1-1.3,0.1-2c0-0.7,0-1.4-0.1-2l-10.1-5c-0.6-2.2-1.5-4.4-2.7-6.3l3.6-10.5 c-1-1.1-2.2-2.2-3.3-3.2l-10.6,3.9h0c-1.6-0.8-3.2-1.5-5-2L135,65.5c-0.9-0.1-1.7-0.1-2.6-0.1c-0.9,0-1.7,0-2.6,0.1l-4.6,10.1 c-1.7,0.5-3.4,1.2-5,2l-10.6-3.9c-1.2,1-2.3,2.1-3.3,3.2l3.6,10.5c-1.2,2-2.1,4.1-2.7,6.3l-10.1,5c0,0.7-0.1,1.3-0.1,2 c0,0.7,0,1.4,0.1,2l10.1,5c0.6,2.2,1.5,4.4,2.7,6.3l-3.6,10.5c1,1.1,2.2,2.2,3.3,3.2l10.6-3.9c1.6,0.8,3.2,1.5,5,2l4.6,10.1 c0.9,0.1,1.7,0.1,2.6,0.1c0.9,0,1.7,0,2.6-0.1l4.6-10.1c1.7-0.5,3.4-1.2,5-2h0l10.6,3.9c1.2-1,2.3-2.1,3.3-3.2l-3.6-10.5 c1.2-2,2.1-4.1,2.7-6.3L167.8,102.8z M132.4,110.6c-5.4,0-9.8-4.4-9.8-9.8c0-5.4,4.4-9.8,9.8-9.8c5.4,0,9.8,4.4,9.8,9.8 C142.2,106.2,137.9,110.6,132.4,110.6z" class="st32"/><rect width="37" height="37" x="183" y="82.3" class="st2"/><rect width="37" height="37" x="183" y="82.3" class="st0"/><rect width="37" height="37" x="259.6" y="82.3" class="st2"/><rect width="37" height="37" x="259.6" y="82.3" class="st0"/><rect width="37" height="37" x="259.6" y="31.8" class="st2"/><rect width="37" height="37" x="259.6" y="31.8" class="st0"/><rect width="37" height="37" x="259.6" y="132.8" class="st2"/><rect width="37" height="37" x="259.6" y="132.8" class="st0"/><path d="M238.4,114.3v-8.8c0-0.3-0.3-0.6-0.6-0.6h-10.6c-0.3,0-0.6-0.3-0.6-0.6v-7c0-0.3,0.3-0.6,0.6-0.6h10.6 c0.3,0,0.6-0.3,0.6-0.6v-8.8c0-0.5,0.6-0.8,1-0.4l13.4,13.4c0.2,0.2,0.2,0.6,0,0.8l-13.4,13.4C239,115,238.4,114.8,238.4,114.3" class="st7"/><path d="M208.2,100.8c0,3.8-3,6.8-6.8,6.8c-3.8,0-6.8-3-6.8-6.8c0-3.8,3-6.8,6.8-6.8 C205.2,94,208.2,97.1,208.2,100.8" class="st18"/><circle cx="201.4" cy="100.8" r="6.8" class="st32"/><path d="M284.9,100.8c0,3.8-3,6.8-6.8,6.8c-3.8,0-6.8-3-6.8-6.8c0-3.8,3-6.8,6.8-6.8 C281.8,94,284.9,97.1,284.9,100.8" class="st18"/><circle cx="278.1" cy="100.8" r="6.8" class="st32"/><path d="M284.9,50.3c0,3.8-3,6.8-6.8,6.8c-3.8,0-6.8-3-6.8-6.8c0-3.8,3-6.8,6.8-6.8 C281.8,43.5,284.9,46.5,284.9,50.3" class="st18"/><circle cx="278.1" cy="50.3" r="6.8" class="st32"/><path d="M284.9,151.3c0,3.8-3,6.8-6.8,6.8c-3.8,0-6.8-3-6.8-6.8s3-6.8,6.8-6.8C281.8,144.5,284.9,147.6,284.9,151.3" class="st18"/><circle cx="278.1" cy="151.3" r="6.8" class="st32"/></g></g></svg>