<svg xmlns="http://www.w3.org/2000/svg" xmlns:xlink="http://www.w3.org/1999/xlink" id="Layer_1" x="0" y="0" version="1.1" viewBox="0 0 1081.3 774.9" xml:space="preserve" style="enable-background:new 0 0 1081.3 774.9"><style type="text/css">.st2{fill:#00bfc0;stroke:#1c425c;stroke-width:3;stroke-miterlimit:10}.st4{fill:#fff}.st6{fill:#1c425c}.st25{fill:none}.st29{fill:#f7a600}.st35{fill:#023550}.st105{fill:none;stroke:#1c425c;stroke-width:1.909;stroke-linejoin:round;stroke-miterlimit:10;stroke-dasharray:5,5,5,5,5,5}.st106{font-family:&apos;OpenSans-Bold&apos;}.st107{font-size:20px}.st108{fill:#bababa}.st109{font-family:&apos;OpenSans-Semibold&apos;}.st110{font-size:17px}.st111{font-size:15px}.st112{font-size:12px}.st113{font-family:&apos;OpenSans&apos;}.st114,.st115,.st116{stroke:#1c425c;stroke-width:2}.st114{fill:none;stroke-miterlimit:10}.st115,.st116{stroke-linejoin:round}.st115{fill:#fff;stroke-miterlimit:10}.st116{fill:none}</style><path d="M1077.3,773.9H124.1c-1.7,0-3.1-1.4-3.1-3.1V43.2c0-1.7,1.4-3.1,3.1-3.1h953.2c1.7,0,3.1,1.4,3.1,3.1v727.7	C1080.3,772.5,1079,773.9,1077.3,773.9z" class="st105"/><text class="st106 st107" transform="matrix(1 0 0 1 498.6708 17.1387)">This is a Pipeline</text><path d="M421.6,654.4H158.3c-2.4,0-4.3-1.9-4.3-4.3V89.5c0-2.4,1.9-4.3,4.3-4.3h263.3c2.4,0,4.3,1.9,4.3,4.3V650	C425.9,652.4,424,654.4,421.6,654.4z" class="st108"/><text class="st35 st109 st110" transform="matrix(1 0 0 1 249.7065 117.1499)">Stage 1</text><g><path d="M403.4,363.2H178.7c-1.8,0-3.2-1.5-3.2-3.2V145.3c0-1.8,1.5-3.2,3.2-3.2h224.7c1.8,0,3.2,1.5,3.2,3.2v214.6 C406.6,361.7,405.1,363.2,403.4,363.2z" class="st4"/><text class="st109 st111" transform="matrix(1 0 0 1 271.6708 167.7636)">JoB</text><g><path d="M388.2,217.4H196.7c-1.7,0-3-1.3-3-3v-29.1c0-1.7,1.3-3,3-3h191.5c1.7,0,3,1.3,3,3v29.1 C391.2,216,389.9,217.4,388.2,217.4z" class="st29"/><path d="M241.6,217.4h-44.9c-1.7,0-3-1.3-3-3v-29.1c0-1.7,1.3-3,3-3h44.9V217.4z" class="st2"/><text class="st4 st109 st112" transform="matrix(1 0 0 1 199.9325 204.4512)">Task</text><text class="st113 st112" transform="matrix(1 0 0 1 248.9325 203.5303)">ant -Dmodule=A compile</text><polygon points="246.3 207 233.7 199.7 246.3 192.4" class="st29"/></g><g><path d="M388.2,279.4H196.7c-1.7,0-3-1.3-3-3v-29.1c0-1.7,1.3-3,3-3h191.5c1.7,0,3,1.3,3,3v29.1 C391.2,278,389.9,279.4,388.2,279.4z" class="st29"/><path d="M241.6,279.4h-44.9c-1.7,0-3-1.3-3-3v-29.1c0-1.7,1.3-3,3-3h44.9V279.4z" class="st2"/><text class="st4 st109 st112" transform="matrix(1 0 0 1 199.9325 266.4512)">Task</text><text class="st113 st112" transform="matrix(1 0 0 1 248.9325 265.5303)">rake create_docs</text><polygon points="246.3 269 233.7 261.7 246.3 254.4" class="st29"/></g><g><path d="M388.2,340.4H196.7c-1.7,0-3-1.3-3-3v-29.1c0-1.7,1.3-3,3-3h191.5c1.7,0,3,1.3,3,3v29.1 C391.2,339,389.9,340.4,388.2,340.4z" class="st29"/><path d="M241.6,340.4h-44.9c-1.7,0-3-1.3-3-3v-29.1c0-1.7,1.3-3,3-3h44.9V340.4z" class="st2"/><text class="st4 st109 st112" transform="matrix(1 0 0 1 199.9325 327.4512)">Task</text><text class="st113 st112" transform="matrix(1 0 0 1 248.9325 326.5303)">create_package.sh</text><polygon points="246.3 330 233.7 322.7 246.3 315.4" class="st29"/></g><g><g><line x1="532.3" x2="532.3" y1="225" y2="234" class="st114"/><g><polygon points="536.7 233 527.2 233 531.9 237.7" class="st6"/></g></g></g><g><g><line x1="532.3" x2="532.3" y1="288" y2="297" class="st114"/><g><polygon points="536.7 296 527.2 296 531.9 300.7" class="st6"/></g></g></g><g><g><line x1="291.3" x2="291.3" y1="225" y2="234" class="st114"/><g><polygon points="295.7 233 286.2 233 290.9 237.7" class="st6"/></g></g></g><g><g><line x1="291.3" x2="291.3" y1="288" y2="297" class="st114"/><g><polygon points="295.7 296 286.2 296 290.9 300.7" class="st6"/></g></g></g></g><g><path d="M402.4,609.8H177.7c-1.8,0-3.2-1.5-3.2-3.2V391.3c0-1.8,1.5-3.2,3.2-3.2h224.7c1.8,0,3.2,1.5,3.2,3.2v215.2 C405.6,608.3,404.1,609.8,402.4,609.8z" class="st4"/><g><text class="st109 st111" transform="matrix(1 0 0 1 270.6708 413.7636)">JoB</text></g><g><path d="M387.2,465.4H195.7c-1.7,0-3-1.3-3-3v-29.1c0-1.7,1.3-3,3-3h191.5c1.7,0,3,1.3,3,3v29.1 C390.2,464,388.9,465.4,387.2,465.4z" class="st29"/><path d="M240.6,465.4h-44.9c-1.7,0-3-1.3-3-3v-29.1c0-1.7,1.3-3,3-3h44.9V465.4z" class="st2"/><text class="st4 st109 st112" transform="matrix(1 0 0 1 198.9325 452.4512)">Task</text><text class="st113 st112" transform="matrix(1 0 0 1 247.9325 451.5303)">ant -Dmodule=A compile</text><polygon points="245.3 455 232.7 447.7 245.3 440.4" class="st29"/></g><g><path d="M387.2,526.4H195.7c-1.7,0-3-1.3-3-3v-29.1c0-1.7,1.3-3,3-3h191.5c1.7,0,3,1.3,3,3v29.1 C390.2,525,388.9,526.4,387.2,526.4z" class="st29"/><path d="M240.6,526.4h-44.9c-1.7,0-3-1.3-3-3v-29.1c0-1.7,1.3-3,3-3h44.9V526.4z" class="st2"/><text class="st4 st109 st112" transform="matrix(1 0 0 1 198.9325 513.4512)">Task</text><text class="st113 st112" transform="matrix(1 0 0 1 247.9325 512.5303)">rake create_docs</text><polygon points="245.3 516 232.7 508.7 245.3 501.4" class="st29"/></g><g><path d="M387.2,587.4H195.7c-1.7,0-3-1.3-3-3v-29.1c0-1.7,1.3-3,3-3h191.5c1.7,0,3,1.3,3,3v29.1 C390.2,586,388.9,587.4,387.2,587.4z" class="st29"/><path d="M240.6,587.4h-44.9c-1.7,0-3-1.3-3-3v-29.1c0-1.7,1.3-3,3-3h44.9V587.4z" class="st2"/><text class="st4 st109 st112" transform="matrix(1 0 0 1 198.9325 574.4512)">Task</text><text class="st113 st112" transform="matrix(1 0 0 1 247.9325 573.5303)">create_package.sh</text><polygon points="245.3 577 232.7 569.7 245.3 562.4" class="st29"/></g><g><g><line x1="295.3" x2="295.3" y1="472" y2="481" class="st114"/><g><polygon points="299.7 480 290.2 480 294.9 484.7" class="st6"/></g></g></g><g><g><line x1="295.3" x2="295.3" y1="535" y2="544" class="st114"/><g><polygon points="299.7 543 290.2 543 294.9 547.7" class="st6"/></g></g></g></g><text class="st35 st109 st110" transform="matrix(1 0 0 1 562.7065 117.1499)">Stage 2</text><g><path d="M734.3,743.3H471.6c-2.6,0-4.7-2.1-4.7-4.7V89.8c0-2.6,2.1-4.7,4.7-4.7h262.7c2.6,0,4.7,2.1,4.7,4.7v648.8 C738.9,741.2,736.8,743.3,734.3,743.3z" class="st108"/><g><path d="M716.4,548.8H491.7c-1.8,0-3.2-1.5-3.2-3.2V330.3c0-1.8,1.5-3.2,3.2-3.2h224.7c1.8,0,3.2,1.5,3.2,3.2v215.2 C719.6,547.3,718.1,548.8,716.4,548.8z" class="st4"/><g><text class="st109 st111" transform="matrix(1 0 0 1 584.6708 352.7636)">JoB</text></g><g><path d="M701.2,404.4H509.7c-1.7,0-3-1.3-3-3v-29.1c0-1.7,1.3-3,3-3h191.5c1.7,0,3,1.3,3,3v29.1 C704.2,403,702.9,404.4,701.2,404.4z" class="st29"/><path d="M554.6,404.4h-44.9c-1.7,0-3-1.3-3-3v-29.1c0-1.7,1.3-3,3-3h44.9V404.4z" class="st2"/><text class="st4 st109 st112" transform="matrix(1 0 0 1 512.9326 391.4512)">Task</text><text class="st113 st112" transform="matrix(1 0 0 1 561.9326 390.5303)">ant -Dmodule=A compile</text><polygon points="559.3 394 546.7 386.7 559.3 379.4" class="st29"/></g><g><path d="M701.2,465.4H509.7c-1.7,0-3-1.3-3-3v-29.1c0-1.7,1.3-3,3-3h191.5c1.7,0,3,1.3,3,3v29.1 C704.2,464,702.9,465.4,701.2,465.4z" class="st29"/><path d="M554.6,465.4h-44.9c-1.7,0-3-1.3-3-3v-29.1c0-1.7,1.3-3,3-3h44.9V465.4z" class="st2"/><text class="st4 st109 st112" transform="matrix(1 0 0 1 512.9326 452.4512)">Task</text><text class="st113 st112" transform="matrix(1 0 0 1 561.9326 451.5303)">rake create_docs</text><polygon points="559.3 455 546.7 447.7 559.3 440.4" class="st29"/></g><g><path d="M701.2,526.4H509.7c-1.7,0-3-1.3-3-3v-29.1c0-1.7,1.3-3,3-3h191.5c1.7,0,3,1.3,3,3v29.1 C704.2,525,702.9,526.4,701.2,526.4z" class="st29"/><path d="M554.6,526.4h-44.9c-1.7,0-3-1.3-3-3v-29.1c0-1.7,1.3-3,3-3h44.9V526.4z" class="st2"/><text class="st4 st109 st112" transform="matrix(1 0 0 1 512.9326 513.4512)">Task</text><text class="st113 st112" transform="matrix(1 0 0 1 561.9326 512.5303)">create_package.sh</text><polygon points="559.3 516 546.7 508.7 559.3 501.4" class="st29"/></g><g><g><line x1="609.3" x2="609.3" y1="411" y2="420" class="st114"/><g><polygon points="613.7 419 604.2 419 608.9 423.7" class="st6"/></g></g></g><g><g><line x1="609.3" x2="609.3" y1="474" y2="483" class="st114"/><g><polygon points="613.7 482 604.2 482 608.9 486.7" class="st6"/></g></g></g></g><g><path d="M716.8,305.2H491.2c-1.5,0-2.8-1.2-2.8-2.8V146.8c0-1.5,1.2-2.8,2.8-2.8h225.6c1.5,0,2.8,1.2,2.8,2.8v155.6 C719.6,303.9,718.4,305.2,716.8,305.2z" class="st4"/><g><text class="st109 st111" transform="matrix(1 0 0 1 584.6708 169.7636)">JoB</text></g><g><path d="M701.2,221.4H509.7c-1.7,0-3-1.3-3-3v-29.1c0-1.7,1.3-3,3-3h191.5c1.7,0,3,1.3,3,3v29.1 C704.2,220,702.9,221.4,701.2,221.4z" class="st29"/><path d="M554.6,221.4h-44.9c-1.7,0-3-1.3-3-3v-29.1c0-1.7,1.3-3,3-3h44.9V221.4z" class="st2"/><text class="st4 st109 st112" transform="matrix(1 0 0 1 512.9326 208.4512)">Task</text><text class="st113 st112" transform="matrix(1 0 0 1 561.9326 207.5303)">ant -Dmodule=A compile</text><polygon points="559.3 211 546.7 203.7 559.3 196.4" class="st29"/></g><g><path d="M701.2,282.4H509.7c-1.7,0-3-1.3-3-3v-29.1c0-1.7,1.3-3,3-3h191.5c1.7,0,3,1.3,3,3v29.1 C704.2,281,702.9,282.4,701.2,282.4z" class="st29"/><path d="M554.6,282.4h-44.9c-1.7,0-3-1.3-3-3v-29.1c0-1.7,1.3-3,3-3h44.9V282.4z" class="st2"/><text class="st4 st109 st112" transform="matrix(1 0 0 1 512.9326 269.4512)">Task</text><text class="st113 st112" transform="matrix(1 0 0 1 561.9326 268.5303)">rspec spec mpdule-A</text><polygon points="559.3 272 546.7 264.7 559.3 257.4" class="st29"/></g><g><g><line x1="609.3" x2="609.3" y1="228" y2="237" class="st114"/><g><polygon points="613.7 236 604.2 236 608.9 240.7" class="st6"/></g></g></g></g></g><g><path d="M1048.7,394H783.1c-1.8,0-3.2-1.4-3.2-3.2V88.3c0-1.8,1.4-3.2,3.2-3.2h265.6c1.8,0,3.2,1.4,3.2,3.2v302.5 C1051.9,392.6,1050.5,394,1048.7,394z" class="st108"/><g><path d="M1029.4,365.8H804.7c-1.8,0-3.2-1.5-3.2-3.2V147.3c0-1.8,1.5-3.2,3.2-3.2h224.7c1.8,0,3.2,1.5,3.2,3.2v215.2 C1032.6,364.3,1031.1,365.8,1029.4,365.8z" class="st4"/><g><text class="st109 st111" transform="matrix(1 0 0 1 897.6708 169.7636)">JoB</text></g><g><path d="M1014.2,221.4H822.7c-1.7,0-3-1.3-3-3v-29.1c0-1.7,1.3-3,3-3h191.5c1.7,0,3,1.3,3,3v29.1 C1017.2,220,1015.9,221.4,1014.2,221.4z" class="st29"/><path d="M867.6,221.4h-44.9c-1.7,0-3-1.3-3-3v-29.1c0-1.7,1.3-3,3-3h44.9V221.4z" class="st2"/><text class="st4 st109 st112" transform="matrix(1 0 0 1 825.9326 208.4512)">Task</text><text class="st113 st112" transform="matrix(1 0 0 1 874.9326 207.5303)">ant -Dmodule=A compile</text><polygon points="872.3 211 859.7 203.7 872.3 196.4" class="st29"/></g><g><path d="M1014.2,282.4H822.7c-1.7,0-3-1.3-3-3v-29.1c0-1.7,1.3-3,3-3h191.5c1.7,0,3,1.3,3,3v29.1 C1017.2,281,1015.9,282.4,1014.2,282.4z" class="st29"/><path d="M867.6,282.4h-44.9c-1.7,0-3-1.3-3-3v-29.1c0-1.7,1.3-3,3-3h44.9V282.4z" class="st2"/><text class="st4 st109 st112" transform="matrix(1 0 0 1 825.9326 269.4512)">Task</text><text class="st113 st112" transform="matrix(1 0 0 1 874.9326 268.5303)">rake create_docs</text><polygon points="872.3 272 859.7 264.7 872.3 257.4" class="st29"/></g><g><path d="M1014.2,343.4H822.7c-1.7,0-3-1.3-3-3v-29.1c0-1.7,1.3-3,3-3h191.5c1.7,0,3,1.3,3,3v29.1 C1017.2,342,1015.9,343.4,1014.2,343.4z" class="st29"/><path d="M867.6,343.4h-44.9c-1.7,0-3-1.3-3-3v-29.1c0-1.7,1.3-3,3-3h44.9V343.4z" class="st2"/><text class="st4 st109 st112" transform="matrix(1 0 0 1 825.9326 330.4512)">Task</text><text class="st113 st112" transform="matrix(1 0 0 1 874.9326 329.5303)">create_package.sh</text><polygon points="872.3 333 859.7 325.7 872.3 318.4" class="st29"/></g><g><g><line x1="922.3" x2="922.3" y1="228" y2="237" class="st114"/><g><polygon points="926.7 236 917.2 236 921.9 240.7" class="st6"/></g></g></g><g><g><line x1="922.3" x2="922.3" y1="291" y2="300" class="st114"/><g><polygon points="926.7 299 917.2 299 921.9 303.7" class="st6"/></g></g></g></g></g><rect width="107.9" height="53.6" x="0" y="319.5" class="st25"/><text transform="matrix(1 0 0 1 -8.984375e-05 330.9022)"><tspan x="0" y="0" class="st113 st111">These jobs will </tspan><tspan x="0" y="18" class="st113 st111">run in parallel</tspan></text><line x1="45.3" x2="45.3" y1="216" y2="305" class="st115"/><g><g><line x1="148.3" x2="46.3" y1="216" y2="216" class="st116"/><g><path d="M159.9,216.2c-5.7-2.1-12.7-5.7-17.1-9.5l3.4,9.5l-3.4,9.5C147.2,221.9,154.3,218.3,159.9,216.2z" class="st6"/></g></g></g><g><g><line x1="455.3" x2="425.3" y1="216" y2="216" class="st116"/><g><path d="M467.4,216.2c-5.7-2.1-12.7-5.7-17.1-9.5l3.4,9.5l-3.4,9.5C454.7,221.9,461.7,218.3,467.4,216.2z" class="st6"/></g></g></g><g><g><line x1="768.3" x2="738.3" y1="216" y2="216" class="st116"/><g><path d="M780.4,216.2c-5.7-2.1-12.7-5.7-17.1-9.5l3.4,9.5l-3.4,9.5C767.7,221.9,774.7,218.3,780.4,216.2z" class="st6"/></g></g></g><line x1="45.3" x2="45.3" y1="363" y2="452" class="st115"/><g><g><line x1="148.3" x2="46.3" y1="451" y2="451" class="st116"/><g><path d="M159.9,451.2c-5.7-2.1-12.7-5.7-17.1-9.5l3.4,9.5l-3.4,9.5C147.2,456.9,154.3,453.3,159.9,451.2z" class="st6"/></g></g></g><text class="st35 st109 st110" transform="matrix(1 0 0 1 568.7065 117.1499)">Stage 2</text><text class="st35 st109 st110" transform="matrix(1 0 0 1 879.7065 117.1499)">Stage 3</text></svg>