<svg xmlns="http://www.w3.org/2000/svg" xmlns:xlink="http://www.w3.org/1999/xlink" style="enable-background:new 0 0 40 40" id="Layer_1" x="0" y="0" version="1.1" viewBox="0 0 40 40" xml:space="preserve"><style type="text/css"/><g id="DDEDvv.tif"><g><path d="M2.1,32.5c0-8.4,0-16.7,0-25.1c0-0.1,0.1-0.2,0.1-0.3c0.5-2.5,2-4.1,4.5-4.8c0.2-0.1,0.5-0.1,0.7-0.2c8.4,0,16.7,0,25.1,0 c0.1,0,0.3,0.1,0.4,0.1c1.4,0.3,2.6,1,3.6,2.1c0.9,1.1,1.3,2.4,1.3,3.9c0,7.8,0,15.6,0,23.5c0,0.2,0,0.4,0,0.6 c-0.1,1.3-0.5,2.4-1.3,3.4c-1.2,1.5-2.8,2.2-4.8,2.2c-3.6,0-7.2,0-10.9,0c-4.2,0-8.5,0-12.7,0c-2.8,0-5.2-1.8-5.8-4.6 C2.2,33,2.2,32.7,2.1,32.5z M5.1,19.9c0,3.9,0,7.8,0,11.7c0,0.5,0.1,1,0.3,1.5c0.6,1.2,1.6,1.7,2.9,1.7c3,0,5.9,0,8.9,0 c4.8,0,9.7,0,14.5,0c1,0,1.8-0.3,2.5-1.1c0.5-0.6,0.7-1.3,0.7-2c0-2.6,0-5.1,0-7.7c0-5.2,0-10.5,0-15.7c0-0.8-0.2-1.5-0.7-2.1 c-0.6-0.8-1.5-1.1-2.5-1.1c-4.5,0-9,0-13.6,0c-3.3,0-6.6,0-9.9,0c-1,0-1.9,0.3-2.5,1.1c-0.5,0.6-0.7,1.3-0.7,2 C5.1,12.1,5.1,16,5.1,19.9z"/><path d="M23.6,21.4c-2,0-4,0-6,0c-0.9,0-1.5-0.5-1.6-1.3c-0.1-0.8,0.5-1.6,1.3-1.7c0.1,0,0.2,0,0.3,0c4,0,7.9,0,11.9,0 c0.8,0,1.4,0.4,1.6,1c0.3,1-0.3,1.9-1.4,2c-0.8,0-1.5,0-2.3,0C26.2,21.4,24.9,21.4,23.6,21.4z"/><path d="M23.7,27.4c-2,0-4,0-5.9,0c-0.5,0-1-0.1-1.3-0.5c-0.4-0.5-0.4-1-0.2-1.5c0.2-0.5,0.6-0.8,1.2-0.9c0.1,0,0.2,0,0.4,0 c3.9,0,7.9,0,11.8,0c0.8,0,1.3,0.3,1.6,1c0.3,0.9-0.3,1.8-1.2,2c-0.2,0-0.3,0-0.5,0C27.6,27.4,25.6,27.4,23.7,27.4z"/><path d="M23.6,15.5c-2,0-4,0-5.9,0c-0.5,0-0.9-0.1-1.3-0.5c-0.4-0.5-0.5-1-0.2-1.5c0.2-0.5,0.6-0.8,1.2-0.9c0.1,0,0.3,0,0.4,0 c3.9,0,7.9,0,11.8,0c0.8,0,1.4,0.4,1.6,1c0.3,0.9-0.3,1.8-1.2,1.9c-0.1,0-0.3,0-0.5,0C27.6,15.5,25.6,15.5,23.6,15.5z"/><path d="M12.1,11.7c0.5-0.7,1.1-1.3,1.6-1.9c0.2-0.2,0.3-0.4,0.5-0.6c0.3-0.2,0.6-0.2,0.9,0c0.3,0.2,0.4,0.6,0.2,0.9 c-0.3,0.4-0.6,0.8-0.9,1.1c-0.4,0.5-0.8,1-1.2,1.5c-0.1,0.1-0.1,0.2,0,0.3c0.4,1,0.2,2.1-0.6,2.9c-0.8,0.8-2,1-3,0.4 c-1.1-0.6-1.6-1.7-1.3-2.9c0.1-0.3,0-0.4-0.2-0.6c-0.3-0.3-0.3-0.6-0.2-0.9c0.2-0.3,0.5-0.4,0.8-0.3c0.1,0,0.3,0.2,0.4,0.2 c0.1,0,0.2,0.1,0.3,0C10.3,11.3,11.2,11.3,12.1,11.7z M12.6,13.5c-0.1,0.1-0.1,0.1-0.1,0.2c-0.3,0.4-0.6,0.8-0.9,1.1 c-0.3,0.4-0.8,0.4-1.2,0.1c-0.1-0.1-0.3-0.3-0.4-0.4c-0.3-0.2-0.5-0.5-0.8-0.7c-0.2,0.6,0.1,1.4,0.7,1.8c0.7,0.5,1.7,0.5,2.3-0.1 C12.6,15,12.9,14.1,12.6,13.5z M11.6,12.3c-0.5-0.3-1.1-0.3-1.6,0.1c0.2,0.3,0.5,0.6,0.8,0.9C11.1,13,11.3,12.7,11.6,12.3z"/><path d="M13.4,20c-0.1,1.5-1.3,2.6-2.7,2.5c-1.4-0.1-2.6-1.3-2.5-2.6c0.1-1.5,1.3-2.6,2.7-2.5C12.4,17.4,13.5,18.6,13.4,20z M12.7,20c0-1-0.8-1.9-1.9-1.9c-1,0-1.8,0.8-1.9,1.9c0,1,0.8,1.8,1.8,1.9C11.9,21.8,12.7,21,12.7,20z"/><path d="M13.5,26c-0.1,1.5-1.3,2.6-2.7,2.5c-1.5-0.1-2.6-1.3-2.5-2.7c0.1-1.5,1.2-2.6,2.7-2.5C12.4,23.4,13.5,24.6,13.5,26z M12.7,25.9c0-1-0.8-1.8-1.8-1.8c-1,0-1.9,0.8-1.9,1.9c0,1,0.8,1.8,1.9,1.8C11.9,27.7,12.7,26.9,12.7,25.9z"/></g></g></svg>