<svg xmlns="http://www.w3.org/2000/svg" xmlns:xlink="http://www.w3.org/1999/xlink" id="Layer_1" x="0" y="0" version="1.1" viewBox="0 0 75.1 71.1" xml:space="preserve" style="enable-background:new 0 0 75.1 71.1"><style type="text/css">.st4{fill:#fff}.st114,.st115{fill:#439f83;stroke:#1c425c;stroke-width:1.3387;stroke-miterlimit:10}.st115{fill:#de572f;stroke-width:.3211;stroke-linejoin:round}</style><g id="QrirU4.tif"><g><path d="M14.7,17.4c2.7,0,5.3,0,7.8,0c0.3,0,0.7-0.1,1-0.3c3.7-3,7.4-6.1,11.1-9.1c1.7-1.4,3.5-1.4,5.2,0 c3.8,3,7.6,6.1,11.4,9.1c0.3,0.2,0.7,0.4,1,0.4c2.3,0,4.6,0,6.9,0c0.2,0,0.4,0,0.7,0c0,0.3,0,0.5,0,0.7c0,1.7,0,3.3,0,5 c0,0.4,0.1,0.7,0.4,1c1.4,1.2,2.7,2.3,4.1,3.5c1.4,1.2,2.1,2.7,2.1,4.5c0,9.5,0,19,0,28.5c0,2.2-1.3,3.5-3.6,3.5 c-17,0-33.9,0-50.9,0c-2.3,0-3.6-1.3-3.6-3.6c0-9.5,0-19,0-28.5c0-1.8,0.7-3.3,2.1-4.5c1.2-1,2.3-2,3.5-3c0.4-0.4,0.6-0.7,0.6-1.3 c0-1.7,0-3.5,0-5.2C14.7,17.9,14.7,17.7,14.7,17.4z M61.3,60.9c-8.1-6.3-16-12.6-23.9-18.8c-7.7,6.3-15.4,12.5-23.2,18.8 C29.9,60.9,45.5,60.9,61.3,60.9z M56.7,20.7c-12.9,0-25.8,0-38.7,0c0,0.1,0,0.2,0,0.4c0,4.4,0,8.7,0,13.1c0,0.1,0,0.4,0.1,0.4 c0.6,0.5,1.3,1,2,1.6c0-1.6,0-3.1,0-4.6c4.6,0,9.1,0,13.7,0c0,3.1,0,6.1,0,9.2c1.2-1,2.3-1.9,3.5-2.8c0.3,0.2,0.6,0.4,0.8,0.7 c0.4,0.4,1,0.6,1.6,0.5c1.8,0,3.6,0,5.4,0c0.4,0,0.8,0,1.2,0c0,0.6,0,1.1,0,1.6c-1.8,0-3.5,0-5.4,0c1.5,1.1,2.8,2.2,4.1,3.2 c0.1-0.1,0.2-0.1,0.3-0.2c3.7-2.9,7.4-5.8,11.1-8.7c0.2-0.2,0.3-0.5,0.3-0.8c0-4.3,0-8.7,0-13C56.7,21.1,56.7,20.9,56.7,20.7z M47.6,46.1c5.3,4.1,10.5,8.2,15.7,12.3c0-8.3,0-16.4,0-24.7C58.1,37.9,52.9,42,47.6,46.1z M27.3,46.1C22.1,42,17,37.9,11.8,33.8 c0,8.3,0,16.5,0,24.8C17,54.4,22.1,50.3,27.3,46.1z M21.8,33.4c0,1.4,0,2.7,0,4c0,0.2,0.2,0.4,0.3,0.5c2.4,1.9,4.8,3.9,7.3,5.8 c0.3,0.3,0.6,0.3,0.9,0c0.4-0.4,0.9-0.8,1.4-1.1c0.3-0.2,0.4-0.5,0.4-0.8c0-2.6,0-5.2,0-7.9c0-0.2,0-0.3,0-0.5 C28.6,33.4,25.2,33.4,21.8,33.4z M28.3,17.4c6.1,0,12.1,0,18.1,0c-0.1-0.1-0.1-0.1-0.1-0.2c-2.9-2.3-5.7-4.6-8.6-6.9 c-0.3-0.3-0.6-0.2-0.9,0c-1.1,0.9-2.2,1.8-3.3,2.7C31.8,14.5,30.1,15.9,28.3,17.4z M62.6,30.2c-0.9-0.8-1.7-1.5-2.6-2.2 c0,1.5,0,2.8,0,4.3C60.9,31.6,61.7,30.9,62.6,30.2z M12.5,30.2c0.7,0.6,1.4,1.1,2.2,1.7c0-1.2,0-2.3,0-3.6 C13.9,29,13.3,29.6,12.5,30.2z" class="st114"/><path d="M61.3,60.9c-15.8,0-31.4,0-47.1,0c7.8-6.3,15.4-12.5,23.2-18.8C45.3,48.4,53.2,54.6,61.3,60.9z" class="st4"/><path d="M56.7,20.7c0,0.2,0,0.4,0,0.6c0,4.3,0,8.7,0,13c0,0.3-0.1,0.6-0.3,0.8c-3.7,2.9-7.4,5.8-11.1,8.7 c-0.1,0.1-0.2,0.1-0.3,0.2c-1.3-1-2.6-2.1-4.1-3.2c1.9,0,3.6,0,5.4,0c0-0.6,0-1.1,0-1.6c-0.4,0-0.8,0-1.2,0c-1.8,0-3.6,0-5.4,0 c-0.6,0-1.1-0.1-1.6-0.5c-0.2-0.2-0.5-0.4-0.8-0.7c-1.2,0.9-2.3,1.9-3.5,2.8c0-3.1,0-6.1,0-9.2c-4.6,0-9.1,0-13.7,0 c0,1.5,0,2.9,0,4.6c-0.8-0.6-1.4-1.1-2-1.6c-0.1-0.1-0.1-0.3-0.1-0.4c0-4.4,0-8.7,0-13.1c0-0.1,0-0.2,0-0.4 C30.9,20.7,43.8,20.7,56.7,20.7z M20.3,28c11.1,0,22.2,0,33.3,0c0-1.1,0-2.1,0-3.1c-11.1,0-22.2,0-33.3,0C20.3,26,20.3,27,20.3,28 z M36.2,34.2c5.8,0,11.5,0,17.2,0c0-0.9,0-1.7,0-2.5c-5.8,0-11.5,0-17.2,0C36.2,32.5,36.2,33.3,36.2,34.2z M50.6,35.8 c-4.8,0-9.6,0-14.3,0c0,0.5,0,1,0,1.5c4.8,0,9.6,0,14.3,0C50.6,36.8,50.6,36.3,50.6,35.8z" class="st4"/><path d="M47.6,46.1c5.3-4.1,10.4-8.2,15.7-12.3c0,8.3,0,16.4,0,24.7C58.1,54.3,52.9,50.2,47.6,46.1z" class="st4"/><path d="M27.3,46.1c-5.2,4.2-10.3,8.3-15.4,12.5c0-8.3,0-16.5,0-24.8C17,37.9,22.1,42,27.3,46.1z" class="st4"/><path d="M21.8,33.4c3.4,0,6.8,0,10.2,0c0,0.2,0,0.4,0,0.5c0,2.6,0,5.2,0,7.9c0,0.4-0.1,0.6-0.4,0.8 c-0.5,0.3-0.9,0.7-1.4,1.1c-0.3,0.3-0.6,0.3-0.9,0c-2.4-1.9-4.8-3.9-7.3-5.8c-0.1-0.1-0.3-0.3-0.3-0.5 C21.8,36.1,21.8,34.8,21.8,33.4z" class="st4"/><path d="M28.3,17.4c1.8-1.5,3.5-2.9,5.2-4.3c1.1-0.9,2.2-1.8,3.3-2.7c0.3-0.2,0.6-0.3,0.9,0c2.9,2.3,5.7,4.6,8.6,6.9 c0,0,0.1,0.1,0.1,0.2C40.4,17.4,34.4,17.4,28.3,17.4z" class="st4"/><path d="M62.6,30.2c-0.9,0.7-1.7,1.4-2.6,2.1c0-1.5,0-2.8,0-4.3C60.9,28.8,61.7,29.5,62.6,30.2z" class="st4"/><path d="M12.5,30.2c0.8-0.7,1.4-1.2,2.2-1.8c0,1.2,0,2.3,0,3.6C13.9,31.3,13.3,30.8,12.5,30.2z" class="st4"/><path d="M20.3,28c0-1.1,0-2.1,0-3.1c11.1,0,22.2,0,33.3,0c0,1,0,2.1,0,3.1C42.5,28,31.4,28,20.3,28z" class="st115"/><path d="M36.2,34.2c0-0.9,0-1.7,0-2.5c5.7,0,11.5,0,17.2,0c0,0.8,0,1.6,0,2.5C47.7,34.2,42,34.2,36.2,34.2z" class="st115"/><path d="M50.6,35.8c0,0.5,0,1,0,1.5c-4.8,0-9.5,0-14.3,0c0-0.5,0-1,0-1.5C41.1,35.8,45.8,35.8,50.6,35.8z" class="st115"/></g></g></svg>