<svg xmlns="http://www.w3.org/2000/svg" xmlns:xlink="http://www.w3.org/1999/xlink" style="enable-background:new 0 0 360 200" id="Layer_1" x="0" y="0" version="1.1" viewBox="0 0 360 200" xml:space="preserve"><style type="text/css">.st0,.st1,.st2{stroke:#1c425c;stroke-width:3;stroke-miterlimit:10}.st0{fill:none;stroke-linecap:round;stroke-linejoin:round}.st1{fill:#f7a600}.st2{fill:#00bfc0}.st6{fill:#1c425c}.st7{fill:#9534a0}.st9{fill:none;stroke:#1c425c;stroke-width:5.3764;stroke-linecap:round;stroke-linejoin:round;stroke-miterlimit:10}.st10{font-family:&apos;OpenSans&apos;}.st11{font-size:17.6364px}.st12{fill:none;stroke:#1c425c;stroke-linecap:round;stroke-linejoin:round;stroke-miterlimit:10}</style><g><g><path d="M266.1,66.2l-37.4,22.8c5.2,8.6,8.1,18.6,8.1,29.6h43.6C280.5,99.5,275.2,81.3,266.1,66.2 M180,17.5 c-55.5,0-100.5,45-100.5,101h43.6c0-32,25.4-57.3,56.8-57.3c10.4,0,20.2,2.6,28.6,7.4L230.5,31C215.7,22.4,198.4,17.5,180,17.5" class="st2"/><path d="M280,118.5h-43.2c-0.4-10-3.2-21.2-8.1-29.4l37.4-22.9c8.7,14.5,13.7,33.7,14.4,50.6" class="st2"/><path d="M266.1,66.2l-37.4,22.8c5.2,8.6,8.1,18.6,8.1,29.6h43.6C280.5,99.5,275.2,81.3,266.1,66.2z M180,17.5 c-55.5,0-100.5,46-100.5,101h43.6c0-31,25.4-57.3,56.8-57.3c10.4,0,20.2,2.6,28.6,7.4L230.5,31C215.7,22.4,198.4,17.5,180,17.5z" class="st0"/><path d="M266.1,65.7l-37.4,22.5c-4.9-8.2-11.9-15-20.1-19.8l21.9-37.7C245.1,39.1,257.4,51.2,266.1,65.7" class="st2"/><path d="M266.1,65.7l-37.4,22.5c-4.9-8.2-11.9-15-20.1-19.8l21.9-37.7C245.1,39.1,257.4,51.2,266.1,65.7z" class="st0"/><path d="M224.5,118v18.2c0,25-20,45.3-45,45.3s-45-20.3-45-45.3v-18.7c0,3.2,0.4,6.3,1.1,9.4c0.7,3.3,1.8,6.4,3.1,9.4 c7.1,15.7,23,26.6,41.3,26.6s34.2-10.9,41.3-26.6c1.3-3,2.2-6.1,2.9-9.4c0.6-3,0.6-6.1,0.6-9.4" class="st1"/><path d="M225.5,117.5v18.7c0,25-20.5,45.3-45.5,45.3s-45.5-20.3-45.5-45.3v-18.7c0,3.2,0.9,6.3,1.6,9.4 c0.7,3.3,2,6.4,3.4,9.4c7.1,15.7,23.1,26.6,41.4,26.6s34.2-10.9,41.3-26.6c1.3-3,2-6.1,2.7-9.4 C225.5,123.9,225.5,120.7,225.5,117.5z" class="st0"/><path d="M225.3,117.5c0,3.2-0.3,6.3-1,9.4c-0.7,3.3-1.7,6.4-3.1,9.4c-7.1,15.7-22.9,26.6-41.3,26.6 s-34.2-10.9-41.3-26.6c-1.3-3-2.4-6.1-3.1-9.4c-0.6-3-1-6.1-1-9.4c0-25,20.3-45.3,45.3-45.3S225.3,92.5,225.3,117.5" class="st7"/><path d="M225.3,117.5c0,3.2-0.3,6.3-1,9.4c-0.7,3.3-1.7,6.4-3.1,9.4c-7.1,15.7-22.9,26.6-41.3,26.6 s-34.2-10.9-41.3-26.6c-1.3-3-2.4-6.1-3.1-9.4c-0.6-3-1-6.1-1-9.4c0-25,20.3-45.3,45.3-45.3S225.3,92.5,225.3,117.5z" class="st0"/><line x1="206" x2="182.4" y1="88.1" y2="118" class="st9"/></g><text class="st6 st10 st11" transform="matrix(1 0 0 1 166.9823 49.5573)">1</text><g><text class="st6 st10 st11" transform="matrix(1 0 0 1 174.8856 49.5573)">.</text></g><text class="st6 st10 st11" transform="matrix(1 0 0 1 181.4442 49.5573)">8</text><text class="st6 st10 st11" transform="matrix(1 0 0 1 224.0233 70.6003)">1</text><g><text class="st6 st10 st11" transform="matrix(1 0 0 1 231.9257 70.6003)">.</text></g><text class="st6 st10 st11" transform="matrix(1 0 0 1 237.1425 70.6003)">9</text><text class="st6 st10 st11" transform="matrix(1 0 0 1 112.8739 70.6003)">1</text><g><text class="st6 st10 st11" transform="matrix(1 0 0 1 120.7762 70.6003)">.</text></g><text class="st6 st10 st11" transform="matrix(1 0 0 1 127.3348 70.6003)">7</text><text class="st6 st10 st11" transform="matrix(1 0 0 1 242.0673 108.5915)">2</text><g><text class="st6 st10 st11" transform="matrix(1 0 0 1 253.911 108.5915)">.</text></g><text class="st6 st10 st11" transform="matrix(1 0 0 1 259.5741 108.5915)">0</text><g><text class="st6 st10 st11" transform="matrix(1 0 0 1 90.2176 108.5915)">1.6</text></g><g><line x1="144.5" x2="144.5" y1="165" y2="147" class="st12"/><line x1="154.5" x2="154.5" y1="173" y2="157" class="st12"/><line x1="164.5" x2="164.5" y1="178" y2="162" class="st12"/><line x1="174.5" x2="174.5" y1="180" y2="164" class="st12"/><line x1="185.5" x2="185.5" y1="181" y2="164" class="st12"/><line x1="195.5" x2="195.5" y1="179" y2="162" class="st12"/><line x1="205.5" x2="205.5" y1="173" y2="157" class="st12"/><line x1="215.5" x2="215.5" y1="164" y2="147" class="st12"/></g></g></svg>