<svg xmlns="http://www.w3.org/2000/svg" xmlns:xlink="http://www.w3.org/1999/xlink" id="Layer_1" x="0" y="0" version="1.1" viewBox="0 0 100 100" xml:space="preserve" style="enable-background:new 0 0 100 100"><style type="text/css">.st86,.st87{fill:#00bfc0;stroke:#1c425c;stroke-width:.7137;stroke-miterlimit:10}.st87{fill:#9534a0;stroke-linejoin:round}</style><g id="pmC55P.tif"><g><path d="M22.1,92c0-0.7,0-1.1,0-1.5c0-4.9,0-9.8,0-14.7c0-1.4,0-1.3-1.4-1.2c-4.7,0.3-8.9-1.1-11.7-6.1 c-0.8-1.4-1.2-2.8-1.2-4.5c0.1-13.3,0-26.5,0-39.8c0-0.7,0.1-1.4,0.4-2c1.5-3.2,3.6-6,7.3-7c1-0.3,2.1-0.4,3.2-0.4 c8.5-0.1,17-0.1,25.5-0.2c5,0,10.1,0,15.1,0c2.4,0,4.9,0,7.3,0c0,0.1,0,0.2,0.1,0.3c-0.2,0.2-0.3,0.4-0.5,0.6 c-1.8,1.8-3.5,3.6-5.4,5.3c-0.4,0.4-1.2,0.7-1.8,0.7c-10.5,0-21.1,0-31.6,0c-2.7,0-5.4,0-8.1,0c-2.4,0-4,1.1-4.4,3 C15,25.5,15,26.4,15,27.3c0,11.6,0,23.3,0,34.9c0,0.8,0.1,1.6,0.2,2.4c0.3,1.9,1.8,3,4.2,3c2.9,0,5.8,0,8.6,0 c0.9,0,1.2,0.2,1.2,1.2c-0.1,2.8,0,5.6,0,8.4c0,0.4,0,0.8,0.1,1.3c0.6-0.4,0.9-0.6,1.3-0.8c3.9-2.8,7.8-5.5,11.7-8.3 c1.7-1.2,3.6-1.8,5.8-1.7c8.4,0,16.8,0,25.2,0c0.8,0,1.6-0.1,2.4-0.2c1.8-0.3,2.9-1.5,3.1-3.6c0-0.4,0-0.9,0-1.3 c0-9.1,0-18.1,0-27.2c0-0.8,0.2-1.3,0.8-1.9c1.8-1.7,3.6-3.5,5.4-5.3c0.2-0.2,0.5-0.4,0.9-0.8c0,2.4,0,4.6,0,6.7 c0,9.8,0,19.7,0,29.5c0,6.2-4.1,10.6-10.4,10.7c-6.6,0.1-13.3,0-19.9,0.1c-2,0-4,0-6,0.2c-1.9,0.1-3.6,0.9-5.2,2 c-6.2,4.4-12.4,8.8-18.6,13.1C24.5,90.5,23.5,91.1,22.1,92z" class="st86"/><path d="M86.1,22.4c-2.7,2.8-5.5,5.6-8.3,8.4c-2.8,2.8-5.6,5.5-8.3,8.3c-1.1,1.1-2.3,1.8-3.8,2.2 c-3.6,1-7.2,2.1-10.8,3.2c-0.7,0.2-1.4,0.2-1.7-0.4c-0.3-0.4-0.4-1.2-0.3-1.6c1-3.8,2.2-7.6,3.2-11.4c0.3-1.2,0.9-2.1,1.8-3 c5.6-5.5,11.1-11,16.7-16.6c0.2-0.1,0.3-0.3,0.4-0.4C78.7,14.9,82.4,18.6,86.1,22.4z M65.3,38.2c-0.2-1.2-0.5-2.1-0.6-3.1 c-0.1-0.5-0.1-0.9-0.1-1.4c0-0.9-0.4-1.2-1.3-1.2c-1.3-0.1-2.7-0.3-4.3-0.6c-0.5,1.9-1.2,4-1.8,6.2c-0.2,0.7,1.2,2,1.9,1.8 C61.3,39.5,63.4,38.8,65.3,38.2z" class="st87"/><path d="M81.6,4.7c0.6-0.5,1.2-1.2,2-1.8c1.5-1,3.2-0.9,4.6,0.5C90.1,5.2,92,7,93.8,8.9c1.6,1.7,1.5,3.7,0,5.4 c-0.4,0.5-0.9,1-1.2,1.3C88.9,12,85.3,8.4,81.6,4.7z" class="st87"/><path d="M76.9,9.1c1-0.9,1.7-1.6,2.3-2.1c3.8,3.8,7.5,7.5,11.3,11.3c-0.5,0.4-1.1,1-1.7,1.6c-0.5,0.5-0.8,0-1.1-0.3 c-2.6-2.6-5.2-5.2-7.8-7.8C78.9,10.8,77.9,10,76.9,9.1z" class="st87"/></g></g></svg>