<svg xmlns="http://www.w3.org/2000/svg" xmlns:xlink="http://www.w3.org/1999/xlink" id="Layer_1" x="0" y="0" version="1.1" viewBox="0 0 100 100" xml:space="preserve" style="enable-background:new 0 0 100 100"><style type="text/css">.st41{fill:#00bfc0}.st41,.st88,.st89{stroke:#1c425c;stroke-miterlimit:10}.st88{fill:#fff;stroke-width:.3827}.st89{fill:#9534a0;stroke-width:1.284;stroke-linejoin:round}</style><path d="M95,17.6c0-4-3.2-7.2-7.2-7.2H12.2c-4,0-7.2,3.2-7.2,7.2v64.6c0,4,3.2,7.2,7.2,7.2h75.6c4,0,7.2-3.2,7.2-7.2	V17.6z M88,84.4H10v-60h78V84.4z" class="st41"/><circle cx="75.3" cy="17.8" r="3.8" class="st88"/><circle cx="66.1" cy="17.8" r="3.8" class="st88"/><circle cx="84.5" cy="17.8" r="3.8" class="st88"/><path d="M58.9,48.7c0-1.3,0-2.6,0-3.9c0-0.4,0.1-0.8,0.1-1.5c3.5,1.5,6.9,2.9,10.3,4.4c2.3,1,4.5,2,6.8,2.9	c2.2,1,3.1,3,2.3,5.3c-0.1,0.3-0.5,0.7-0.9,0.8c-5.9,2.6-11.9,5.2-17.9,7.8c-0.2,0.1-0.4,0-0.6,0c0-0.1-0.1-0.2-0.1-0.2	c-0.3-4.9-0.3-4.9,4.1-6.6c2.9-1.2,5.9-2.3,9.3-3.7c-2.7-1-4.8-1.9-7-2.7C63.3,50.4,61.2,49.6,58.9,48.7z" class="st89"/><path d="M44.1,64.7c-0.9-0.4-1.6-0.6-2.3-1c-5.2-2.2-10.3-4.5-15.5-6.7c-1.7-0.7-1.6-1.8-1.6-3.1	c0-1.3-0.1-2.4,1.6-3.1c5.5-2.2,10.9-4.7,16.3-7c0.4-0.2,0.9-0.3,1.6-0.5c0,1.4-0.1,2.6,0,3.8c0.1,1.2-0.4,1.8-1.5,2.2	c-3.8,1.4-7.7,2.9-11.9,4.6c3.7,1.5,6.9,2.8,10.2,4.1c3.3,1.3,3.3,1.3,3.2,4.7C44.2,63.3,44.1,63.8,44.1,64.7z" class="st89"/><path d="M46.4,66.7c1-4,1.8-7.6,2.7-11.2c1.1-4.7,2.3-9.4,3.4-14.1c0.4-1.5,1-2.7,2.8-2.2c1.8,0.5,1.4,1.9,1.1,3.2	c-1.9,7.7-3.7,15.4-5.6,23.1c-0.1,0.5-0.3,1-0.4,1.5c-0.4,1.3-1.4,1.8-2.5,1.3C47.2,68.1,46.8,67.2,46.4,66.7z" class="st89"/></svg>