<svg xmlns="http://www.w3.org/2000/svg" xmlns:xlink="http://www.w3.org/1999/xlink" id="Layer_1" x="0" y="0" version="1.1" viewBox="0 0 75.1 71.1" xml:space="preserve" style="enable-background:new 0 0 75.1 71.1"><style type="text/css">.st29{fill:#f7a600}.st41,.st42{fill:#00bfc0;stroke:#1c425c;stroke-miterlimit:10}.st42{fill:#9534a0}</style><g><path d="M26.1,51.7c0-0.4,0-0.8,0-1.2c0-0.9,0.5-1.4,1.4-1.4c0.4,0,0.8,0,1.3,0c1.5,0,2.7-1.1,2.7-2.7 c0-0.9,0-1.8,0-2.8c-1.5,0-2.8,0-4.2,0c-3.1,0-6.2,0-9.4,0c-2.9,0-5.3-2.4-5.3-5.3c16.1,0,32.3,0,48.5,0c0-10.8,0-21.6,0-32.4 c-16.1,0-32.3,0-48.4,0c-0.3-2.2,1.5-4.7,4-5.2c0.5-0.1,1.1-0.2,1.6-0.2c14.2,0,28.4,0,42.6,0c3.3,0,5.6,2.3,5.6,5.6 c0,10.6,0,21.3,0,31.9c0,3.2-2.3,5.6-5.6,5.6c-4.4,0-8.8,0-13.2,0c0,1.2-0.1,2.3,0,3.4c0.2,1.2,1.3,1.9,2.5,2c0.1,0,0.3,0,0.4,0 c2.2,0,2.4,0.3,2.3,2.6C44,51.7,35.1,51.7,26.1,51.7z" class="st41"/><path d="M39.5,70.6c-10.6,0-21.2,0-31.8,0c-2.2,0-3.1-1-3.2-3.2c-0.1-1.5,0.4-2.7,1.5-3.7c2.6-2.4,5-5,7.5-7.5 c1.2-1.2,2.6-1.8,4.2-1.8c14.5,0,29.1,0,43.6,0c1.6,0,3,0.6,4.1,1.7c2.7,2.7,5.4,5.4,8.1,8.1c1.1,1.1,1.4,3.7,0.6,5 c-0.6,0.9-1.4,1.3-2.5,1.3c-2.5,0-4.9,0-7.4,0C56,70.6,47.8,70.6,39.5,70.6z M39.5,65.2c5.2,0,10.4,0,15.7,0c0.3,0,0.5,0,0.8,0 c0.7-0.1,1.2-0.6,1.1-1.3c0-0.7-0.4-1.2-1.2-1.3c-0.2,0-0.5,0-0.8,0c-10.4,0-20.8,0-31.3,0c-0.3,0-0.5,0-0.8,0 c-0.7,0.1-1.1,0.6-1.1,1.3c0,0.7,0.4,1.2,1.2,1.3c0.2,0,0.5,0,0.8,0C29.1,65.2,34.3,65.2,39.5,65.2z M57,59.8c1.3,0,2.5,0,3.8,0 c1,0,1.7-0.5,1.6-1.4c0-0.8-0.6-1.3-1.6-1.3c-2.6,0-5.1,0-7.7,0c-1,0-1.6,0.6-1.6,1.4c0,0.8,0.6,1.3,1.6,1.3 C54.5,59.9,55.8,59.8,57,59.8z M20.7,59.8c0.9,0,1.8,0,2.7,0c0.8,0,1.3-0.6,1.4-1.3c0-0.8-0.5-1.4-1.4-1.4c-1.8,0-3.5,0-5.3,0 c-0.9,0-1.4,0.6-1.4,1.3c0,0.8,0.5,1.4,1.5,1.4C18.9,59.9,19.8,59.8,20.7,59.8z M15.2,65.2c0.9,0,1.7,0,2.6,0 c0.9,0,1.5-0.6,1.5-1.4c0-0.8-0.6-1.3-1.4-1.3c-1.7,0-3.5,0-5.2,0c-0.9,0-1.5,0.6-1.5,1.4c0,0.8,0.6,1.3,1.4,1.3 C13.5,65.3,14.4,65.2,15.2,65.2z M63.9,62.5c-0.9,0-1.8,0-2.7,0c-0.9,0-1.5,0.6-1.5,1.4c0,0.8,0.6,1.3,1.4,1.3c1.7,0,3.5,0,5.2,0 c0.9,0,1.5-0.6,1.5-1.4c0-0.8-0.6-1.3-1.5-1.3C65.5,62.5,64.7,62.5,63.9,62.5z M30.1,59.8c0.4,0,0.9,0,1.3,0c0.8,0,1.4-0.6,1.4-1.4 c0-0.7-0.5-1.3-1.3-1.3c-0.9,0-1.8,0-2.8,0c-0.8,0-1.3,0.6-1.3,1.4c0,0.7,0.5,1.3,1.3,1.3C29.2,59.9,29.6,59.8,30.1,59.8z M38.2,59.8C38.2,59.8,38.2,59.8,38.2,59.8c0.5,0,1,0,1.4,0c0.8-0.1,1.3-0.6,1.3-1.4c0-0.7-0.5-1.3-1.3-1.3c-1,0-1.9,0-2.9,0 c-0.8,0-1.3,0.6-1.3,1.4c0,0.7,0.6,1.3,1.3,1.3C37.3,59.9,37.7,59.8,38.2,59.8z M46.3,59.8c0.5,0,1,0,1.4,0 c0.8-0.1,1.3-0.6,1.3-1.4c0-0.7-0.5-1.3-1.3-1.3c-1,0-1.9,0-2.9,0c-0.8,0-1.3,0.6-1.3,1.4c0,0.7,0.5,1.3,1.3,1.3 C45.3,59.9,45.8,59.8,46.3,59.8z" class="st41"/><path d="M39.5,65.2c-5.2,0-10.4,0-15.6,0c-0.3,0-0.5,0-0.8,0c-0.7-0.1-1.2-0.6-1.2-1.3c0-0.7,0.4-1.2,1.1-1.3 c0.2,0,0.5,0,0.8,0c10.4,0,20.8,0,31.3,0c0.3,0,0.5,0,0.8,0c0.7,0.1,1.2,0.6,1.2,1.3c0,0.7-0.4,1.2-1.1,1.3c-0.2,0-0.5,0-0.8,0 C49.9,65.2,44.7,65.2,39.5,65.2z" class="st29"/><path d="M57,59.8c-1.3,0-2.5,0-3.8,0c-1,0-1.6-0.5-1.6-1.3c0-0.8,0.6-1.4,1.6-1.4c2.6,0,5.1,0,7.7,0 c1,0,1.6,0.5,1.6,1.3c0,0.9-0.6,1.4-1.6,1.4C59.6,59.8,58.3,59.8,57,59.8z" class="st29"/><path d="M20.7,59.8c-0.9,0-1.7,0-2.6,0c-0.9,0-1.5-0.6-1.5-1.4c0-0.8,0.6-1.3,1.4-1.3c1.8,0,3.5,0,5.3,0 c0.8,0,1.4,0.6,1.4,1.4c0,0.7-0.6,1.3-1.4,1.3C22.4,59.9,21.5,59.8,20.7,59.8z" class="st29"/><path d="M15.2,65.2c-0.9,0-1.7,0-2.6,0c-0.9,0-1.4-0.6-1.4-1.3c0-0.8,0.6-1.4,1.5-1.4c1.7,0,3.5,0,5.2,0 c0.9,0,1.4,0.6,1.4,1.3c0,0.8-0.6,1.4-1.5,1.4C17,65.3,16.1,65.2,15.2,65.2z" class="st29"/><path d="M63.9,62.5c0.8,0,1.6,0,2.4,0c0.9,0,1.5,0.5,1.5,1.3c0,0.8-0.6,1.4-1.5,1.4c-1.7,0-3.5,0-5.2,0 c-0.9,0-1.4-0.6-1.4-1.3c0-0.8,0.6-1.4,1.5-1.4C62.1,62.5,63,62.5,63.9,62.5z" class="st29"/><path d="M30.1,59.8c-0.4,0-0.9,0-1.3,0c-0.8,0-1.3-0.6-1.3-1.3c0-0.7,0.5-1.3,1.3-1.4c0.9,0,1.8,0,2.8,0 c0.8,0,1.3,0.6,1.3,1.3c0,0.8-0.5,1.3-1.4,1.4C31,59.9,30.5,59.8,30.1,59.8z" class="st29"/><path d="M38.2,59.8c-0.4,0-0.9,0-1.3,0c-0.8,0-1.3-0.6-1.3-1.3c0-0.7,0.5-1.3,1.3-1.4c1,0,1.9,0,2.9,0 c0.7,0,1.3,0.6,1.3,1.3c0,0.7-0.5,1.3-1.3,1.4C39.1,59.9,38.6,59.8,38.2,59.8C38.2,59.8,38.2,59.8,38.2,59.8z" class="st29"/><path d="M46.3,59.8c-0.5,0-1,0-1.4,0c-0.7-0.1-1.3-0.6-1.3-1.3c0-0.7,0.5-1.3,1.3-1.4c1,0,1.9,0,2.9,0 c0.7,0,1.3,0.6,1.3,1.3c0,0.7-0.5,1.3-1.3,1.4C47.2,59.9,46.7,59.8,46.3,59.8z" class="st29"/></g><path d="M12.6,34.5C12.6,34.5,12.6,34.5,12.6,34.5c0-2.3,0-4.6,0-6.9c-4.1,0-8.1,0-12.1,0c0-3.5,0-6.9,0-10.4	c4,0,8.1,0,12.1,0c0-2.3,0-4.6,0-6.9c0,0,0,0,0,0c0,0.1,0.1,0.1,0.1,0.2c1,1,1.9,1.9,2.9,2.9c0.9,0.9,1.8,1.8,2.7,2.7	c0.9,0.9,1.8,1.8,2.6,2.6c0.8,0.8,1.6,1.6,2.4,2.4c0.4,0.4,0.9,0.9,1.3,1.3c0,0,0,0.1,0,0.1c-0.6,0.6-1.1,1.1-1.7,1.7	c-1,1-2.1,2.1-3.1,3.1c-1.2,1.2-2.3,2.3-3.5,3.5c-1.2,1.2-2.3,2.3-3.5,3.5C12.8,34.3,12.7,34.4,12.6,34.5z" class="st42"/></svg>