<svg xmlns="http://www.w3.org/2000/svg" xmlns:xlink="http://www.w3.org/1999/xlink" id="Layer_1" x="0" y="0" version="1.1" viewBox="0 0 516 235" xml:space="preserve" style="enable-background:new 0 0 516 235"><style type="text/css">.st6{fill:#1c425c}.st35{fill:#023550}.st37,.st92{stroke:#1c425c;stroke-linejoin:round}.st37{fill:none;stroke-linecap:round}.st92{fill:#f2f2f2;stroke-width:1.9094;stroke-miterlimit:10}.st93{font-family:&apos;OpenSans&apos;}.st94{font-size:14px}.st95,.st96{fill:#f2f2f2;stroke:#023550;stroke-width:2;stroke-miterlimit:10}.st96{fill:none;stroke:#028a9e;stroke-width:2.185;stroke-linecap:round}.st97{fill:#028a9e}.st98{fill:none;stroke:#046d70;stroke-width:2.185;stroke-linecap:round;stroke-miterlimit:10}.st99{fill:#046d70}.st100{fill:none;stroke:#04bfbf;stroke-width:2.185;stroke-linecap:round;stroke-miterlimit:10}.st101{fill:#04bfbf}.st102{font-family:&apos;OpenSans-Semibold&apos;}.st103{font-size:7px}.st104{fill:#66a6bc;stroke-linejoin:round;stroke-miterlimit:10}.st104,.st105,.st106{stroke:#023550;stroke-width:1.0085;stroke-linecap:round}.st105{fill:#9fe5f7;stroke-linejoin:round;stroke-miterlimit:10}.st106{fill:#75bcda}.st106,.st107,.st108{stroke-linejoin:round;stroke-miterlimit:10}.st107{fill:#f2f2f2;stroke:#023550;stroke-width:1.0085;stroke-linecap:round}.st108{fill:#9534a0;stroke:#1c425c;stroke-width:2}.st109{font-size:13px}</style><g><path d="M491.4,179.7H252.7c-6.8,0-12.3-5.6-12.3-12.3V52.1c0-6.8,5.6-12.3,12.3-12.3h238.7c6.8,0,12.3,5.6,12.3,12.3 v115.3C503.7,174.2,498.2,179.7,491.4,179.7z" class="st92"/><text class="st93 st94" transform="matrix(1 0 0 1 343.6494 64.0001)">Pipeline</text><g><g><path d="M328.3,153.1h-46.4c-0.7,0-1.2-0.5-1.2-1.2V81.2c0-0.7,0.5-1.2,1.2-1.2h46.4c0.7,0,1.2,0.5,1.2,1.2v70.7 C329.5,152.6,329,153.1,328.3,153.1z" class="st95"/><g><g><g><path d="M290.3,110.9c-0.2-1-0.3-2.1-0.3-3.2c0-6.7,4.4-12.5,10.5-14.4" class="st96"/><g><polygon points="307.8 90.9 298.8 98.4 299.9 93.4 296.1 90" class="st97"/></g></g></g><g><g><path d="M295,118.9c2.7,2.4,6.2,3.9,10.1,3.9c3.9,0,7.5-1.5,10.2-4" class="st98"/><g><polygon points="289.3 113.8 294.4 124.3 295.4 119.3 300.3 117.7" class="st99"/></g></g></g><g><g><path d="M309.8,93.2c6.1,2,10.5,7.7,10.5,14.4c0,1.1-0.1,2.1-0.3,3.1" class="st100"/><g><polygon points="318.4 118.3 316.2 106.7 320.1 110.2 324.9 108.6" class="st101"/></g></g></g></g><text class="st35 st102 st103" transform="matrix(1 0 0 1 290.9766 143.5305)">Stage 1</text><g><polygon points="313.3 101.1 313.3 106.1 308.3 108.1 306.9 108.6 306.9 103.6 308.3 103.1" class="st104"/><rect width="5" height="5" x="296.9" y="108.6" class="st105"/><rect width="5" height="5" x="301.9" y="108.6" class="st105"/><rect width="5" height="5" x="296.9" y="103.6" class="st105"/><polygon points="308.3 101.1 303.3 103.1 301.9 103.6 296.9 103.6 303.3 101.1" class="st106"/><polygon points="313.3 106.1 313.3 111.1 306.9 113.6 306.9 108.6 308.3 108.1" class="st104"/><g><line x1="307" x2="307" y1="108.5" y2="113.5" class="st107"/><line x1="308.6" x2="308.6" y1="107.9" y2="112.9" class="st107"/><line x1="310.1" x2="310.1" y1="107.2" y2="112.2" class="st107"/><line x1="311.7" x2="311.7" y1="106.6" y2="111.6" class="st107"/><line x1="313.3" x2="313.3" y1="106" y2="111" class="st107"/></g><polygon points="313.3 101.1 308.3 103.1 306.9 103.6 301.9 103.6 303.3 103.1 308.3 101.1" class="st106"/><rect width="5" height="5" x="301.9" y="103.6" class="st105"/><g><line x1="307" x2="307" y1="103.6" y2="108.6" class="st107"/><line x1="308.6" x2="308.6" y1="103" y2="108" class="st107"/><line x1="310.1" x2="310.1" y1="102.4" y2="107.4" class="st107"/><line x1="311.7" x2="311.7" y1="101.8" y2="106.8" class="st107"/><line x1="313.3" x2="313.3" y1="101.1" y2="106.1" class="st107"/></g></g></g><g><path d="M396.2,153.1h-46.4c-0.7,0-1.2-0.5-1.2-1.2V81.2c0-0.7,0.5-1.2,1.2-1.2h46.4c0.7,0,1.2,0.5,1.2,1.2v70.7 C397.4,152.6,396.9,153.1,396.2,153.1z" class="st95"/><g><g><g><path d="M358.2,110.9c-0.2-1-0.3-2.1-0.3-3.2c0-6.7,4.4-12.5,10.5-14.4" class="st96"/><g><polygon points="375.7 90.9 366.7 98.4 367.8 93.4 364 90" class="st97"/></g></g></g><g><g><path d="M362.9,118.9c2.7,2.4,6.2,3.9,10.1,3.9c3.9,0,7.5-1.5,10.2-4" class="st98"/><g><polygon points="357.1 113.8 362.3 124.3 363.3 119.3 368.2 117.7" class="st99"/></g></g></g><g><g><path d="M377.6,93.2c6.1,2,10.5,7.7,10.5,14.4c0,1.1-0.1,2.1-0.3,3.1" class="st100"/><g><polygon points="386.3 118.3 384.1 106.7 387.9 110.2 392.8 108.6" class="st101"/></g></g></g></g><text class="st35 st102 st103" transform="matrix(1 0 0 1 358.8574 143.5305)">Stage 2</text><g><polygon points="381.1 101.1 381.1 106.1 376.1 108.1 374.8 108.6 374.8 103.6 376.1 103.1" class="st104"/><rect width="5" height="5" x="364.8" y="108.6" class="st105"/><rect width="5" height="5" x="369.8" y="108.6" class="st105"/><rect width="5" height="5" x="364.8" y="103.6" class="st105"/><polygon points="376.1 101.1 371.2 103.1 369.8 103.6 364.8 103.6 371.2 101.1" class="st106"/><polygon points="381.1 106.1 381.1 111.1 374.8 113.6 374.8 108.6 376.1 108.1" class="st104"/><g><line x1="374.9" x2="374.9" y1="108.5" y2="113.5" class="st107"/><line x1="376.4" x2="376.4" y1="107.9" y2="112.9" class="st107"/><line x1="378" x2="378" y1="107.2" y2="112.2" class="st107"/><line x1="379.6" x2="379.6" y1="106.6" y2="111.6" class="st107"/><line x1="381.2" x2="381.2" y1="106" y2="111" class="st107"/></g><polygon points="381.1 101.1 376.1 103.1 374.8 103.6 369.8 103.6 371.2 103.1 376.1 101.1" class="st106"/><rect width="5" height="5" x="369.8" y="103.6" class="st105"/><g><line x1="374.9" x2="374.9" y1="103.6" y2="108.6" class="st107"/><line x1="376.4" x2="376.4" y1="103" y2="108" class="st107"/><line x1="378" x2="378" y1="102.4" y2="107.4" class="st107"/><line x1="379.6" x2="379.6" y1="101.8" y2="106.8" class="st107"/><line x1="381.2" x2="381.2" y1="101.1" y2="106.1" class="st107"/></g></g></g><g><path d="M464.1,153.1h-46.4c-0.7,0-1.2-0.5-1.2-1.2V81.2c0-0.7,0.5-1.2,1.2-1.2h46.4c0.7,0,1.2,0.5,1.2,1.2v70.7 C465.3,152.6,464.8,153.1,464.1,153.1z" class="st95"/><g><g><g><path d="M426.1,110.9c-0.2-1-0.3-2.1-0.3-3.2c0-6.7,4.4-12.5,10.5-14.4" class="st96"/><g><polygon points="443.6 90.9 434.6 98.4 435.7 93.4 431.9 90" class="st97"/></g></g></g><g><g><path d="M430.8,118.9c2.7,2.4,6.2,3.9,10.1,3.9c3.9,0,7.5-1.5,10.2-4" class="st98"/><g><polygon points="425 113.8 430.1 124.3 431.2 119.3 436.1 117.7" class="st99"/></g></g></g><g><g><path d="M445.5,93.2c6.1,2,10.5,7.7,10.5,14.4c0,1.1-0.1,2.1-0.3,3.1" class="st100"/><g><polygon points="454.1 118.3 452 106.7 455.8 110.2 460.7 108.6" class="st101"/></g></g></g></g><text class="st35 st102 st103" transform="matrix(1 0 0 1 426.7383 143.5305)">Stage 3</text><g><polygon points="449 101.1 449 106.1 444 108.1 442.7 108.6 442.7 103.6 444 103.1" class="st104"/><rect width="5" height="5" x="432.7" y="108.6" class="st105"/><rect width="5" height="5" x="437.7" y="108.6" class="st105"/><rect width="5" height="5" x="432.7" y="103.6" class="st105"/><polygon points="444 101.1 439 103.1 437.7 103.6 432.7 103.6 439 101.1" class="st106"/><polygon points="449 106.1 449 111.1 442.7 113.6 442.7 108.6 444 108.1" class="st104"/><g><line x1="442.7" x2="442.7" y1="108.5" y2="113.5" class="st107"/><line x1="444.3" x2="444.3" y1="107.9" y2="112.9" class="st107"/><line x1="445.9" x2="445.9" y1="107.2" y2="112.2" class="st107"/><line x1="447.5" x2="447.5" y1="106.6" y2="111.6" class="st107"/><line x1="449.1" x2="449.1" y1="106" y2="111" class="st107"/></g><polygon points="449 101.1 444 103.1 442.7 103.6 437.7 103.6 439 103.1 444 101.1" class="st106"/><rect width="5" height="5" x="437.7" y="103.6" class="st105"/><g><line x1="442.7" x2="442.7" y1="103.6" y2="108.6" class="st107"/><line x1="444.3" x2="444.3" y1="103" y2="108" class="st107"/><line x1="445.9" x2="445.9" y1="102.4" y2="107.4" class="st107"/><line x1="447.5" x2="447.5" y1="101.8" y2="106.8" class="st107"/><line x1="449.1" x2="449.1" y1="101.1" y2="106.1" class="st107"/></g></g></g></g><g><g><path d="M105.2,94.5h-79c-5.5,0-10-4.5-10-10V60c0-5.5,4.5-10,10-10h79c5.5,0,10,4.5,10,10v24.5 C115.2,90,110.8,94.5,105.2,94.5z" class="st108"/><text class="st93 st109" transform="matrix(1 0 0 1 35.3638 77.0702)">Material 1</text></g><g><path d="M105.2,157.2h-79c-5.5,0-10-4.5-10-10v-24.5c0-5.5,4.5-10,10-10h79c5.5,0,10,4.5,10,10v24.5 C115.2,152.7,110.8,157.2,105.2,157.2z" class="st108"/><text class="st93 st109" transform="matrix(1 0 0 1 35.3638 139.7603)">Material 2</text></g></g><g><g><line x1="128.7" x2="230.1" y1="74.2" y2="108.1" class="st37"/><g><path d="M123,72.3c2.4,1.9,5.1,4.7,6.6,7.2l-0.1-5.1l3.1-4C129.9,71.6,126,72.2,123,72.3z" class="st6"/></g><g><path d="M235.8,110c-3,0.1-6.9,0.7-9.6,1.8l3.1-4l-0.1-5.1C230.7,105.2,233.4,108.1,235.8,110z" class="st6"/></g></g></g><g><g><line x1="128.9" x2="229.9" y1="133.9" y2="111.3" class="st37"/><g><path d="M123,135.3c3,0.4,6.8,1.4,9.4,2.8l-2.7-4.3l0.6-5C128.6,131.1,125.5,133.6,123,135.3z" class="st6"/></g><g><path d="M235.8,110c-2.5,1.6-5.6,4.2-7.3,6.5l0.6-5l-2.7-4.3C229,108.6,232.8,109.6,235.8,110z" class="st6"/></g></g></g></g></svg>