<svg xmlns="http://www.w3.org/2000/svg" xmlns:xlink="http://www.w3.org/1999/xlink" id="Layer_1" x="0" y="0" version="1.1" viewBox="0 0 75.1 71.1" xml:space="preserve" style="enable-background:new 0 0 75.1 71.1"><style type="text/css">.st4{fill:#fff}.st111{fill:#de572f}.st111,.st112,.st113{stroke:#1c425c;stroke-width:.5;stroke-miterlimit:10}.st112{fill:#439f83}.st113{fill:#db9e36}</style><g id="m9TRUz.tif"><g><path d="M68.7,54.7c0,1.6-0.9,2.8-2.2,3.1c-3.4,0.9-6.8,1.7-10.1,2.6c-1.6,0.4-3.2-0.6-3.6-2.3 c-1.4-5.7-2.9-11.4-4.3-17.1c-2-7.9-4-15.9-6-23.8c-0.5-1.9,0.4-3.5,2.3-4c3.2-0.8,6.4-1.6,9.6-2.4c1.7-0.4,3.4,0.5,3.8,2.3 c2.9,11.5,5.8,23,8.7,34.5c0.5,2.1,1.1,4.2,1.6,6.4C68.7,54.2,68.7,54.6,68.7,54.7z M62.7,36.7c0-0.1-0.1-0.3-0.1-0.5 c-1.9-7.6-3.8-15.2-5.7-22.7c-0.3-1-1-1.5-2.1-1.2c-3.2,0.8-6.4,1.6-9.6,2.4c-1.1,0.3-1.5,1-1.2,2.1c0.5,2,1,4,1.5,5.9 c1.4,5.6,2.8,11.3,4.3,16.9c0.2,0.9,0.8,1.4,1.6,1.3c0.3,0,0.7-0.1,1-0.2c3-0.8,6.1-1.5,9.1-2.3C62.3,38.1,62.7,37.5,62.7,36.7z M59,44c-2.8,0-5.1,2.3-5.1,5.1c0,2.8,2.3,5.1,5.1,5.1c2.8,0,5-2.3,5-5.1C64,46.2,61.8,44,59,44z" class="st111"/><path d="M22.8,35.6c0,6.9,0,13.8,0,20.8c0,2.2-1.2,3.4-3.4,3.4c-3.2,0-6.4,0-9.6,0c-2.1,0-3.3-1.2-3.3-3.3 c0-13.9,0-27.7,0-41.6c0-1.1,0.1-2.2,1.1-2.8c0.5-0.4,1.3-0.7,1.9-0.7c3.5-0.1,6.9-0.1,10.4,0c1.8,0,2.9,1.4,2.9,3.2 c0,5.2,0,10.4,0,15.6C22.8,31.9,22.8,33.8,22.8,35.6C22.8,35.6,22.8,35.6,22.8,35.6z M8,26.3c0,3.9,0,7.8,0,11.7 c0,1.2,0.6,1.8,1.8,1.9c3.2,0,6.4,0,9.6,0c1.4,0,1.9-0.6,1.9-2c0-7.7,0-15.4,0-23.1c0-1.4-0.6-2-1.9-2c-3.1,0-6.2,0-9.4,0 c-1.5,0-2,0.6-2,2.1C8,18.7,8,22.5,8,26.3z M19.7,49.5c0-2.8-2.2-5.1-5-5.2c-2.8,0-5.1,2.2-5.2,5c0,2.8,2.2,5.1,5,5.2 C17.3,54.6,19.6,52.3,19.7,49.5z" class="st112"/><path d="M24.6,35.5c0-6.8,0-13.6,0-20.4c0-0.5,0-1.1,0.1-1.6c0.3-1.3,1.4-2.2,2.7-2.2c3.6,0,7.2,0,10.7,0 c1.6,0,2.8,1.4,2.8,3.1c0,2.4,0,4.8,0,7.2c0,11.6,0,23.2,0,34.8c0,2.3-1.2,3.5-3.4,3.5c-3.2,0-6.4,0-9.6,0c-2,0-3.3-1.2-3.3-3.3 C24.6,49.5,24.6,42.5,24.6,35.5z M26.1,26.3c0,3.9,0,7.8,0,11.7c0,1.2,0.6,1.9,1.8,1.9c3.2,0,6.4,0,9.6,0c1.3,0,1.9-0.6,1.9-1.9 c0-7.7,0-15.5,0-23.2c0-1.3-0.6-1.9-1.9-1.9c-3.1,0-6.3,0-9.4,0c-1.5,0-2,0.6-2,2.1C26.1,18.7,26.1,22.5,26.1,26.3z M37.9,49.5 c0-2.8-2.2-5.1-5-5.1c-2.8,0-5.1,2.3-5.1,5.1c0,2.8,2.3,5.1,5.1,5.1C35.5,54.6,37.8,52.3,37.9,49.5z" class="st113"/><path d="M55.2,49c0,2.1,1.6,3.8,3.7,3.8c2.1,0,3.9-1.6,3.9-3.7c0-2.3-1.7-3.8-3.7-3.9C56.9,45.2,55.2,46.9,55.2,49z" class="st4"/><path d="M32.8,53.2c2.1,0,3.8-1.7,3.8-3.7c0-2.1-1.7-3.8-3.8-3.9c-2.1-0.1-3.8,1.7-3.8,3.8 C29,51.6,30.6,53.2,32.8,53.2z" class="st4"/><path d="M47.6,24.3c-0.6-2.2-1.1-4.3-1.6-6.5c3.2-0.8,6.3-1.6,9.6-2.4c0.5,2.2,1.1,4.3,1.6,6.5C54,22.7,50.8,23.5,47.6,24.3z"/><path d="M50.2,34.8c3.2-0.8,6.4-1.6,9.7-2.4c0.1,0.5,0.3,1,0.4,1.6c-3.2,0.8-6.4,1.6-9.7,2.4C50.5,35.8,50.3,35.3,50.2,34.8z"/><path d="M60.7,35.4c0.1,0.5,0.2,0.9,0.4,1.4c-3.2,0.8-6.4,1.6-9.7,2.4c-0.1-0.5-0.2-0.9-0.4-1.4C54.2,37,57.4,36.2,60.7,35.4z"/><path d="M59.1,29.4c0.1,0.5,0.2,0.9,0.4,1.4c-3.2,0.8-6.4,1.6-9.6,2.4c-0.1-0.5-0.3-0.9-0.4-1.4C52.7,31,55.9,30.2,59.1,29.4z"/><path d="M55.2,49c0-2.1,1.7-3.8,3.8-3.8c2,0.1,3.7,1.6,3.7,3.9c0,2.1-1.8,3.7-3.9,3.7C56.8,52.8,55.2,51.1,55.2,49z"/><path d="M14.6,22.7c-1.5,0-2.9,0-4.4,0c-0.4,0-0.6-0.1-0.6-0.6c0-1.9,0-3.7,0-5.6c0-0.4,0.1-0.6,0.6-0.6c2.9,0,5.9,0,8.8,0 c0.5,0,0.6,0.2,0.6,0.6c0,1.8,0,3.6,0,5.5c0,0.5-0.1,0.6-0.6,0.6C17.5,22.7,16.1,22.7,14.6,22.7C14.6,22.7,14.6,22.7,14.6,22.7z"/><path d="M9.6,35c0-0.5,0-1,0-1.5c0.3,0,0.5,0,0.8,0c2.8,0,5.6,0,8.4,0c0.9,0,0.9,0,0.9,0.8c0,0.2,0,0.5,0,0.8 C16.3,35,13,35,9.6,35z"/><path d="M19.6,30.5c0,0.5,0,0.9,0,1.4c-0.3,0-0.5,0-0.8,0c-2.8,0-5.6,0-8.4,0c-0.9,0-0.9,0-0.9-1c0-0.1,0-0.3,0-0.5 C12.9,30.5,16.2,30.5,19.6,30.5z"/><path d="M9.6,38c0-0.4,0-0.8,0-1.3c3.3,0,6.7,0,10,0c0,0.4,0,0.8,0,1.3C16.3,38,13,38,9.6,38z"/><path d="M14.6,53.2c-2.2,0-3.8-1.7-3.8-3.9c0-2,1.8-3.8,3.8-3.7c2.1,0.1,3.8,1.8,3.7,3.9C18.4,51.6,16.6,53.3,14.6,53.2z"/><path d="M32.8,22.7c-1.5,0-2.9,0-4.4,0c-0.4,0-0.6-0.1-0.6-0.6c0-1.9,0-3.7,0-5.6c0-0.4,0.1-0.6,0.6-0.6c2.9,0,5.9,0,8.8,0 c0.4,0,0.6,0.1,0.6,0.6c0,1.9,0,3.7,0,5.6c0,0.4-0.1,0.6-0.6,0.6C35.8,22.7,34.3,22.7,32.8,22.7C32.8,22.7,32.8,22.7,32.8,22.7z"/><path d="M37.9,35c-3.4,0-6.7,0-10,0c0-0.5,0-1,0-1.6c0.3,0,0.5,0,0.8,0c2.8,0,5.6,0,8.4,0c0.7,0,0.9,0.2,0.8,0.8 C37.8,34.5,37.9,34.7,37.9,35z"/><path d="M27.8,31.9c0-0.5,0-0.9,0-1.4c3.3,0,6.6,0,10,0c0,0.5,0,0.9,0,1.4C34.5,31.9,31.2,31.9,27.8,31.9z"/><path d="M37.8,36.7c0,0.4,0,0.8,0,1.3c-3.3,0-6.6,0-10,0c0-0.4,0-0.8,0-1.3C31.1,36.7,34.5,36.7,37.8,36.7z"/><path d="M32.8,53.2c-2.2,0-3.8-1.7-3.8-3.8c0-2.1,1.8-3.8,3.8-3.8c2.1,0.1,3.8,1.8,3.8,3.9C36.6,51.6,34.8,53.3,32.8,53.2z"/></g></g></svg>