<svg xmlns="http://www.w3.org/2000/svg" xmlns:xlink="http://www.w3.org/1999/xlink" style="enable-background:new 0 0 360 200" id="Layer_1" x="0" y="0" version="1.1" viewBox="0 0 360 200" xml:space="preserve"><style type="text/css">.st0,.st1,.st2{stroke:#1c425c;stroke-width:3;stroke-miterlimit:10}.st0{fill:none;stroke-linecap:round;stroke-linejoin:round}.st1{fill:#f7a600}.st2{fill:#00bfc0}.st4{fill:#fff}.st5{fill:none;stroke:#1c425c;stroke-width:2;stroke-linecap:round;stroke-linejoin:round;stroke-miterlimit:10}.st8{fill:#fffad5}</style><g><rect width="53" height="53" x="112" y="110.5" class="st2"/><rect width="53" height="53" x="194.2" y="110.5" class="st2"/><rect width="53" height="53" x="194.2" y="36.5" class="st2"/><rect width="53" height="53" x="277.5" y="110.5" class="st2"/><path d="M56.5,163.5L56.5,163.5C41.9,163.5,30,151.6,30,137c0-14.6,11.9-26.5,26.5-26.5c14.6,0,26.5,11.9,26.5,26.5 C83,151.6,71.1,163.5,56.5,163.5" class="st1"/><path d="M56.5,163.5L56.5,163.5C41.9,163.5,30,151.6,30,137c0-14.6,11.9-26.5,26.5-26.5c14.6,0,26.5,11.9,26.5,26.5 C83,151.6,71.1,163.5,56.5,163.5z" class="st0"/><line x1="83" x2="112" y1="138.5" y2="138.5" class="st0"/><line x1="165" x2="195" y1="138.5" y2="138.5" class="st0"/><line x1="247.7" x2="277" y1="63" y2="137" class="st8"/><line x1="247.7" x2="277" y1="63" y2="137" class="st0"/><line x1="248" x2="277" y1="138.5" y2="138.5" class="st0"/><line x1="165.3" x2="194.7" y1="137" y2="63" class="st8"/><line x1="165.3" x2="194.7" y1="137" y2="63" class="st0"/><line x1="57" x2="64" y1="130" y2="130" class="st5"/><line x1="39" x2="50" y1="130" y2="130" class="st5"/><line x1="72" x2="74" y1="130" y2="130" class="st5"/><line x1="62" x2="74" y1="138" y2="138" class="st5"/><line x1="47" x2="55" y1="138" y2="138" class="st5"/><line x1="39" x2="40" y1="138" y2="138" class="st5"/><line x1="54" x2="66" y1="145" y2="145" class="st5"/><line x1="39" x2="47" y1="145" y2="145" class="st5"/><line x1="73" x2="74" y1="145" y2="145" class="st5"/><path d="M149.5,137c0,5.9-4.8,10.6-10.6,10.6c-5.9,0-10.6-4.8-10.6-10.6c0-5.9,4.8-10.6,10.6-10.6 C144.7,126.4,149.5,131.1,149.5,137" class="st4"/><circle cx="138.8" cy="137" r="10.6" class="st5"/><path d="M231.8,137c0,5.9-4.8,10.6-10.6,10.6c-5.9,0-10.6-4.8-10.6-10.6c0-5.9,4.8-10.6,10.6-10.6 C227,126.4,231.8,131.1,231.8,137" class="st4"/><circle cx="221.2" cy="137" r="10.6" class="st5"/><path d="M314.1,137c0,5.9-4.8,10.6-10.6,10.6c-5.9,0-10.6-4.8-10.6-10.6c0-5.9,4.8-10.6,10.6-10.6 C309.4,126.4,314.1,131.1,314.1,137" class="st4"/><circle cx="303.5" cy="137" r="10.6" class="st5"/><path d="M231.8,63c0,5.9-4.8,10.6-10.6,10.6c-5.9,0-10.6-4.8-10.6-10.6c0-5.9,4.8-10.6,10.6-10.6 C227,52.3,231.8,57.1,231.8,63" class="st4"/><circle cx="221.2" cy="63" r="10.6" class="st5"/></g></svg>