<svg xmlns="http://www.w3.org/2000/svg" xmlns:xlink="http://www.w3.org/1999/xlink" id="Layer_1" x="0" y="0" version="1.1" viewBox="0 0 360 200" xml:space="preserve" style="enable-background:new 0 0 360 200"><style type="text/css">.st0,.st15,.st16,.st17{stroke:#1c425c;stroke-miterlimit:10}.st0{fill:none;stroke-width:3;stroke-linecap:round;stroke-linejoin:round}.st15{fill:#00bfc0}.st15,.st16,.st17{stroke-width:2}.st16{fill:#f7a600}.st17{fill:#9534a0}</style><g id="LPO8Dd.tif"><g><path d="M142.5,183.6c0.2-0.9,0.4-1.9,0.6-2.8c0.7-3.1,1.9-6.1,3.5-8.9c1.4-2.5,3.2-4.7,5.3-6.8 c2.1-2.1,4.5-3.9,7.2-5.3c0.4-0.2,0.5,0,0.8,0.1c1,0.8,2,1.7,3.1,2.5c3.1,2,6.6,3.1,10.3,3.3c3.1,0.1,6.1-0.4,9-1.6 c2.3-1,4.4-2.3,6.2-4c0.4-0.4,0.7-0.4,1.1-0.2c2.3,1.3,4.5,2.9,6.4,4.7c1.6,1.5,3,3,4.2,4.8c1.7,2.4,3.1,5,4.1,7.8 c0.7,2.1,1.2,4.2,1.6,6.4c0.2,1.4-0.7,2.6-2.1,2.8c-0.3,0-0.5,0-0.8,0c-19.1,0-38.2,0-57.3,0c-1.4,0-2.5-0.5-3-1.9 C142.5,184.2,142.5,183.9,142.5,183.6z" class="st16"/><path d="M174.2,160.9c-10,0-18.1-8.2-18.1-18.1c0-10,8.1-18.1,18.1-18.1c10.1,0,18.1,8.1,18.1,18.1 C192.4,152.8,184.2,160.9,174.2,160.9z" class="st16"/></g></g><g id="LPO8Dd.tif_1_"><g><path d="M216.2,101.9c0.2-0.9,0.4-1.9,0.6-2.8c0.7-3.1,1.9-6.1,3.5-8.9c1.4-2.5,3.2-4.7,5.3-6.8 c2.1-2.1,4.5-3.9,7.2-5.3c0.4-0.2,0.5,0,0.8,0.1c1,0.8,2,1.7,3.1,2.5c3.1,2,6.6,3.1,10.3,3.3c3.1,0.1,6.1-0.4,9-1.6 c2.3-1,4.4-2.3,6.2-4c0.4-0.4,0.7-0.4,1.1-0.2c2.3,1.3,4.5,2.9,6.4,4.7c1.6,1.5,3,3,4.2,4.8c1.7,2.4,3.1,5,4.1,7.8 c0.7,2.1,1.2,4.2,1.6,6.4c0.2,1.4-0.7,2.6-2.1,2.8c-0.3,0-0.5,0-0.8,0c-19.1,0-38.2,0-57.3,0c-1.4,0-2.5-0.5-3-1.9 C216.2,102.5,216.2,102.2,216.2,101.9z" class="st15"/><path d="M247.8,79.2c-10,0-18.1-8.2-18.1-18.1c0-10,8.1-18.1,18.1-18.1c10.1,0,18.1,8.1,18.1,18.1 C266,71.1,257.8,79.2,247.8,79.2z" class="st15"/></g></g><g id="LPO8Dd.tif_2_"><g><path d="M78.2,99.6c0.2-0.9,0.4-1.9,0.6-2.8c0.7-3.1,1.9-6.1,3.5-8.9c1.4-2.5,3.2-4.7,5.3-6.8 c2.1-2.1,4.5-3.9,7.2-5.3c0.4-0.2,0.5,0,0.8,0.1c1,0.8,2,1.7,3.1,2.5c3.1,2,6.6,3.1,10.3,3.3c3.1,0.1,6.1-0.4,9-1.6 c2.3-1,4.4-2.3,6.2-4c0.4-0.4,0.7-0.4,1.1-0.2c2.3,1.3,4.5,2.9,6.4,4.7c1.6,1.5,3,3,4.2,4.8c1.7,2.4,3.1,5,4.1,7.8 c0.7,2.1,1.2,4.2,1.6,6.4c0.2,1.4-0.7,2.6-2.1,2.8c-0.3,0-0.5,0-0.8,0c-19.1,0-38.2,0-57.3,0c-1.4,0-2.5-0.5-3-1.9 C78.2,100.3,78.2,99.9,78.2,99.6z" class="st17"/><path d="M109.9,77c-10,0-18.1-8.2-18.1-18.1c0-10,8.1-18.1,18.1-18.1c10.1,0,18.1,8.1,18.1,18.1 C128,68.8,119.8,77,109.9,77z" class="st17"/></g></g><g><path d="M224.3,43c-13-12.1-30.5-19.4-49.6-19.4c-17.4,0-33.3,6.1-45.9,16.2" class="st0"/><path d="M213,159.1c16.4-10.1,28.4-26.4,32.9-45.6" class="st0"/><path d="M103.3,112.9c4.3,19,16,35.2,31.9,45.5" class="st0"/></g></svg>