<svg xmlns="http://www.w3.org/2000/svg" xmlns:xlink="http://www.w3.org/1999/xlink" id="Layer_1" x="0" y="0" version="1.1" viewBox="0 0 360 200" xml:space="preserve" style="enable-background:new 0 0 360 200"><style type="text/css">.st0{fill:none;stroke:#1c425c;stroke-width:3;stroke-linecap:round;stroke-linejoin:round;stroke-miterlimit:10}.st13{fill:#f7a600}.st13,.st15,.st42{stroke:#1c425c;stroke-miterlimit:10}.st15{fill:#00bfc0;stroke-width:2}.st42{fill:#9534a0}</style><line x1="71" x2="293" y1="98.5" y2="98.5" class="st0"/><circle cx="71.3" cy="98.3" r="4.5" class="st42"/><circle cx="93.5" cy="98.3" r="2.9" class="st13"/><circle cx="137.9" cy="98.3" r="2.9" class="st13"/><circle cx="182.3" cy="98.3" r="2.9" class="st13"/><circle cx="226.7" cy="98.3" r="2.9" class="st13"/><circle cx="271.1" cy="98.3" r="2.9" class="st13"/><circle cx="115.7" cy="98.3" r="4.5" class="st42"/><circle cx="160.1" cy="98.3" r="4.5" class="st42"/><circle cx="204.5" cy="98.3" r="4.5" class="st42"/><circle cx="248.9" cy="98.3" r="4.5" class="st42"/><circle cx="293.3" cy="98.3" r="4.5" class="st42"/><line x1="71.5" x2="71.5" y1="88" y2="67" class="st0"/><line x1="159.5" x2="159.5" y1="89" y2="68" class="st0"/><line x1="249.5" x2="249.5" y1="88" y2="67" class="st0"/><line x1="293.5" x2="293.5" y1="133" y2="111" class="st0"/><line x1="204.5" x2="204.5" y1="133" y2="111" class="st0"/><line x1="115.5" x2="115.5" y1="133" y2="111" class="st0"/><circle cx="71.5" cy="45.1" r="14.8" class="st15"/><circle cx="159.3" cy="46.1" r="14.8" class="st15"/><circle cx="249.1" cy="45.1" r="14.8" class="st15"/><circle cx="293.5" cy="154.9" r="14.8" class="st15"/><circle cx="204.7" cy="154.9" r="14.8" class="st15"/><circle cx="115.9" cy="154.9" r="14.8" class="st15"/></svg>