<svg xmlns="http://www.w3.org/2000/svg" xmlns:xlink="http://www.w3.org/1999/xlink" id="Layer_1" x="0" y="0" version="1.1" viewBox="0 0 360 200" xml:space="preserve" style="enable-background:new 0 0 360 200"><style type="text/css">.st0,.st2{stroke-width:3}.st0,.st2,.st5{stroke:#1c425c;stroke-miterlimit:10}.st0{fill:none;stroke-linecap:round;stroke-linejoin:round}.st2{fill:#00bfc0}.st5{fill:none;stroke-width:2;stroke-linecap:round;stroke-linejoin:round}.st6{fill:#1c425c}.st28{fill:none;stroke:#1c425c;stroke-width:3;stroke-linecap:round;stroke-linejoin:round}.st29{fill:#f7a600}</style><g><line x1="125.2" x2="204.8" y1="100" y2="100" class="st0"/><line x1="73.5" x2="91.8" y1="99.8" y2="99.8" class="st28"/><polyline points="94.1 155.6 73.2 155.6 73.2 44.4 94.1 44.4" class="st28"/><path d="M91.1,163.6v-16c0-0.6,0.8-1,1.2-0.5l8,8c0.3,0.3,0.3,0.7,0,1l-8,8C91.9,164.6,91.1,164.3,91.1,163.6" class="st6"/><path d="M91.1,36.4v16c0,0.6,0.8,1,1.2,0.5l8-8c0.3-0.3,0.3-0.7,0-1l-8-8C91.9,35.4,91.1,35.7,91.1,36.4" class="st6"/><path d="M91.1,92.2v16c0,0.6,0.8,1,1.2,0.5l8-8c0.3-0.3,0.3-0.7,0-1l-8-8C91.9,91.2,91.1,91.5,91.1,92.2" class="st6"/><polyline points="147.9 44.4 177.2 44.4 177.2 155.6 147.9 155.6" class="st0"/><rect width="45.3" height="45.3" x="102.6" y="21.7" class="st2"/><rect width="45.3" height="45.3" x="102.6" y="21.7" class="st0"/><path d="M130.1,35.8c-0.3-0.2-0.6-0.3-1-0.5l-0.9-4c-0.9-0.2-1.8-0.3-2.7-0.3l-1.9,3.7l0,0c-0.7,0.1-1.4,0.3-2.1,0.6 l0,0l-3.5-2.2c-0.8,0.5-1.5,1-2.2,1.7l1.3,3.9c-0.2,0.3-0.4,0.6-0.6,0.9c-0.2,0.3-0.3,0.6-0.5,1l-4,0.9c-0.2,0.9-0.3,1.8-0.3,2.7 l3.7,1.9l0,0c0.1,0.7,0.3,1.4,0.6,2.1l0,0l-2.2,3.5c0.5,0.8,1,1.5,1.7,2.2l3.9-1.3c0.3,0.2,0.6,0.4,0.9,0.6c0.3,0.2,0.6,0.3,1,0.5 l0.9,4c0.9,0.2,1.8,0.3,2.7,0.3l1.9-3.7l0,0c0.7-0.1,1.4-0.3,2.1-0.6l0,0l3.5,2.2c0.8-0.5,1.5-1,2.2-1.7l-1.3-3.9 c0.2-0.3,0.4-0.6,0.6-0.9c0.2-0.3,0.3-0.6,0.5-1l4-0.9c0.2-0.9,0.3-1.8,0.3-2.7l-3.7-1.9l0,0c-0.1-0.7-0.3-1.4-0.6-2.1l0,0l2.2-3.5 c-0.5-0.8-1-1.5-1.7-2.2l-3.9,1.3C130.7,36.1,130.4,35.9,130.1,35.8 M128.2,46.1c-0.9,1.7-3,2.2-4.7,1.3c-1.7-0.9-2.2-3-1.3-4.7 c0.9-1.7,3-2.2,4.7-1.3C128.6,42.3,129.2,44.4,128.2,46.1" class="st29"/><path d="M130.1,35.8c-0.3-0.2-0.6-0.3-1-0.5l-0.9-4c-0.9-0.2-1.8-0.3-2.7-0.3l-1.9,3.7l0,0c-0.7,0.1-1.4,0.3-2.1,0.6 l0,0l-3.5-2.2c-0.8,0.5-1.5,1-2.2,1.7l1.3,3.9c-0.2,0.3-0.4,0.6-0.6,0.9c-0.2,0.3-0.3,0.6-0.5,1l-4,0.9c-0.2,0.9-0.3,1.8-0.3,2.7 l3.7,1.9l0,0c0.1,0.7,0.3,1.4,0.6,2.1l0,0l-2.2,3.5c0.5,0.8,1,1.5,1.7,2.2l3.9-1.3c0.3,0.2,0.6,0.4,0.9,0.6c0.3,0.2,0.6,0.3,1,0.5 l0.9,4c0.9,0.2,1.8,0.3,2.7,0.3l1.9-3.7l0,0c0.7-0.1,1.4-0.3,2.1-0.6l0,0l3.5,2.2c0.8-0.5,1.5-1,2.2-1.7l-1.3-3.9 c0.2-0.3,0.4-0.6,0.6-0.9c0.2-0.3,0.3-0.6,0.5-1l4-0.9c0.2-0.9,0.3-1.8,0.3-2.7l-3.7-1.9l0,0c-0.1-0.7-0.3-1.4-0.6-2.1l0,0l2.2-3.5 c-0.5-0.8-1-1.5-1.7-2.2l-3.9,1.3C130.7,36.1,130.4,35.9,130.1,35.8z M128.2,46.1c-0.9,1.7-3,2.2-4.7,1.3c-1.7-0.9-2.2-3-1.3-4.7 c0.9-1.7,3-2.2,4.7-1.3C128.6,42.3,129.2,44.4,128.2,46.1z" class="st5"/><rect width="45.3" height="45.3" x="102.6" y="77.3" class="st2"/><rect width="45.3" height="45.3" x="102.6" y="77.3" class="st0"/><path d="M130.1,91.4c-0.3-0.2-0.6-0.3-1-0.5l-0.9-4c-0.9-0.2-1.8-0.3-2.7-0.3l-1.9,3.7l0,0c-0.7,0.1-1.4,0.3-2.1,0.6 l0,0l-3.5-2.2c-0.8,0.5-1.5,1-2.2,1.7l1.3,3.9c-0.2,0.3-0.4,0.6-0.6,0.9c-0.2,0.3-0.3,0.6-0.5,1l-4,0.9c-0.2,0.9-0.3,1.8-0.3,2.7 l3.7,1.9l0,0c0.1,0.7,0.3,1.4,0.6,2.1l0,0l-2.2,3.5c0.5,0.8,1,1.5,1.7,2.2l3.9-1.3c0.3,0.2,0.6,0.4,0.9,0.6c0.3,0.2,0.6,0.3,1,0.5 l0.9,4c0.9,0.2,1.8,0.3,2.7,0.3l1.9-3.7l0,0c0.7-0.1,1.4-0.3,2.1-0.6l0,0l3.5,2.2c0.8-0.5,1.5-1,2.2-1.7l-1.3-3.9 c0.2-0.3,0.4-0.6,0.6-0.9c0.2-0.3,0.3-0.6,0.5-1l4-0.9c0.2-0.9,0.3-1.8,0.3-2.7l-3.7-1.9l0,0c-0.1-0.7-0.3-1.4-0.6-2.1l0,0l2.2-3.5 c-0.5-0.8-1-1.5-1.7-2.2L131,92C130.7,91.8,130.4,91.6,130.1,91.4 M128.2,101.7c-0.9,1.7-3,2.2-4.7,1.3c-1.7-0.9-2.2-3-1.3-4.7 c0.9-1.7,3-2.2,4.7-1.3C128.6,98,129.2,100.1,128.2,101.7" class="st29"/><path d="M130.1,91.4c-0.3-0.2-0.6-0.3-1-0.5l-0.9-4c-0.9-0.2-1.8-0.3-2.7-0.3l-1.9,3.7l0,0c-0.7,0.1-1.4,0.3-2.1,0.6 l0,0l-3.5-2.2c-0.8,0.5-1.5,1-2.2,1.7l1.3,3.9c-0.2,0.3-0.4,0.6-0.6,0.9c-0.2,0.3-0.3,0.6-0.5,1l-4,0.9c-0.2,0.9-0.3,1.8-0.3,2.7 l3.7,1.9l0,0c0.1,0.7,0.3,1.4,0.6,2.1l0,0l-2.2,3.5c0.5,0.8,1,1.5,1.7,2.2l3.9-1.3c0.3,0.2,0.6,0.4,0.9,0.6c0.3,0.2,0.6,0.3,1,0.5 l0.9,4c0.9,0.2,1.8,0.3,2.7,0.3l1.9-3.7l0,0c0.7-0.1,1.4-0.3,2.1-0.6l0,0l3.5,2.2c0.8-0.5,1.5-1,2.2-1.7l-1.3-3.9 c0.2-0.3,0.4-0.6,0.6-0.9c0.2-0.3,0.3-0.6,0.5-1l4-0.9c0.2-0.9,0.3-1.8,0.3-2.7l-3.7-1.9l0,0c-0.1-0.7-0.3-1.4-0.6-2.1l0,0l2.2-3.5 c-0.5-0.8-1-1.5-1.7-2.2L131,92C130.7,91.8,130.4,91.6,130.1,91.4z M128.2,101.7c-0.9,1.7-3,2.2-4.7,1.3c-1.7-0.9-2.2-3-1.3-4.7 c0.9-1.7,3-2.2,4.7-1.3C128.6,98,129.2,100.1,128.2,101.7z" class="st5"/><rect width="45.3" height="45.3" x="102.6" y="133" class="st2"/><rect width="45.3" height="45.3" x="102.6" y="133" class="st0"/><path d="M130.1,147c-0.3-0.2-0.6-0.3-1-0.5l-0.9-4c-0.9-0.2-1.8-0.3-2.7-0.3l-1.9,3.7l0,0c-0.7,0.1-1.4,0.3-2.1,0.6 l0,0l-3.5-2.2c-0.8,0.5-1.5,1-2.2,1.7l1.3,3.9c-0.2,0.3-0.4,0.6-0.6,0.9c-0.2,0.3-0.3,0.6-0.5,1l-4,0.9c-0.2,0.9-0.3,1.8-0.3,2.7 l3.7,1.9l0,0c0.1,0.7,0.3,1.4,0.6,2.1l0,0l-2.2,3.5c0.5,0.8,1,1.5,1.7,2.2l3.9-1.3c0.3,0.2,0.6,0.4,0.9,0.6c0.3,0.2,0.6,0.3,1,0.5 l0.9,4c0.9,0.2,1.8,0.3,2.7,0.3l1.9-3.7l0,0c0.7-0.1,1.4-0.3,2.1-0.6l0,0l3.5,2.2c0.8-0.5,1.5-1,2.2-1.7l-1.3-3.9 c0.2-0.3,0.4-0.6,0.6-0.9c0.2-0.3,0.3-0.6,0.5-1l4-0.9c0.2-0.9,0.3-1.8,0.3-2.7l-3.7-1.9l0,0c-0.1-0.7-0.3-1.4-0.6-2.1l0,0l2.2-3.5 c-0.5-0.8-1-1.5-1.7-2.2l-3.9,1.3C130.7,147.4,130.4,147.2,130.1,147 M128.2,157.3c-0.9,1.7-3,2.2-4.7,1.3c-1.7-0.9-2.2-3-1.3-4.7 c0.9-1.7,3-2.2,4.7-1.3C128.6,153.6,129.2,155.7,128.2,157.3" class="st29"/><path d="M130.1,147c-0.3-0.2-0.6-0.3-1-0.5l-0.9-4c-0.9-0.2-1.8-0.3-2.7-0.3l-1.9,3.7l0,0c-0.7,0.1-1.4,0.3-2.1,0.6 l0,0l-3.5-2.2c-0.8,0.5-1.5,1-2.2,1.7l1.3,3.9c-0.2,0.3-0.4,0.6-0.6,0.9c-0.2,0.3-0.3,0.6-0.5,1l-4,0.9c-0.2,0.9-0.3,1.8-0.3,2.7 l3.7,1.9l0,0c0.1,0.7,0.3,1.4,0.6,2.1l0,0l-2.2,3.5c0.5,0.8,1,1.5,1.7,2.2l3.9-1.3c0.3,0.2,0.6,0.4,0.9,0.6c0.3,0.2,0.6,0.3,1,0.5 l0.9,4c0.9,0.2,1.8,0.3,2.7,0.3l1.9-3.7l0,0c0.7-0.1,1.4-0.3,2.1-0.6l0,0l3.5,2.2c0.8-0.5,1.5-1,2.2-1.7l-1.3-3.9 c0.2-0.3,0.4-0.6,0.6-0.9c0.2-0.3,0.3-0.6,0.5-1l4-0.9c0.2-0.9,0.3-1.8,0.3-2.7l-3.7-1.9l0,0c-0.1-0.7-0.3-1.4-0.6-2.1l0,0l2.2-3.5 c-0.5-0.8-1-1.5-1.7-2.2l-3.9,1.3C130.7,147.4,130.4,147.2,130.1,147z M128.2,157.3c-0.9,1.7-3,2.2-4.7,1.3c-1.7-0.9-2.2-3-1.3-4.7 c0.9-1.7,3-2.2,4.7-1.3C128.6,153.6,129.2,155.7,128.2,157.3z" class="st5"/><path d="M201.5,92.2v16c0,0.6,0.8,1,1.2,0.5l8-8c0.3-0.3,0.3-0.7,0-1l-8-8C202.3,91.2,201.5,91.5,201.5,92.2" class="st6"/><rect width="73.9" height="130" x="212.8" y="34.8" class="st2"/><rect width="73.9" height="130" x="212.8" y="34.8" class="st0"/><path d="M241.6,30.6h16.5c0.5,0,0.8-0.6,0.4-1l-8.2-8.2c-0.2-0.2-0.6-0.2-0.8,0l-8.2,8.2 C240.8,30,241.1,30.6,241.6,30.6" class="st6"/><path d="M258.1,168.9h-16.5c-0.5,0-0.8,0.6-0.4,1l8.2,8.2c0.2,0.2,0.6,0.2,0.8,0l8.2-8.2 C258.8,169.5,258.6,168.9,258.1,168.9" class="st6"/><line x1="279.1" x2="237.4" y1="45.7" y2="45.7" class="st0"/><line x1="229.2" x2="220.5" y1="45.7" y2="45.7" class="st0"/><line x1="279.1" x2="265.5" y1="57.7" y2="57.7" class="st0"/><line x1="258.8" x2="220.5" y1="57.7" y2="57.7" class="st0"/><line x1="279.1" x2="274.1" y1="69.7" y2="69.7" class="st0"/><line x1="240.4" x2="235.2" y1="69.7" y2="69.7" class="st0"/><line x1="229.2" x2="220.5" y1="69.7" y2="69.7" class="st0"/><line x1="267.1" x2="247.8" y1="69.7" y2="69.7" class="st0"/><line x1="258.8" x2="240.4" y1="81.7" y2="81.7" class="st0"/><line x1="279.1" x2="265.5" y1="81.7" y2="81.7" class="st0"/><line x1="232.4" x2="220.5" y1="81.7" y2="81.7" class="st0"/><line x1="262.7" x2="253.6" y1="117.8" y2="117.8" class="st0"/><line x1="279.1" x2="268.8" y1="117.8" y2="117.8" class="st0"/><line x1="246.6" x2="220.5" y1="117.8" y2="117.8" class="st0"/><line x1="279.1" x2="251.9" y1="129.8" y2="129.8" class="st0"/><line x1="224.9" x2="220.5" y1="129.8" y2="129.8" class="st0"/><line x1="245" x2="232.4" y1="129.8" y2="129.8" class="st0"/><line x1="263.5" x2="243.8" y1="141.8" y2="141.8" class="st0"/><line x1="279.1" x2="270.8" y1="141.8" y2="141.8" class="st0"/><line x1="237.4" x2="220.5" y1="141.8" y2="141.8" class="st0"/><line x1="279.1" x2="251.9" y1="153.9" y2="153.9" class="st0"/><line x1="225.9" x2="220.5" y1="153.9" y2="153.9" class="st0"/><line x1="245" x2="232.4" y1="153.9" y2="153.9" class="st0"/></g></svg>