<svg xmlns="http://www.w3.org/2000/svg" xmlns:xlink="http://www.w3.org/1999/xlink" id="Layer_1" x="0" y="0" version="1.1" viewBox="0 0 145.6 71.1" xml:space="preserve" style="enable-background:new 0 0 145.6 71.1"><style type="text/css">.st12{fill:#00bfc0}.st46{fill:#211f1f}.st47{fill:#99d9f1}.st48{fill:#7bb9e7}.st49{fill:#232121}.st50{fill:#9ad9f1}.st51{fill:#1c1a1a}.st52{fill:#030304}.st53{fill:#242222}.st54{fill:#222020}.st55{fill:#171414}.st56{fill:#171515}.st57{fill:#181616}.st58{fill:#131111}.st59{fill:#f4caaf}.st60{fill:#c49a84}.st61{fill:#181718}.st62{fill:#d1a58d}.st63{fill:#181819}.st64{fill:#171718}.st65{fill:#fdfdfd}.st66{fill:#fefefe}.st67{fill:#1d1a1a}.st68{fill:#1b1818}.st69{fill:#a1e4fe}.st70{fill:#97d6ed}.st71{fill:#96d4eb}.st72{fill:#97d5ed}.st73{fill:#98d7ee}.st74{fill:#98d7ef}.st75{fill:#91cde3}.st76{fill:#af5d50}.st77{fill:#af5c4f}.st78{fill:#ae5c4f}.st79{fill:#fdfcfc}.st80{fill:none;stroke:#00bfc0;stroke-miterlimit:10}</style><g id="y06fNW.tif"><g><path d="M98.4,32.1c0,0,0.1,0,0.1-0.1c0-0.2-0.2-0.4-0.2-0.7c-0.1-0.4-0.4-0.2-0.6-0.2c-1.5-0.1-3,0-4.5,0 c-0.2,0.1-0.4,0-0.6,0.1c-0.2,0-0.3,0-0.5,0c-0.2,0.1-0.4,0-0.5,0.1c-0.1,0-0.3,0-0.4,0c-0.2,0.1-0.4,0-0.5,0.1 c-0.1,0-0.2,0-0.2,0c-0.1,0.1-0.3,0-0.5,0.1c-0.8,0.1-1.5,0.2-2.3,0.4c0,0,0-0.1,0-0.1c1.3-0.3,2.7-0.5,4.1-0.6 c0.2-0.1,0.5,0,0.7-0.1c0.2,0,0.3,0,0.5,0c0.4-0.1,0.7,0,1.1-0.1c1.4-0.1,2.8-0.1,4.2,0c-0.2-0.7-0.4-1.3-0.5-2 c-0.4-2.7-0.5-5.3,1-7.8c0.3-0.5,0.6-1,1-1.4c0.1-0.1,0.1-0.2,0.1-0.4c-0.6-1.9-0.4-3.8,0.2-5.7c0.1-0.3,0.4-0.3,0.6-0.3 c0.8,0,1.6,0.2,2.3,0.5c1.2,0.4,2.2,1.1,3.3,1.8c0.2,0.1,0.3,0.2,0.5,0.1c2.4-0.6,4.9-0.8,7.4-0.6c1,0.1,2.1,0.2,3.1,0.5 c0.3,0.1,0.5,0,0.7-0.1c1.3-0.8,2.6-1.6,4.1-1.9c0.5-0.1,1-0.2,1.5-0.2c0.2,0,0.3,0.1,0.4,0.3c0.3,0.9,0.6,1.9,0.6,2.9 c0,0.3,0,0.5,0,0.8c0,0.5-0.1,1-0.2,1.5c-0.1,0.3,0,0.4,0.2,0.7c1.3,1.4,2.2,3.1,2.4,5.1c0.2,2.1,0.1,4.2-0.4,6.2c0,0,0,0.1,0,0.2 c1.5-0.1,2.9-0.1,4.4,0c0.4,0.1,0.8,0,1.1,0.1c0.2,0,0.3,0,0.5,0c0.2,0.1,0.4,0,0.6,0.1c0.1,0,0.3,0,0.4,0c0.1,0.1,0.3,0,0.5,0.1 c1.1,0.1,2.2,0.2,3.2,0.6c-0.5-0.1-1.1-0.2-1.6-0.3c-0.1-0.1-0.3,0-0.4-0.1c-0.1,0-0.1,0-0.2,0c-0.2-0.1-0.4,0-0.5-0.1 c-0.1,0-0.2,0-0.2,0c-0.2-0.1-0.4,0-0.5-0.1c-0.1,0-0.2,0-0.3,0c-0.2-0.1-0.4,0-0.6-0.1c-0.2,0-0.4,0-0.6,0 c-0.2-0.1-0.4,0-0.6-0.1c-1.6,0-3.2-0.1-4.8,0c-0.1,0-0.3-0.1-0.4,0c-0.3,0.9-0.3,0.9,0.6,0.9c0.1,0,0.2,0,0.3,0 c0.2,0.1,0.4,0,0.5,0.1c1,0,2.1,0.1,3.1,0.3c0.2,0.1,0.4,0,0.5,0.1c0.1,0,0.1,0,0.2,0c0.1,0.1,0.3,0,0.5,0.1c1,0.2,2,0.3,3,0.5 c0.7,0.1,1.4,0.4,2.1,0.5c-0.5,0.1-0.8-0.1-1.2-0.2c-1.5-0.4-2.9-0.6-4.4-0.8c-0.7-0.1-1.4-0.2-2-0.3c-0.2-0.1-0.4,0-0.6-0.1 c-0.1,0-0.3,0-0.4,0c-0.3-0.1-0.6,0-1-0.1c-0.2,0-0.3,0-0.5,0c-0.4,0-0.7-0.1-1.1,0c-0.7,1.8-2.1,2.9-3.7,3.7 c-1.5,0.7-3.2,1.1-4.8,1.3c-0.3,0-0.6,0-0.9,0.2c-0.2,0.2-0.4,0.1-0.7,0.1c-2.2,0-4.4,0-6.6,0c-0.3,0-0.6,0-0.9-0.1 c-0.6-0.2-1.3-0.2-1.9-0.3c-2.1-0.4-4.2-1.1-5.9-2.5c-0.7-0.6-1.4-1.4-1.8-2.3c-0.1-0.2-0.2,0-0.3-0.1 C98.4,32.1,98.4,32.1,98.4,32.1C98.4,32.1,98.4,32.1,98.4,32.1z" class="st46"/><path d="M118.1,40c0.1,0.3,0.1,0.6,0.1,0.9c0,1.8,0,3.6,0,5.4c0,0.4,0,0.8,0.1,1.2c0.1,0.2,0.1,0.4,0.2,0.6 c0.2,0.6,0.5,1.1,1.1,1.3c0.2,0.1,0.3,0.2,0.4,0.3c0.2,0.3,0.2,0.5-0.1,0.8c-0.7,0.3-1.4,0-2.1-0.1c-0.1,0-0.2-0.1-0.3-0.1 c-0.8-0.4-1.4-0.9-1.6-1.8c0-0.2-0.1-0.3,0-0.5c0-1.7,0-3.4,0-5.1c-0.2-0.5-0.1-1.1-0.4-1.5c-0.1-0.1-0.1-0.3-0.3-0.3 c0,2.5,0,5,0,7.5c0,0.1,0,0.2,0,0.2c0.1,0.2,0,0.4,0,0.6c0,0.7,0.2,1.4,0.9,1.8c0.2,0.5,0.2,0.6-0.2,0.9c-0.1,0.1-0.3,0.1-0.5,0.1 c-0.8-0.1-1.5-0.4-2.1-0.9c-0.7-0.6-0.9-1.3-0.9-2.2c0-1.1,0-2.3,0-3.4c0-1.6,0-3.3,0-4.9c0-0.2,0.1-0.6-0.2-0.6 c-0.2,0-0.2,0.4-0.2,0.6c0,1.6,0,3.3,0,4.9c0,1.2,0,2.3,0,3.5c0,0.8-0.3,1.5-0.9,2.1c-0.6,0.5-1.3,0.8-2.1,0.9c-0.1,0-0.2,0-0.4,0 c-0.6-0.2-0.6-0.5-0.3-1.1c0.6-0.4,0.8-1,0.8-1.8c0-1.2,0-2.3,0-3.5c0-1.6,0-3.2-0.1-4.8c-0.3,0.4-0.4,0.9-0.4,1.4 c0,1,0,1.9,0,2.9c0,0.2,0,0.4,0,0.6c0,0.7,0,1.4,0,2.1c-0.1,1.1-0.7,1.8-1.7,2.2c-0.7,0.3-1.5,0.4-2.3,0.3 c-0.2-0.1-0.4-0.2-0.4-0.4c0-0.3,0.2-0.4,0.4-0.6c0.1-0.1,0.2-0.1,0.3-0.1c0.9-0.4,1.3-1.1,1.2-2c0-0.3-0.1-0.7,0.1-1 c0-1.2,0-2.3,0-3.5c-0.2-0.4-0.1-0.7-0.1-1.1c0-0.5,0-1,0.2-1.5c0.2-0.3,0.2-0.7,0.4-1c0.2-0.3,0.3-0.7,0.6-0.9 c0.6-0.5,1.4-0.5,2.1-0.5c1.3-0.1,2.5-0.1,3.8-0.1c0.6,0,1.1,0.1,1.6,0.2C116.4,38,117.5,38.7,118.1,40z" class="st46"/><path d="M119.9,50.3c0.2-0.3,0.2-0.6-0.2-0.7c-0.9-0.4-1.3-1.1-1.5-2c-0.1-0.1-0.1-0.2-0.1-0.3c0-2,0-3.9,0-5.9 c0-0.1,0-0.2,0.1-0.3c0.1,0.2,0.1,0.4,0.1,0.5c0,1.3,0,2.7,0,4c0,0.4,0.2,0.5,0.5,0.6c1.5,0.2,3,0.6,4.4,1.2c1,0.4,2,0.9,2.7,1.8 c0.7,0.9,0.7,1.9-0.1,2.7c-0.8,0.9-1.8,1.4-2.9,1.8c-1.5,0.6-3,0.9-4.6,1.2c-0.1-1-0.1-1.9,0-2.9c0.1-0.8,0.6-1.5,1.4-1.7 C119.8,50.5,119.9,50.5,119.9,50.3z" class="st47"/><path d="M106.4,46.4c0,0.5,0,1,0,1.5c-0.1,0.7-0.5,1.2-1.1,1.6c-0.1,0.1-0.3,0.1-0.4,0.2c-0.2,0.1-0.4,0.2-0.4,0.5 c0,0.2,0.2,0.3,0.3,0.4c1,0.3,1.6,1.1,1.6,2.2c0,0.6,0,1.3,0,1.9c0,0.2,0,0.3-0.1,0.5c-2.3-0.4-4.6-0.9-6.5-2.4 c-0.6-0.5-1.2-1-1.2-1.9c0-0.8,0.4-1.4,0.9-1.8c1.3-1.2,3-1.7,4.7-2.1C105,46.6,105.7,46.4,106.4,46.4z" class="st47"/><path d="M106.3,42.9c-0.5,0.2-1,0.2-1.5,0.2c-0.3,0-0.5,0-0.8,0c-2-0.1-3.4-1-4.4-2.7c-0.3-0.5-0.6-1.1-1-1.6 c-0.4-0.5-0.8-0.9-1.4-1.1c-0.3-0.1-0.5-0.3-0.8-0.5c-0.1-0.1-0.3-0.3-0.2-0.5c0.1-0.2,0.3-0.3,0.5-0.3c0.5,0,1,0,1.4,0.1 c1,0.4,1.7,1,2.3,1.9c0.3,0.5,0.7,1,1.1,1.4c1.3,1.1,2.8,1.1,4.4,0.6c0.2-0.1,0.4-0.1,0.5-0.2c0.1,0.1,0,0.3,0,0.4 c-0.3,0.2-0.3,0.2,0,0.7C106.3,41.8,106.4,42.4,106.3,42.9z" class="st46"/><path d="M119.9,50.3c0,0.2-0.2,0.2-0.3,0.3c-0.9,0.4-1.3,1.1-1.3,2.1c0,0.6,0,1.3,0,1.9c0,0.2,0,0.3-0.1,0.4 c-0.8,0.1-1.5,0.3-2.3,0.3c-0.1-0.1-0.1-0.3-0.1-0.4c0-0.8,0-1.6,0-2.4c0-0.2,0-0.3,0.1-0.4c0.3-0.2,0.3-0.5,0.2-0.8 c0.3-0.6,0.8-1,1.5-1.2c0.5,0.2,1.1,0.3,1.6,0.3C119.4,50.5,119.7,50.5,119.9,50.3z" class="st48"/><path d="M106.4,55c0-0.8,0-1.5,0-2.3c0-1-0.5-1.8-1.4-2.2c0,0-0.1-0.1-0.1-0.1c0.8,0.1,1.5-0.1,2.3-0.3 c0.7,0.2,1.2,0.5,1.4,1.2c-0.3,0.5-0.2,0.7,0.3,0.9c0.1,1,0,1.9,0,2.9c0,0.1,0,0.2-0.1,0.3C108,55.3,107.2,55.2,106.4,55z" class="st48"/><path d="M109.2,52.2c0.7-0.2,1.4-0.4,2-0.9c0.2,0.1,0.3,0.2,0.4,0.4c0.3,0.6,0.6,1.2,0.5,1.9c0,0.4,0.1,0.9,0.1,1.3 c0,0.2,0,0.4-0.1,0.5c-0.9,0-1.7,0-2.6-0.1c-0.1-0.1-0.1-0.3-0.1-0.5c0-0.8,0.1-1.6-0.2-2.4C109.2,52.4,109.2,52.3,109.2,52.2z" class="st48"/><path d="M113.6,51.4c0.6,0.4,1.3,0.7,2,0.8c-0.1,1-0.2,2-0.3,3.1c0,0.1,0,0.1-0.1,0.1c-0.8,0-1.6,0.1-2.5,0.1 c-0.2-0.4-0.1-0.9-0.1-1.4c0-0.8,0.1-1.7,0.6-2.4C113.3,51.6,113.4,51.5,113.6,51.4z" class="st48"/><path d="M113.6,51.4c-0.9,1.2-0.9,2.7-0.8,4.2c-0.2,0-0.5,0-0.7,0c-0.1-1,0-2.1-0.3-3.1c-0.1-0.4-0.4-0.7-0.5-1 c0.6-0.6,0.9-1.4,0.9-2.3c0-1.1,0-2.2,0-3.2c0.2-0.2,0.4-0.1,0.6,0c0,1.1,0,2.2,0,3.4C112.6,50.1,112.9,50.8,113.6,51.4z" class="st47"/><path d="M118.1,40c-0.2,0.1-0.1-0.1-0.2-0.1c-0.8-1.4-2.1-1.9-3.6-2.1c-1.1-0.1-2.2-0.1-3.3-0.1c-1,0-2.1,0-3.1,0.3 c-0.2,0.1-0.4,0.1-0.6,0.2c0.2-0.4,0.5-0.6,0.9-0.8c0.3-0.2,0.6,0,0.9,0c2.4,0,4.8,0,7.2,0c0,0,0.1,0,0.1,0 C117.3,38.1,117.9,38.9,118.1,40z"/><path d="M115.2,55.5c0-0.9-0.1-1.8,0.2-2.7c0.1-0.2,0.1-0.4,0.2-0.6c0.1,0,0.3-0.1,0.4-0.1c0,1.1,0,2.2,0,3.2 C115.7,55.4,115.4,55.4,115.2,55.5z" class="st47"/><path d="M109.2,52.2c0.4,1,0.2,2.1,0.3,3.2c-0.2,0-0.5,0-0.7,0c0-0.9,0-1.8,0-2.7c0-0.1-0.1-0.3,0.1-0.4 C109,52.2,109.1,52.2,109.2,52.2z" class="st47"/><path d="M97.5,32.2c-0.6,0.2-1.2,0.1-1.8,0.2c-2.6,0.2-5.1,0.6-7.6,1.3c-0.1,0-0.3,0.2-0.5,0c0.5-0.3,1-0.3,1.6-0.4 c2.7-0.6,5.4-1,8.2-1.1c0,0,0.1,0,0.1,0C97.6,32.2,97.5,32.2,97.5,32.2z" class="st49"/><path d="M96.7,37.7c0.1,0.5,0.3,0.9,0.4,1.4c0.1,0.3-0.1,0.5-0.4,0.5c-0.3,0-0.5-0.2-0.4-0.5 C96.4,38.6,96.5,38.1,96.7,37.7C96.7,37.7,96.7,37.7,96.7,37.7z" class="st50"/><path d="M118.3,41.2c0,1.9,0,3.8,0,5.7c0,0.2,0,0.5,0,0.7c-0.1-0.1-0.1-0.2-0.1-0.3c0-2,0-4,0-6.1 c0-0.1,0-0.2,0.1-0.3C118.3,41,118.3,41.1,118.3,41.2z" class="st51"/><path d="M106.3,40.7c0-0.1,0.1-0.3,0.1-0.4c0,0,0,0,0.1,0c0.1,0.9-0.1,1.8-0.1,2.7c-0.1,0-0.1,0-0.2,0 c0-0.6,0-1.1,0-1.7C106.1,41,106.2,40.8,106.3,40.7z" class="st52"/><path d="M131.9,31c-0.4,0-0.8,0.1-1.1-0.1C131.2,31,131.5,30.9,131.9,31z" class="st53"/><path d="M125.8,32.2c0.4-0.2,0.7-0.1,1.1,0C126.6,32.2,126.2,32.2,125.8,32.2z" class="st54"/><path d="M97.5,32.2c0,0,0.1-0.1,0.1-0.1c0.3,0,0.6,0,0.9,0c0,0,0,0.1,0,0.1c-0.2,0.1-0.5,0-0.7,0.1 C97.6,32.2,97.6,32.2,97.5,32.2z" class="st55"/><path d="M93.9,31c-0.3,0.1-0.7,0-1.1,0.1C93.2,30.9,93.5,31,93.9,31z" class="st53"/><path d="M97.7,32.2c0.2-0.1,0.5,0,0.7-0.1c0.1,0,0.3,0,0.3,0.1C98.4,32.2,98.1,32.3,97.7,32.2z" class="st49"/><path d="M127.4,32.2c0.3,0,0.7-0.1,1,0.1C128.1,32.3,127.7,32.4,127.4,32.2z" class="st54"/><path d="M103.9,43.1c0.3-0.1,0.5-0.1,0.8,0C104.5,43.1,104.2,43.1,103.9,43.1z" class="st56"/><path d="M124.5,17.3c-0.1-0.3-0.1-0.5,0-0.8C124.5,16.8,124.5,17.1,124.5,17.3z" class="st57"/><path d="M92.4,31.1c-0.2,0.1-0.5,0-0.7,0.1C91.9,31,92.1,31,92.4,31.1z" class="st53"/><path d="M131.5,31.1c0.2,0,0.4-0.1,0.6,0.1C131.9,31.2,131.7,31.2,131.5,31.1z" class="st53"/><path d="M92.5,31.2c0.2-0.1,0.4-0.1,0.6-0.1C93,31.2,92.8,31.2,92.5,31.2z" class="st53"/><path d="M133,31.1c-0.2,0-0.4,0.1-0.6-0.1C132.6,31,132.8,31,133,31.1z" class="st53"/><path d="M128.8,32.3c0.2,0,0.4-0.1,0.6,0.1C129.2,32.4,129,32.4,128.8,32.3z" class="st54"/><path d="M91.5,31.3c0.2-0.1,0.4-0.1,0.5-0.1C91.9,31.3,91.7,31.3,91.5,31.3z" class="st53"/><path d="M132.7,31.2c0.2,0,0.4-0.1,0.6,0.1C133.1,31.3,132.9,31.3,132.7,31.2z" class="st53"/><path d="M90.6,31.4c0.2-0.1,0.4-0.1,0.5-0.1C90.9,31.4,90.8,31.4,90.6,31.4z" class="st53"/><path d="M127.7,32.1c-0.2,0-0.4,0.1-0.5-0.1C127.4,32.1,127.6,32.1,127.7,32.1z" class="st54"/><path d="M133.6,31.3c0.2,0,0.4-0.1,0.5,0.1C133.9,31.4,133.7,31.4,133.6,31.3z" class="st53"/><path d="M134.3,31.4c0.2,0,0.4-0.1,0.5,0.1C134.7,31.5,134.5,31.5,134.3,31.4z" class="st53"/><path d="M131.4,32.5c-0.2,0-0.4,0.1-0.5-0.1C131,32.4,131.2,32.4,131.4,32.5z" class="st54"/><path d="M135,31.5c0.1,0,0.3-0.1,0.4,0.1C135.3,31.6,135.1,31.6,135,31.5z" class="st53"/><path d="M132,32.6c-0.2,0-0.3,0.1-0.5-0.1C131.7,32.5,131.9,32.5,132,32.6z" class="st54"/><path d="M89.9,31.5c0.1-0.1,0.3-0.1,0.5-0.1C90.2,31.5,90.1,31.5,89.9,31.5z" class="st53"/><path d="M126.3,31.1c0.1-0.2,0.3-0.1,0.4,0C126.5,31.1,126.4,31.1,126.3,31.1z" class="st58"/><path d="M133.9,31.2c-0.2,0-0.3,0.1-0.5-0.1C133.6,31.1,133.7,31.1,133.9,31.2z" class="st53"/><path d="M123.3,29.2c0.1,1.2-0.1,2.3-0.5,3.5c-0.8,1.9-2.3,2.8-4.2,3.3c-1.2,0.3-2.5,0.3-3.8,0.4c-0.7,0.1-1.3,0-2,0 c-0.3,0-0.6,0-0.9,0c-0.5,0-0.9,0-1.4,0c-1.7-0.1-3.5-0.2-5.2-0.8c-1.8-0.6-3.3-1.7-3.9-3.6c-0.3-1-0.5-1.9-0.3-3 c0.3-1.7,1.3-2.9,2.8-3.6c0.5-0.2,1-0.4,1.5-0.4c1.3-0.1,2.5,0,3.8,0.1c1.6,0.2,3.3,0.2,4.9,0.1c1.3-0.1,2.5-0.2,3.8-0.3 c2.7,0,4.5,1.2,5.3,3.9C123.2,28.9,123.2,29.1,123.3,29.2z" class="st59"/><path d="M123.3,29.2c-0.3-0.9-0.7-1.8-1.3-2.6c-0.8-0.9-1.8-1.4-2.9-1.5c-1.7-0.2-3.4,0.1-5.1,0.2 c-1.2,0.1-2.3,0.1-3.5,0c-1.6-0.1-3.3-0.3-4.9-0.2c-2,0.1-3.6,1.9-4.1,3.7c0,0.1,0,0.2-0.1,0.2c0.1-1.1,0.6-2,1.3-2.8 c0.9-1.1,2.2-1.6,3.6-1.6c1.5-0.1,2.9,0.1,4.4,0.2c0.3,0,0.5,0,0.8,0c0.6,0.1,1.2,0.1,1.8,0c1.3-0.1,2.5-0.2,3.8-0.3 c0.5-0.1,1.1-0.1,1.6,0c0.6,0.1,1.1,0.2,1.7,0.3C121.7,25.5,123.3,27.6,123.3,29.2z" class="st60"/><path d="M112.8,36.3c0.7,0,1.3,0,2,0C114.1,36.5,113.5,36.4,112.8,36.3z" class="st61"/><path d="M113.1,24.8c-0.6,0.1-1.2,0.1-1.8,0C111.9,24.8,112.5,24.8,113.1,24.8z" class="st62"/><path d="M118.4,24.6c-0.5,0-1.1,0-1.6,0C117.3,24.4,117.9,24.4,118.4,24.6z" class="st63"/><path d="M110.6,36.3c0.5,0,0.9,0,1.4,0C111.5,36.4,111,36.5,110.6,36.3z" class="st64"/><path d="M108.6,51.3c-0.4-0.5-0.9-0.9-1.4-1.2c1.2-0.6,1.7-1.6,1.6-2.9c0-0.4,0-0.8,0-1.2c0.2-0.2,0.4-0.2,0.7-0.1 c0,1.4,0,2.8,0,4.1C109.5,50.7,109.1,51,108.6,51.3z" class="st47"/><path d="M117.6,50.1c-0.6,0.3-1.1,0.7-1.5,1.2c-0.7-0.4-0.9-1.1-0.9-1.8c0-1,0-2,0-3c0-0.2,0-0.4,0.1-0.5 c0.2-0.2,0.5-0.2,0.7,0c0.1,0.7,0,1.4,0,2.1C116.1,49.1,116.7,49.7,117.6,50.1z" class="st47"/><path d="M115.9,45.9c-0.2,0-0.4,0-0.7,0c-0.1,0-0.1,0-0.1-0.1c0-1.6,0-3.2,0-4.8c0-0.1-0.1-0.2,0.1-0.3 c0.4,0.4,0.5,0.9,0.6,1.4c0,0.2,0.1,0.4,0.1,0.7C116,43.8,116.1,44.9,115.9,45.9z" class="st65"/><path d="M112.6,45.9c-0.2,0-0.4,0-0.6,0c0-1.8,0-3.5,0-5.3c0-0.2,0-0.5,0.3-0.5c0.3,0,0.3,0.2,0.3,0.5 c0,1.3,0,2.7,0,4C112.7,45,112.6,45.4,112.6,45.9z" class="st66"/><path d="M109.5,45.9c-0.2,0-0.5,0.1-0.7,0.1c0-1.2,0-2.5,0-3.7c0-0.7,0.3-1.2,0.7-1.6 C109.5,42.5,109.5,44.2,109.5,45.9z" class="st66"/><path d="M115.2,40.8c-0.1,0.7,0,1.3,0,2c0,1.1,0,2.1,0,3.2c0,1,0.1,2,0,3c-0.1-0.1-0.1-0.3-0.1-0.4 c0-2.4,0-4.8,0-7.3C115.1,41.1,115,40.9,115.2,40.8z" class="st67"/><path d="M115.9,45.9c0-1.1,0-2.1,0-3.2c0.1,0.1,0.1,0.2,0.1,0.3c0,1.6,0,3.1,0,4.7c0,0.1,0,0.2-0.1,0.3 C116,47.4,115.9,46.7,115.9,45.9z" class="st68"/><path d="M115.2,48.9c0-1,0-2,0-3c0,0,0,0,0.1,0c0,1,0,2.1,0,3.1c0,0.1,0.1,0.3-0.1,0.4 C115.2,49.3,115.2,49.1,115.2,48.9z" class="st69"/><path d="M104.8,41.5c-0.2,0-0.4,0-0.4-0.3c0-0.2,0.2-0.3,0.4-0.3c0.2,0,0.4,0,0.4,0.3 C105.2,41.5,105,41.5,104.8,41.5z" class="st70"/><path d="M101.1,39.9c0,0.2-0.1,0.3-0.2,0.3c-0.3,0-0.4-0.2-0.4-0.5c0-0.1,0.1-0.3,0.2-0.2 C101,39.5,101.1,39.7,101.1,39.9z" class="st71"/><path d="M101.9,41.1c-0.2,0-0.4-0.1-0.4-0.3c0-0.2,0.1-0.3,0.2-0.3c0.2,0,0.4,0.1,0.5,0.4 C102.3,41,102.2,41.1,101.9,41.1z" class="st72"/><path d="M103.7,41.3c-0.1,0.2-0.2,0.3-0.4,0.3c-0.2,0-0.4-0.1-0.4-0.3c0-0.2,0.2-0.2,0.3-0.2 C103.4,41,103.6,41,103.7,41.3z" class="st73"/><path d="M100.2,38.8c0,0.2-0.1,0.2-0.2,0.2c-0.2,0-0.3-0.2-0.4-0.4c0-0.1,0.1-0.3,0.2-0.2 C100.1,38.4,100.2,38.6,100.2,38.8z" class="st71"/><path d="M99,37.5c0.2,0,0.3,0.1,0.3,0.3c0,0.1-0.1,0.2-0.2,0.2c-0.2,0-0.3-0.1-0.4-0.3C98.8,37.6,98.9,37.5,99,37.5z" class="st74"/><path d="M106.3,40.7c0,0.2,0,0.3-0.1,0.5c-0.2,0-0.4,0-0.4-0.3C105.9,40.7,106.1,40.6,106.3,40.7z" class="st71"/><path d="M98.5,37.2c0,0.1-0.1,0.2-0.2,0.2c-0.1,0-0.3-0.1-0.3-0.3c0-0.1,0.1-0.2,0.2-0.1C98.4,37,98.5,37,98.5,37.2z" class="st75"/><path d="M108.5,30.3c-0.1,0.7-0.3,1.8-1.2,2.5c-0.9,0.6-1.8,0.5-2.5-0.4c-1.1-1.4-1.1-3.7,0-5.1c0.9-1.1,2.1-1,3,0.1 C108.3,28.1,108.6,28.9,108.5,30.3z" class="st66"/><path d="M120.9,29.8c0,1-0.3,2-1,2.7c-0.8,0.9-2.1,0.8-2.8-0.2c-1-1.4-1.1-3.5-0.1-4.9c0.8-1.2,2.3-1.2,3.1,0 C120.7,28.2,120.9,29,120.9,29.8z" class="st66"/><path d="M112.2,35.2c-0.5,0-1.1-0.4-1.3-0.8c0-0.1-0.1-0.2,0-0.3c0.1-0.1,0.2,0,0.3,0.1c0.6,0.9,1.3,0.9,1.9,0 c0.1-0.1,0.1-0.2,0.3-0.1c0.2,0.1,0.1,0.2,0.1,0.3C113.4,34.8,112.8,35.2,112.2,35.2z" class="st76"/><path d="M112.8,32.8c0,0.3-0.2,0.5-0.6,0.5c-0.3,0-0.6-0.2-0.6-0.6c0-0.3,0.3-0.6,0.6-0.6 C112.6,32.2,112.8,32.5,112.8,32.8z" class="st77"/><path d="M108,30.3c0,0.3-0.2,0.8-0.5,1.2c-0.5,0.8-1.5,0.8-2.1,0.1c-0.7-0.9-0.7-2.5,0-3.3c0.6-0.7,1.5-0.7,2.1,0 C107.9,28.8,108,29.4,108,30.3z" class="st78"/><path d="M119.9,29.9c0,0.6-0.1,1.1-0.5,1.6c-0.5,0.7-1.4,0.8-2,0.1c-0.8-0.9-0.8-2.7,0-3.5c0.6-0.6,1.4-0.6,1.9,0.1 C119.7,28.7,119.9,29.3,119.9,29.9z" class="st78"/><path d="M105.4,28.9c0-0.3,0.1-0.4,0.4-0.4c0.3,0,0.4,0.1,0.4,0.4c0,0.3-0.2,0.5-0.4,0.5 C105.5,29.3,105.4,29.2,105.4,28.9z" class="st79"/><path d="M118.3,28.9c0,0.2-0.1,0.3-0.4,0.3c-0.2,0-0.4-0.1-0.4-0.4c0-0.2,0.2-0.4,0.4-0.4 C118.1,28.5,118.3,28.7,118.3,28.9z" class="st79"/></g></g><g><g><path d="M49.7,45.6c-0.4,1-0.9,2-1.7,2.7c-0.7,0.8-1.6,1.3-2.6,1.7c-1,0.4-2.1,0.6-3.3,0.6c-1.9,0-3.5-0.5-4.9-1.4 c-1.3-0.9-2.2-2.2-2.6-3.8h2.7c0.3,0.6,0.6,1.1,1,1.4c0.4,0.4,0.8,0.6,1.3,0.8c0.5,0.2,0.9,0.3,1.3,0.4c0.4,0.1,0.8,0.1,1.1,0.1 c1,0,1.9-0.2,2.6-0.5c0.7-0.4,1.3-0.8,1.7-1.4c0.4-0.6,0.8-1.2,1-1.9c0.2-0.7,0.3-1.4,0.3-2.2v-1.7c-0.6,0.8-1.3,1.4-2.3,2 c-0.9,0.5-2,0.8-3.1,0.8c-1.2,0-2.2-0.2-3.2-0.6c-1-0.4-1.8-1-2.5-1.8c-0.7-0.8-1.3-1.6-1.7-2.7c-0.4-1-0.6-2.1-0.6-3.2 c0-1.2,0.2-2.2,0.6-3.3c0.4-1,1-1.9,1.7-2.7c0.7-0.8,1.5-1.3,2.5-1.8s2-0.7,3.2-0.7c1.2,0,2.2,0.3,3.2,0.9c1,0.6,1.7,1.3,2.3,2.1 v-2.5h2.5v15.2C50.3,43.3,50.1,44.5,49.7,45.6z M47.3,32.6c-0.3-0.7-0.7-1.4-1.2-1.9c-0.5-0.5-1.1-1-1.7-1.3 c-0.6-0.3-1.3-0.5-2.1-0.5c-0.7,0-1.4,0.2-2.1,0.5c-0.7,0.3-1.2,0.7-1.7,1.3c-0.5,0.5-0.8,1.2-1.1,1.9c-0.3,0.7-0.4,1.5-0.4,2.3 c0,0.8,0.1,1.6,0.4,2.3c0.3,0.7,0.7,1.3,1.1,1.9c0.5,0.5,1,1,1.7,1.3c0.7,0.3,1.4,0.5,2.1,0.5c0.7,0,1.4-0.2,2.1-0.5 c0.6-0.3,1.2-0.7,1.7-1.3c0.5-0.5,0.9-1.2,1.2-1.9c0.3-0.7,0.4-1.5,0.4-2.3C47.7,34.1,47.6,33.3,47.3,32.6z"/><path d="M63.3,27.2c1,0.4,1.8,1,2.5,1.8c0.7,0.8,1.3,1.7,1.7,2.7c0.4,1,0.6,2.1,0.6,3.3c0,1.2-0.2,2.2-0.6,3.2 c-0.4,1-1,1.9-1.7,2.6c-0.7,0.8-1.6,1.3-2.5,1.8c-1,0.4-2,0.6-3.2,0.6c-1.1,0-2.2-0.2-3.1-0.6c-1-0.4-1.8-1-2.5-1.8 c-0.7-0.8-1.3-1.6-1.7-2.6c-0.4-1-0.6-2.1-0.6-3.2c0-1.2,0.2-2.2,0.6-3.3c0.4-1,1-1.9,1.7-2.7c0.7-0.8,1.6-1.4,2.5-1.8 s2-0.7,3.1-0.7C61.3,26.5,62.4,26.7,63.3,27.2z M62.3,40.3c0.6-0.3,1.2-0.7,1.7-1.3c0.5-0.5,0.9-1.1,1.2-1.9 c0.3-0.7,0.4-1.5,0.4-2.3c0-0.8-0.1-1.6-0.4-2.3c-0.3-0.7-0.7-1.4-1.2-1.9c-0.5-0.5-1.1-1-1.7-1.3c-0.6-0.3-1.3-0.5-2.1-0.5 c-0.7,0-1.4,0.2-2.1,0.5c-0.6,0.3-1.2,0.7-1.7,1.3c-0.5,0.5-0.9,1.2-1.1,1.9c-0.3,0.7-0.4,1.5-0.4,2.3c0,0.8,0.1,1.6,0.4,2.3 c0.3,0.7,0.7,1.3,1.1,1.9c0.5,0.5,1,0.9,1.7,1.3c0.6,0.3,1.3,0.5,2.1,0.5C60.9,40.8,61.6,40.6,62.3,40.3z"/></g><path d="M10.7,46.8c-0.4,0-0.9-0.1-1.2-0.3c-0.9-0.5-1.4-1.3-1.4-2.3V33.6c0-1.5,1.2-2.6,2.6-2.6s2.6,1.2,2.6,2.6v5.6l8.4-5.6 L9.3,25.3c-1.2-0.8-1.5-2.4-0.7-3.6c0.8-1.2,2.4-1.5,3.6-0.7L28,31.4c0.7,0.5,1.2,1.3,1.2,2.2c0,0.9-0.4,1.7-1.2,2.2L12.2,46.3 C11.7,46.6,11.2,46.8,10.7,46.8z"/><g><path d="M68.6,23.7c-0.1,0.2-0.2,0.3-0.3,0.4c-0.1,0.1-0.3,0.2-0.4,0.3c-0.2,0.1-0.3,0.1-0.5,0.1c-0.2,0-0.4,0-0.5-0.1 c-0.2-0.1-0.3-0.2-0.4-0.3c-0.1-0.1-0.2-0.3-0.3-0.4c-0.1-0.2-0.1-0.3-0.1-0.5c0-0.2,0-0.4,0.1-0.5c0.1-0.2,0.2-0.3,0.3-0.4 c0.1-0.1,0.3-0.2,0.4-0.3c0.2-0.1,0.3-0.1,0.5-0.1c0.2,0,0.4,0,0.5,0.1c0.2,0.1,0.3,0.2,0.4,0.3c0.1,0.1,0.2,0.3,0.3,0.4 c0.1,0.2,0.1,0.3,0.1,0.5C68.7,23.3,68.7,23.5,68.6,23.7z M68.4,22.7c-0.1-0.1-0.1-0.2-0.2-0.3c-0.1-0.1-0.2-0.2-0.3-0.2 c-0.1-0.1-0.3-0.1-0.4-0.1s-0.3,0-0.4,0.1c-0.1,0.1-0.2,0.1-0.3,0.2c-0.1,0.1-0.2,0.2-0.2,0.3c-0.1,0.1-0.1,0.3-0.1,0.4 c0,0.2,0,0.3,0.1,0.4s0.1,0.2,0.2,0.3c0.1,0.1,0.2,0.2,0.3,0.2c0.1,0.1,0.3,0.1,0.4,0.1s0.3,0,0.4-0.1c0.1-0.1,0.2-0.1,0.3-0.2 c0.1-0.1,0.2-0.2,0.2-0.3c0.1-0.1,0.1-0.3,0.1-0.4C68.5,23,68.4,22.8,68.4,22.7z M67.8,23.8l-0.3-0.5h-0.4v0.5h-0.3v-1.5h0.7 c0.2,0,0.3,0,0.4,0.1c0.1,0.1,0.1,0.2,0.1,0.4c0,0.1,0,0.2-0.1,0.3c-0.1,0.1-0.1,0.1-0.2,0.2l0.3,0.5H67.8z M67.6,23.1 c0.1,0,0.1,0,0.2,0c0,0,0.1-0.1,0.1-0.2c0-0.1,0-0.1-0.1-0.2c0,0-0.1-0.1-0.2-0.1h-0.4v0.5H67.6z"/></g></g><g><g><line x1="73.5" x2="82.5" y1="35" y2="35" class="st80"/><g><polygon points="78.7 39.1 78 38.4 81.6 35 78 31.6 78.7 30.9 83.1 35" class="st12"/></g></g></g></svg>