<svg xmlns="http://www.w3.org/2000/svg" xmlns:xlink="http://www.w3.org/1999/xlink" style="enable-background:new 0 0 40 40" id="Layer_1" x="0" y="0" version="1.1" viewBox="0 0 40 40" xml:space="preserve"><style type="text/css"/><g id="UfeF3N.tif"><g><path d="M29.4,18.7c0-5,0-9.9,0-14.9c-8.2,0-16.4,0-24.5,0c0,10.9,0,21.8,0,32.7c8.2,0,16.3,0,24.5,0c0-0.1,0-0.1,0-0.2 c0-1.2,0-2.4,0-3.6c0-0.1,0-0.2,0.1-0.3c0.9-1.5,1.7-3.1,2.6-4.6c0,0,0-0.1,0.1-0.1c0,0.1,0,0.1,0,0.2c0,2.9,0,5.8,0,8.8 c0,0.9-0.3,1.6-1,2.1c-0.4,0.3-0.9,0.5-1.5,0.5c-0.1,0-0.2,0-0.2,0c-8.2,0-16.4,0-24.6,0c-0.6,0-1.2-0.1-1.7-0.5 c-0.7-0.5-0.9-1.2-1-2c0-0.1,0-0.2,0-0.3c0-10.8,0-21.7,0-32.5c0-0.5,0.1-1,0.3-1.4C2.9,1.6,3.7,1.1,4.7,1c0.1,0,0.1,0,0.2,0 C13,1,21.2,1,29.4,1c0.8,0,1.5,0.2,2,0.8c0.5,0.5,0.7,1.2,0.7,1.9c0,1.2,0,2.3,0,3.5c0,2.1,0,4.3,0,6.4c0,0.1,0,0.2-0.1,0.3 c-0.9,1.5-1.7,3.1-2.6,4.6C29.5,18.6,29.5,18.6,29.4,18.7C29.4,18.7,29.4,18.7,29.4,18.7z"/><path d="M37.3,15.3c-0.2,0.4-0.4,0.7-0.6,1c-3,5.2-6,10.4-9,15.6c0,0.1-0.1,0.2-0.2,0.2c-0.8,0.5-1.7,1-2.5,1.5c0,0-0.1,0-0.1,0.1 c0-0.1,0-0.1,0-0.2c0-1,0-1.9,0-2.9c0-0.1,0-0.2,0.1-0.3c3.2-5.5,6.4-11,9.6-16.5c0,0,0.1-0.1,0.1-0.1 C35.4,14.2,36.3,14.7,37.3,15.3z"/><path d="M7.2,14.6c0-0.6,0-1.3,0-1.9c6.6,0,13.2,0,19.9,0c0,0.6,0,1.3,0,1.9C20.5,14.6,13.8,14.6,7.2,14.6z"/><path d="M27.1,21.7c0,0.6,0,1.3,0,1.9c-6.6,0-13.2,0-19.9,0c0-0.6,0-1.3,0-1.9C13.8,21.7,20.4,21.7,27.1,21.7z"/><path d="M7.2,10c0-0.6,0-1.3,0-1.9c5.1,0,10.1,0,15.2,0c0,0.6,0,1.3,0,1.9C17.3,10,12.3,10,7.2,10z"/><path d="M7.2,18.9c0-0.6,0-1.3,0-1.9c5.1,0,10.1,0,15.2,0c0,0.6,0,1.3,0,1.9C17.3,18.9,12.3,18.9,7.2,18.9z"/><path d="M7.2,27.9c0-0.6,0-1.3,0-1.9c5.1,0,10.1,0,15.2,0c0,0.6,0,1.3,0,1.9C17.3,27.9,12.3,27.9,7.2,27.9z"/><path d="M10.9,32.5c0,1-0.9,1.9-1.9,1.9c-1.1,0-1.9-0.9-1.9-1.9c0-1,0.9-1.9,1.9-1.9C10.1,30.6,10.9,31.4,10.9,32.5z"/><path d="M16.9,32.5c0,1-0.8,1.9-1.9,1.9c-1,0-1.9-0.8-1.9-1.9c0-1,0.8-1.9,1.9-1.9C16.1,30.6,16.9,31.4,16.9,32.5z"/><path d="M35.3,12.7c0.4-0.6,0.7-1.2,1.1-1.8c0.9,0.5,1.8,1,2.7,1.6c-0.4,0.6-0.7,1.2-1.1,1.8C37.1,13.7,36.2,13.2,35.3,12.7z"/></g></g></svg>