<svg xmlns="http://www.w3.org/2000/svg" xmlns:xlink="http://www.w3.org/1999/xlink" id="Layer_1" x="0" y="0" version="1.1" viewBox="0 0 40 40" xml:space="preserve" style="enable-background:new 0 0 40 40"><style type="text/css">.st4{fill:#fff}</style><g id="bx91HX.tif"><g><path d="M17.2,22c2.7-1.1,5.2-1.9,7.7-3.1c1.6-0.7,2.4-2.2,2.5-3.9c0-0.7-0.2-1.7-0.7-2.2c-1.7-2.1-1.8-4.6,0.1-6.4 c1.7-1.6,4.4-1.6,6.1,0c1.8,1.8,1.7,4.3,0,6.3c-0.5,0.5-0.9,1.3-0.9,2.1c-0.4,4.3-2.6,7.2-6.6,8.8c-1.5,0.6-3.1,1.1-4.6,1.7 c-0.6,0.2-1.3,0.5-1.9,0.8c-1.9,1-2.1,2.5-0.7,4.1c1.4,1.5,1.7,3.5,0.8,5.2C18,37,16.1,38,14.3,37.7c-2.1-0.4-3.6-1.7-3.7-3.8 c0-1.2,0.8-2.4,1.2-3.7c0.3-0.7,0.9-1.5,0.9-2.2c0.1-5.3,0.1-10.6,0-15.9c0-0.8-0.5-1.7-1-2.3c-1.7-2-1.7-4.5,0.1-6.2 c1.6-1.6,4.3-1.6,6-0.1c1.8,1.6,1.9,4.2,0.4,6.3c-0.6,0.8-1,1.9-1,2.8C17.1,15.5,17.2,18.6,17.2,22z M15,31.1 c-1.2,0-2.3,1-2.2,2.2c0,1.3,0.8,2.1,2.1,2.2c1.2,0.1,2.3-0.9,2.3-2.1C17.2,32.2,16.2,31.1,15,31.1z M17.2,6.7 c0-1.2-1.1-2.2-2.3-2.2c-1.2,0-2.2,1.1-2.1,2.3c0.1,1.3,0.9,2,2.2,2.1C16.2,8.9,17.2,7.9,17.2,6.7z M29.8,7.4 c-1.2,0-2.3,1.1-2.2,2.3c0.1,1.3,0.8,2.1,2.1,2.1c1.2,0.1,2.3-0.9,2.3-2.2C32,8.5,31,7.4,29.8,7.4z"/><path d="M15,31.1c1.2,0,2.2,1.1,2.2,2.3c0,1.2-1.1,2.2-2.3,2.1c-1.3-0.1-2-0.9-2.1-2.2C12.7,32.1,13.8,31.1,15,31.1z" class="st4"/><path d="M17.2,6.7c0,1.2-1,2.3-2.2,2.2c-1.3-0.1-2.1-0.8-2.2-2.1c-0.1-1.2,0.9-2.3,2.1-2.3 C16.1,4.4,17.2,5.5,17.2,6.7z" class="st4"/><path d="M29.8,7.4C31,7.4,32,8.5,32,9.7c0,1.2-1.1,2.2-2.3,2.2c-1.3-0.1-2-0.9-2.1-2.1C27.5,8.5,28.5,7.4,29.8,7.4z" class="st4"/></g></g></svg>