<svg xmlns="http://www.w3.org/2000/svg" xmlns:xlink="http://www.w3.org/1999/xlink" id="Layer_1" x="0" y="0" version="1.1" viewBox="0 0 75.1 71.1" xml:space="preserve" style="enable-background:new 0 0 75.1 71.1"><style type="text/css">.st4{fill:#fff}.st115,.st116{stroke:#1c425c;stroke-width:.3211;stroke-miterlimit:10}.st115{fill:#de572f;stroke-linejoin:round}.st116{fill:#439f83}</style><g id="csNr1N.tif"><g><path d="M19.5,64.6c-1.5-1.1-3.3-2-4.6-3.4c-1.9-2-1.6-4.4,0.3-6.3c4.4-4.5,8.9-9,13.4-13.4c0.4-0.4,1-0.8,1.6-0.8 c1.5,0,2.6-0.7,3.6-1.7c3.6-3.6,7.2-7.3,10.8-10.9c3.6-3.6,3-6.4-1.7-8.5c-1.9-0.9-3.6-2.4-5.2-3.8c-0.4-0.3-0.4-1.8,0-2.2 c1.7-1.9,3.6-3.8,5.5-5.5c1.1-1,3.4-0.6,4.1,1c2.2,4.4,5.9,7.2,9.5,10.1c3.2,2.6,6.3,5.4,7.4,9.6c0.4,1.3,0.5,2.7,0.8,4.1 c0,0.5,0,1,0,1.4c-0.1,0.7-0.2,1.3-0.3,2c-0.5,2.8-1,5.5-1.5,8.5c-2.1-1.5-3.7-3-3.9-5.3c-0.2-3-1.3-5.7-2.7-8.3 c-1-1.9-2.3-2.2-3.9-0.6c-4.9,4.8-9.7,9.7-14.6,14.5c-0.3,0.3-0.6,0.9-0.7,1.3c-0.1,1.5-0.7,2.8-1.8,3.8c-3.1,3-6,6.1-9.2,9.1 c-2,1.9-4.3,3.7-6.4,5.5C19.9,64.6,19.7,64.6,19.5,64.6z" class="st116"/><path d="M21.5,6.9c0.9,0.3,1.7,0.5,2.6,0.8c5.8,2.1,9.7,8.7,8.6,14.8c-0.3,1.4,0.1,2.5,1.1,3.4 c1.3,1.2,2.6,2.3,4.1,3.6c-2.3,2.1-4.4,4.3-6.7,6.2c-0.9,0.8-2.3,0.5-3.1-0.5c-1.7-2.3-3.9-3-6.8-2.7c-6.3,0.7-13.2-5.1-13.7-11.5 c-0.1-0.9,0.3-1.7,0.6-3.1c1.2,1.2,2.1,2,2.9,2.9c2.5,2.7,4.3,3.1,7.6,1.3c1.3-0.7,2.5-1.6,3.5-2.7c1.9-2,2-4.2,0.6-6.5 c-1.2-1.8-2.5-3.4-3.9-5.2c0.7-0.3,1.4-0.5,2.1-0.8C21.1,6.9,21.3,6.9,21.5,6.9z" class="st115"/><path d="M48.4,40.6c3.5,3.2,7.2,6.7,11,10.1c1.3,1.2,2.7,2.2,4,3.4c1.7,1.6,1.8,2.9,0.2,4.6c-1.5,1.6-3,3.1-4.6,4.6 c-1.5,1.4-2.8,1.4-4.1-0.1c-4.3-4.7-8.5-9.4-12.8-14.2c-0.7-0.8-0.9-1.7-0.1-2.5C44.1,44.5,46.3,42.5,48.4,40.6z M54.2,56.7 c0,1.7,1.2,3,2.9,3c1.7,0,3-1.3,3.1-3c0-1.7-1.2-3-3-3C55.3,53.7,54.2,54.8,54.2,56.7z" class="st115"/><path d="M54.2,56.7c0-1.8,1.2-3,2.9-3c1.7,0,3,1.3,3,3c0,1.7-1.3,3-3.1,3C55.4,59.6,54.2,58.4,54.2,56.7z" class="st4"/></g></g></svg>