<svg xmlns="http://www.w3.org/2000/svg" xmlns:xlink="http://www.w3.org/1999/xlink" id="Layer_1" x="0" y="0" version="1.1" viewBox="0 0 40 40" xml:space="preserve" style="enable-background:new 0 0 40 40"><style type="text/css">.st90{fill:#010101}.st91{fill:#020202}</style><g id="u2f9Oa.tif"><g><path d="M17.4,8.6c0,2.3,0,4.5,0,6.8c0,1.1-0.3,1.6-1.5,1.6c-4.6-0.1-9.2-0.1-13.8,0c-1.1,0-1.4-0.4-1.4-1.5c0-4.6,0-9.2,0-13.8 c0-1,0.2-1.4,1.3-1.4c4.6,0.1,9.2,0.1,13.8,0c1.2,0,1.6,0.3,1.5,1.5C17.3,4.1,17.4,6.3,17.4,8.6z"/><path d="M31.3,22.5c4.5,0.1,8.2,3.8,8.1,8.3c0,4.7-3.7,8.3-8.3,8.3c-4.5,0-8.2-3.8-8.2-8.2C23,26.2,26.8,22.4,31.3,22.5z"/><path d="M25.5,14.4c3.3-0.5,3.5-1.1,1.8-3.6c-1.2-1.7-2.8-2.7-4.8-3c-2.3-0.4-1.2-2.1-1.2-3.2c0-1.4,1.2-0.6,1.9-0.5 c4.2,0.9,7.3,3.2,8.6,7.4c0.6,1.9,1.2,3.1,3.6,3c-1.4,1.3-2.8,2.7-4.1,4c-0.5,0.5-0.8,0.5-1.3,0C28.5,17.2,27.1,15.9,25.5,14.4z" class="st90"/><path d="M6.6,24.3c1.3-1.2,2.6-2.5,3.8-3.7c0.6-0.6,1-0.8,1.6-0.1c1.2,1.4,2.5,2.8,3.7,4.1c0.1,0,0,0.1-0.1,0.1 c-2.8,0.1-3,0.4-1.5,2.8c1.1,1.9,2.8,3.3,5,3.5c2.2,0.3,1.3,1.8,1.4,2.9c0,1.7-1.3,0.9-2,0.8c-4.4-0.9-7.3-3.4-8.6-7.7 c-0.5-1.8-1.1-2.8-3.2-2.2C6.7,24.7,6.6,24.5,6.6,24.3z" class="st91"/></g></g></svg>