<svg xmlns="http://www.w3.org/2000/svg" xmlns:xlink="http://www.w3.org/1999/xlink" style="enable-background:new 0 0 360 200" id="Layer_1" x="0" y="0" version="1.1" viewBox="0 0 360 200" xml:space="preserve"><style type="text/css">.st0,.st1,.st2{stroke:#1c425c;stroke-width:3;stroke-miterlimit:10}.st0{fill:none;stroke-linecap:round;stroke-linejoin:round}.st1{fill:#f7a600}.st2{fill:#00bfc0}.st4{fill:#fff}.st5{fill:none;stroke:#1c425c;stroke-width:2;stroke-linecap:round;stroke-linejoin:round;stroke-miterlimit:10}.st6{fill:#1c425c}.st7{font-family:&apos;OpenSans&apos;}.st8{font-size:17.6364px}.st9{fill:#9534a0}</style><g><g><rect width="83" height="42" x="216.5" y="67.5" class="st1"/><rect width="84" height="42" x="59.5" y="67.5" class="st2"/><rect width="84" height="42" x="58.5" y="68.5" class="st0"/><path d="M89.7,87.9c0,4.6-3.8,8.4-8.4,8.4c-4.6,0-8.4-3.8-8.4-8.4c0-4.6,3.8-8.4,8.4-8.4 C85.9,79.5,89.7,83.3,89.7,87.9" class="st4"/><circle cx="81.3" cy="87.9" r="8.4" class="st5"/><path d="M131.5,87.9c0,4.6-3.8,8.4-8.4,8.4c-4.6,0-8.4-3.8-8.4-8.4c0-4.6,3.8-8.4,8.4-8.4 C127.8,79.5,131.5,83.3,131.5,87.9" class="st4"/><circle cx="123.1" cy="87.9" r="8.4" class="st5"/><rect width="83" height="42" x="215.5" y="68.5" class="st0"/><path d="M245.9,87.9c0,4.6-3.8,8.4-8.4,8.4c-4.6,0-8.4-3.8-8.4-8.4c0-4.6,3.8-8.4,8.4-8.4 C242.2,79.5,245.9,83.3,245.9,87.9" class="st4"/><circle cx="237.5" cy="87.9" r="8.4" class="st5"/><polyline points="328.7 100.1 319.1 110.5 40.9 110.5 31.3 100.5" class="st0"/></g><text class="st6 st7 st8" transform="matrix(1 0 0 1 84.8384 59.0352)">P1.31</text><text class="st6 st7 st8" transform="matrix(1 0 0 1 239.668 59.0352)">P1.32</text><g><polygon points="278.2 80.1 288 97 268.5 97" class="st4"/><polygon points="278.2 80.1 288 97 268.5 97" class="st5"/><path d="M154.4,157l21.3-31c-2.1-1.5-3.5-4.1-3.5-6.9c0-4.5,3.6-8.2,8.1-8.2c4.5,0,8.1,3.5,8.1,8 c0,2.7-1.4,5.6-3.5,7.1l21.3,31H154.4z" class="st9"/><path d="M154.4,157.5l21.3-31.3c-2.1-1.5-3.5-4.2-3.5-7c0-4.5,3.6-8.2,8.1-8.2c4.5,0,8.1,3.5,8.1,8 c0,2.7-1.4,5.8-3.5,7.3l21.3,31.2H154.4z" class="st0"/><path d="M184.4,119c0,2.3-1.8,4.1-4.1,4.1c-2.3,0-4.1-1.8-4.1-4.1c0-2.3,1.8-4.1,4.1-4.1 C182.6,114.9,184.4,116.7,184.4,119" class="st6"/></g></g></svg>