<svg xmlns="http://www.w3.org/2000/svg" xmlns:xlink="http://www.w3.org/1999/xlink" style="enable-background:new 0 0 40 40" id="Layer_1" x="0" y="0" version="1.1" viewBox="0 0 40 40" xml:space="preserve"><style type="text/css"/><g id="rTPjfk.tif"><g><path d="M20.4,0.8c0.5,0,0.9,0,1.4,0c0.1,0,0.2,0,0.3,0.1c1,0.1,2,0.2,3,0.4c3.2,0.7,5.9,2.3,7.9,5c1.8,2.4,2.5,5.2,2.7,8.1 c0.1,1.6,0,3.2-0.2,4.7c0,0.3,0,0.5,0.3,0.8c1.4,1.5,2,3.3,1.6,5.2c-0.4,2.5-2.1,4-4.3,5.1c-0.3,0.1-0.4,0.3-0.5,0.5 c-0.4,1.1-0.9,2.1-1.6,3.1c-1.8,2.5-4.3,4.1-7.2,5.1c-1.2,0.4-2.4,0.7-3.7,0.4c-4.9-1.2-8.6-3.9-10.5-8.8 c-0.1-0.1-0.2-0.3-0.3-0.4c-0.7-0.4-1.4-0.8-2-1.3c-1.6-1.3-2.7-3-2.5-5.2c0.1-1.5,0.6-2.9,1.8-4c0.1-0.1,0.2-0.4,0.1-0.5 c-0.4-2.6-0.4-5.2,0.1-7.8c1.3-6,5.8-9.6,11.5-10.4C19,0.9,19.7,0.8,20.4,0.8z M22.6,21.7c0-0.1,0-0.2,0-0.3 c0.1-0.9,0.5-1.6,1.1-2.1c0.3-0.3,0.7-0.5,1.1-0.8c0.6-0.5,1.2-1,1.6-1.6c1.2-1.6,0.9-4.8-1.5-6.2c-1.4-0.8-3-1.1-4.6-0.9 c-2.1,0.2-3.7,1.3-4.6,3.2c-0.4,0.9-0.6,1.8-0.6,2.7c1.2,0,2.4,0,3.5,0c0-0.3,0-0.6,0.1-0.9c0.1-1.3,0.7-1.9,1.9-2.1 c1.4-0.2,2.4,0.5,2.6,1.9c0.1,0.7-0.2,1.2-0.7,1.7c-0.6,0.6-1.2,1.1-1.7,1.7c-0.9,1-1.3,2.2-1.3,3.5 C20.6,21.7,21.6,21.7,22.6,21.7z M21.1,24.1c-1.1,0-2,0.9-2,2c0,1.1,0.9,2,2,2c1.1,0,2-0.9,2-2C23.1,25,22.2,24.1,21.1,24.1z"/></g></g></svg>