<svg xmlns="http://www.w3.org/2000/svg" xmlns:xlink="http://www.w3.org/1999/xlink" id="Layer_1" x="0" y="0" version="1.1" viewBox="0 0 100 100" xml:space="preserve" style="enable-background:new 0 0 100 100"><style type="text/css">.st43,.st83,.st84,.st85{stroke:#1c425c;stroke-miterlimit:10}.st43{fill:#00bfc0;stroke-width:.3211;stroke-linejoin:round}.st83{fill:#9534a0}.st83,.st84,.st85{stroke-width:.4075}.st84{fill:#f7a600}.st85{fill:#00bfc0;stroke-linejoin:round}</style><g id="LMa5Iv.tif_1_"><g><path d="M43.4,5c3.6,1,6.7,2.7,8.6,6.2c3.3,6.1,0.9,13.6-5.4,16.5c-6,2.8-13.4-0.2-15.9-6.4 c-2.5-6.5,0.8-13.6,7.5-15.7c0.6-0.2,1.3-0.4,1.9-0.6C41.2,5,42.3,5,43.4,5z" class="st43"/><path d="M23.3,79.1c0.4-2.9,0.4-6,1.3-8.8c1.7-5.3,5.6-8.5,11.2-9c4-0.4,8.2-0.5,12.2-0.1 c7.9,0.7,12.8,6.4,12.9,14.4c0,2.9-0.1,5.7,0.1,8.5c0.1,1.9-0.7,2.6-2.3,3.2c-6.3,2.1-12.7,3-19.2,2.3c-4.6-0.5-9.2-1.7-13.8-2.5 c-1.7-0.3-2.1-1.1-2-2.6c0.1-1.8,0-3.5,0-5.3C23.6,79.1,23.5,79.1,23.3,79.1z" class="st83"/><path d="M28.2,50c1.4,3.1,2.7,6.1,4.1,9.3C24,62.4,20.5,69.1,21,78.3c-5.5-0.3-10.7-1.4-15.7-2.9 c-0.4-0.1-0.7-0.9-0.8-1.4c0-3.7-0.1-7.5,0.1-11.2C5,56.4,9.6,50.9,15.8,50.1C20,49.5,24.3,50,28.2,50z" class="st84"/><path d="M81.4,67.2C82,58.1,78.5,51.5,69.7,48c2.2-2.5,3.7-5.2,4-8.4c0-0.3,0.8-0.8,1.3-0.8c3.3,0,6.5-0.1,9.8,0.1 c6,0.5,11.6,6,12,12c0.3,4,0.2,8,0.1,12c0,0.5-0.5,1.3-0.9,1.5C93.2,66,85.1,67.6,81.4,67.2z" class="st84"/><path d="M52.3,59.3c1.4-3.1,2.7-6,4.1-9.4c6.4-2.1,15.6,0.2,19.6,5.4c1.7,2.2,2.7,4.7,2.8,7.5c0.1,3.7,0.1,7.3,0,11 c0,0.6-0.4,1.4-0.8,1.6c-4.6,2-9.4,2.9-14.6,3C64.1,69.2,60.6,62.5,52.3,59.3z" class="st85"/><path d="M42.3,60.2c-6,0-10.9-4.8-10.9-10.8c0-6,4.8-10.9,10.8-10.9c6,0,10.9,4.9,10.9,10.8 C53.2,55.3,48.3,60.2,42.3,60.2z" class="st83"/><path d="M12.3,38.3c-0.2-6,4.4-10.9,10.5-11.2c5.5-0.3,10.8,4.3,11.1,10c0.1,0.8-0.5,1.7-0.9,2.5 c-1.2,2.2-2.5,4.3-3.8,6.4c-0.5,0.7-1,1.6-1.7,2C20.6,51.2,12.5,46.1,12.3,38.3z" class="st84"/><path d="M71.2,38c0,7.2-6.7,12.4-13.6,10.6c-1.2-0.3-2-0.8-2.3-2.2c-0.6-3.1-2.2-5.7-4.7-7.6c-1.1-0.8-1.2-1.7-1-2.8 c1-5.3,6.1-9.3,11.3-8.9C66.9,27.7,71.1,32.2,71.2,38z" class="st85"/><path d="M89.2,27.1c0,7.2-6.8,12.4-13.7,10.5c-1.2-0.3-2-0.8-2.2-2.2c-0.6-3.1-2.2-5.7-4.8-7.5c-1-0.7-1.2-1.5-1-2.6 c1-5.4,6.1-9.5,11.4-9C84.9,16.7,89.2,21.3,89.2,27.1z" class="st84"/><path d="M34,29.8c5.3,0,10.4,0,15.5,0c-0.8,2.4-1.6,4.6-2.4,6.9c-3.6-1.4-7.3-1.2-10.7,0.5 C35.6,34.7,34.8,32.3,34,29.8z" class="st43"/></g></g></svg>