<svg xmlns="http://www.w3.org/2000/svg" xmlns:xlink="http://www.w3.org/1999/xlink" id="Layer_1" x="0" y="0" version="1.1" viewBox="0 0 360 200" xml:space="preserve" style="enable-background:new 0 0 360 200"><style type="text/css">.st0,.st2{stroke:#1c425c;stroke-width:3;stroke-miterlimit:10}.st0{fill:none;stroke-linecap:round;stroke-linejoin:round}.st2{fill:#00bfc0}.st8{fill:#fffad5}.st18,.st27{fill:#db9e36;stroke:#1c425c;stroke-width:2;stroke-miterlimit:10}.st27{fill:#00a39f;stroke-width:3}</style><g><polygon points="264.2 16 227.8 52.4 161.8 52.4 198.2 16" class="st2"/><polygon points="264.2 16 227.8 52.4 161.8 52.4 198.2 16" class="st0"/><rect width="66" height=".4" x="132.2" y="118" class="st8"/><rect width="66" height=".4" x="132.2" y="118" class="st0"/><rect width="29.6" height=".4" x="198.2" y="118" class="st8"/><rect width="29.6" height=".4" x="198.2" y="118" class="st0"/><polygon points="264.2 16 264.2 147.6 227.8 184 227.8 52.4" class="st2"/><polygon points="264.2 16 264.2 147.6 227.8 184 227.8 52.4" class="st0"/><rect width="66" height="65.6" x="95.8" y="52.4" class="st27"/><rect width="66" height="65.6" x="95.8" y="52.4" class="st0"/><rect width="66" height=".4" x="95.8" y="118" class="st8"/><rect width="66" height=".4" x="95.8" y="118" class="st0"/><rect width="66" height="65.6" x="95.8" y="118.4" class="st27"/><rect width="66" height="65.6" x="95.8" y="118.4" class="st0"/><rect width="66" height=".4" x="95.8" y="118" class="st8"/><rect width="66" height=".4" x="95.8" y="118" class="st0"/><rect width="66" height="65.6" x="161.8" y="118.4" class="st27"/><rect width="66" height="65.6" x="161.8" y="118.4" class="st0"/><rect width="66" height=".4" x="161.8" y="118" class="st8"/><rect width="66" height=".4" x="161.8" y="118" class="st0"/><rect width="66" height=".4" x="161.8" y="118" class="st8"/><rect width="66" height=".4" x="161.8" y="118" class="st0"/><polygon points="198.2 16 161.8 52.4 95.8 52.4 132.2 16" class="st2"/><polygon points="198.2 16 161.8 52.4 95.8 52.4 132.2 16" class="st0"/><line x1="227.8" x2="261.7" y1="118.4" y2="84.5" class="st0"/><rect width="66" height="65.6" x="161.8" y="52.4" class="st27"/><rect width="66" height="65.6" x="161.8" y="52.4" class="st0"/><g><path d="M150.5,85.2c0,12-9.7,21.7-21.7,21.7c-12,0-21.7-9.7-21.7-21.7c0-12,9.7-21.7,21.7-21.7 C140.8,63.5,150.5,73.2,150.5,85.2" class="st18"/><circle cx="128.8" cy="85.2" r="21.7" class="st0"/><path d="M120.5,85.5l5.7,10.8c0,0,1.5-5.1,3.7-10.1c2.8-6.3,7.1-12.1,7.1-12.1" class="st0"/><path d="M216.5,85.2c0,12-9.7,21.7-21.7,21.7c-12,0-21.7-9.7-21.7-21.7c0-12,9.7-21.7,21.7-21.7 C206.8,63.5,216.5,73.2,216.5,85.2" class="st18"/><circle cx="194.8" cy="85.2" r="21.7" class="st0"/><path d="M186.6,85.5l5.7,10.8c0,0,1.5-5.1,3.7-10.1c2.8-6.3,7.1-12.1,7.1-12.1" class="st0"/><path d="M216.5,151.2c0,12-9.7,21.7-21.7,21.7c-12,0-21.7-9.7-21.7-21.7c0-12,9.7-21.7,21.7-21.7 C206.8,129.5,216.5,139.2,216.5,151.2" class="st18"/><circle cx="194.8" cy="151.2" r="21.7" class="st0"/><path d="M186.6,151.5l5.7,10.8c0,0,1.5-5.1,3.7-10.1c2.8-6.3,7.1-12.1,7.1-12.1" class="st0"/><path d="M150.5,151.2c0,12-9.7,21.7-21.7,21.7c-12,0-21.7-9.7-21.7-21.7c0-12,9.7-21.7,21.7-21.7 C140.8,129.5,150.5,139.2,150.5,151.2" class="st18"/><circle cx="128.8" cy="151.2" r="21.7" class="st0"/><path d="M120.5,151.5l5.7,10.8c0,0,1.5-5.1,3.7-10.1c2.8-6.3,7.1-12.1,7.1-12.1" class="st0"/></g></g></svg>