<svg xmlns="http://www.w3.org/2000/svg" xmlns:xlink="http://www.w3.org/1999/xlink" style="enable-background:new 0 0 99.1 111.4" id="Layer_1" x="0" y="0" version="1.1" viewBox="0 0 99.1 111.4" xml:space="preserve"><style type="text/css">.st15{fill:#00bfc0}.st15,.st16,.st17,.st18,.st19,.st20{stroke:#1c425c;stroke-width:2;stroke-miterlimit:10}.st16{fill:#f7a600}.st17{fill:#9534a0}.st18{fill:#db9e36}.st19{fill:#de572f}.st20{fill:#fefefe}</style><path d="M84.1,56.5c1,3.9,1.7,7.8,2.1,11.7c0.1,0.9,0,1.3-0.9,1.7c-3.9,1.8-5.6,5.2-4.9,9.5c0.1,0.7-0.1,1-0.6,1.3	c-4.2,2.2-8.4,4.3-13.1,5.3c-0.3-0.5,0.1-0.8,0.3-1.1c0.4-0.5,0.8-1,1.1-1.6c1.3-2.3,0.9-3.7-1.6-5.1c-0.1-0.7,0.5-0.9,0.9-1.3	c1.4-1.4,1.4-2.5-0.3-3.8c-1.8-1.4-3.8-2.4-5.8-3.6c-1.7-1-3.2-2.2-4.5-3.6c-1.5-1.7-1.9-3.4-0.9-5.4c0.9-1.9,2.2-2.9,4.4-2.9	c3.1,0,5.6,1.5,8.3,2.6c1.3,0.5,2.5,1.3,3.8,1.8c2.5,1,3.8,0.2,3.9-2.5c0-1.2,0-2.5-0.2-3.7c-0.3-1.8-0.2-3.6,1.1-5.1	c1.9-1.1,3.2-0.9,4.6,0.6C83,52.8,84,54.4,84.1,56.5z" class="st15"/><path d="M66.6,78.1c2.3,0.4,3.2,2,2.4,4.4c-0.5,1.3-1.5,2.3-2.3,3.5c-3.1,3.1-6.5,5.7-10.2,8.2	c-0.7,0.5-1.1,0.5-1.8-0.1c-3.3-2.6-7.2-2.6-10.6-0.1c-0.4,0.3-0.6,0.8-1.2,0.4c-3.8-2.6-7.6-5.1-10.5-8.7c0.5-0.6,1.1-0.4,1.6-0.3	c0.9,0.1,1.7,0,2.5-0.3c1.2-0.4,1.8-1.3,1.7-2.6c0-0.5-0.4-1,0.2-1.5c0.7-0.1,1.4,0.3,2,0.5c1.6,0.3,2.5-0.2,2.8-1.8	c0.4-1.9,0.5-3.7,0.5-5.6c0-2.2,0.3-4.4,0.9-6.5c0.8-2.6,2.4-3.9,4.7-3.9c2.3-0.1,4,1.2,5,3.7c0.8,2.1,0.9,4.3,1,6.5	c0,1.9-0.1,3.9,0.4,5.8c0.5,2.1,1.4,2.6,3.4,1.8c1.7-0.7,3.1-1.9,4.8-2.7C64.7,78.2,65.5,77.5,66.6,78.1z" class="st16"/><path d="M32.2,25.6c3.1-3.1,6.5-5.8,10.2-8.2c0.7-0.5,1.2-0.6,1.9,0c3.3,2.5,7.1,2.5,10.5,0c0.5-0.3,0.8-0.8,1.5-0.3	c3.8,2.6,7.7,5.2,10.6,8.9c-0.3,0.4-0.8,0.4-1.2,0.3c-4.1-0.1-4.1-0.1-5.6,3.6c-0.4,0.2-0.8,0-1.3,0c-2.1-0.4-2.7,0.1-3.2,2.1	c-0.3,1.4-0.3,2.9-0.3,4.3c0,2.2-0.2,4.4-0.7,6.6c-0.8,3.3-2.5,4.9-5.2,4.8c-2.7,0-4.5-1.8-5.2-5.1c-0.4-1.7-0.6-3.5-0.5-5.3	c0.1-1.8-0.1-3.7-0.4-5.5c-0.3-1.9-1.4-2.6-3.2-2c-1.3,0.4-2.4,1.3-3.5,2c-1.1,0.7-2.1,1.3-3.3,1.6c-3.3,0.1-4.6-2-3.2-5	C30.5,27.4,31.2,26.3,32.2,25.6z" class="st16"/><path d="M38.1,80.9c0.8,1.1,1.1,2.2,0.3,3.4c-0.9,1.3-2.3,1.4-3.7,1.5c-0.7,0-1.5-0.1-2.2-0.1c-4.4-1.3-8.6-3-12.7-5.2	c-0.8-0.4-1.2-0.7-1-1.8c0.7-3.8-1.2-7.4-4.7-9c-1-0.5-1.2-0.9-1.1-2.1c0.5-4.3,1-8.5,2.6-12.6c0.8,0.3,0.9,1.2,1.2,1.8	c1.6,3,2.5,3.4,5.6,1.9c0.1,0,0.2,0,0.3,0.1c0.4,0.5,0.3,1,0.4,1.5c0.4,1.6,1.3,2.2,2.9,1.6c2.1-0.7,4.1-1.7,6.1-2.7	c1.8-0.9,3.6-1.6,5.6-2c2.4-0.4,4.4,0.5,5.5,2.5c1,1.9,0.8,4.1-0.8,5.8c-2.1,2.4-4.9,3.6-7.5,5.3c-0.6,0.4-1.3,0.7-1.9,1.2	c-2.6,1.9-2.7,3.2-0.1,5.1c0.9,0.7,1.9,1.2,2.9,1.7C36.6,79.4,37.6,79.8,38.1,80.9z" class="st17"/><path d="M60.1,29.9c-0.3-2.5,0.6-3.7,3.1-4c1.2-0.2,2.4,0.1,3.7,0.1c4.2,1.1,8.3,2.7,12.2,4.5c0.7,0.4,1.1,0.7,1.1,1.7	c-0.3,4.6,1.3,7.3,5.5,9.2c0.5,0.2,0.8,0.4,0.8,1c-0.3,4.8-0.6,9.5-2.4,14.1c-0.7-1.4-1.1-2.9-2.1-4.2c-1.4-1.8-2.6-2.2-4.8-1.3	c-2.4-2.3-2.6-2.4-5.8-0.7c-2.4,1.2-4.7,2.7-7.2,3.6c-1.2,0.4-2.4,0.8-3.6,0.7c-3.4-0.2-5.6-3.7-4.2-6.7c0.8-1.9,2.3-3.1,3.9-4.3	c2.1-1.5,4.4-2.7,6.5-4.3c2.3-1.8,2.3-3.3-0.3-4.9c-1.5-1-3.3-1.6-4.8-2.7C60.9,31.2,60.2,30.8,60.1,29.9z" class="st17"/><path d="M22.4,58.8c-1.5,1.7-3.3,1.7-4.8,0.1c-1-1.1-1.5-2.6-2.1-3.9c-1.2-4.2-1.7-8.5-1.9-12.9c0-0.8,0-1.2,0.9-1.5	c3.9-1.6,5.8-4.9,5.4-9.1c0-0.5-0.3-1,0.4-1.4c3.9-1.8,7.7-3.7,11.9-4.4c-0.6,1.1-1.3,2.1-1.9,3.3c-1,2.1-0.2,4.7,2.8,4.4	c0.1,0.6-0.4,0.8-0.7,1.2c-1.1,1.4-1,2.3,0.3,3.5c1.4,1.2,3,2.2,4.5,3.1c1.7,1,3.3,2.1,4.7,3.4c2.8,2.5,2.8,6.2,0.2,8.3	c-1.7,1.3-3.6,1.1-5.4,0.6c-2.1-0.5-4-1.6-5.9-2.7c-1.4-0.8-2.8-1.6-4.3-2.2c-1.9-0.7-2.8-0.2-3.2,1.7c-0.2,1-0.2,2-0.2,3	C23.2,55.1,23.9,57.1,22.4,58.8z" class="st15"/><path d="M56.6,103.3c0,3.9-3.2,7-7.1,7.1c-4.1,0-7.3-3.2-7.2-7.3c0-4,3.2-7.2,7.2-7.1C53.5,96,56.6,99.1,56.6,103.3z" class="st18"/><path d="M49.5,15.4c-4,0-7.2-3.2-7.2-7.2c0-4,3.2-7.2,7.2-7.2c4.1,0,7.4,3.3,7.3,7.3C56.7,12.2,53.5,15.4,49.5,15.4z" class="st18"/><path d="M90.8,24.9c4,0,7.2,3.2,7.2,7.2c0,4.1-3.2,7.3-7.3,7.3c-4,0-7.2-3.2-7.1-7.2C83.6,28.1,86.8,24.9,90.8,24.9z" class="st19"/><path d="M9.3,38.5c-4,0-7.2-3.1-7.3-7.1C2,27.3,5.2,24,9.3,24.1c4,0,7.2,3.2,7.2,7.2C16.5,35.2,13.3,38.4,9.3,38.5z" class="st15"/><path d="M1,78.5c0-4,3.1-7.2,7.1-7.3c4.1-0.1,7.3,3.1,7.3,7.2c0,4-3.2,7.2-7.2,7.2C4.2,85.6,1,82.5,1,78.5z" class="st19"/><path d="M22.4,58.8c0.6-1.8,0.4-3.7,0.3-5.6c0-0.2-0.1-0.4-0.1-0.6c0.1-3.5,0.7-6.3,5.5-3.8c2.1,1.1,4.2,2.2,6.3,3.3	c1.4,0.7,2.8,1.2,4.3,1.3c1.9,0.1,3.4-0.5,4.3-2.2c0.9-1.7,0.8-3.3-0.2-4.9c-1-1.5-2.3-2.5-3.8-3.5c-1.9-1.3-3.9-2.5-5.8-3.8	c-2.9-2.1-2.9-3.3-0.2-5.7c1.9-0.5,3.3-1.8,4.9-2.7c4.1-2.4,5.5-1.7,6,3c0.3,2.6,0,5.3,0.5,7.9c0.2,1,0.4,2,0.7,3c0.8,2,2.2,3,4.3,3	c2.1,0,3.5-1,4.3-3.1c0.9-2.5,1-5.2,1.1-7.8c0-1.5,0-2.9,0.3-4.4c0.4-2.9,1.6-3.5,4.2-2.5c0.2,0.1,0.5,0.2,0.8,0.3	c1.1,1.4,2.7,2.1,4.2,2.9c1.2,0.6,2.3,1.1,3.3,2c1.7,1.4,1.7,2.8,0.1,4.2c-1.5,1.3-3.2,2.2-4.8,3.3c-1.8,1.2-3.6,2.3-5.1,3.9	c-1.8,2-2.1,3.9-0.9,5.9c1.2,1.9,3,2.5,5.5,1.9c2.6-0.6,4.9-2,7.2-3.2c1.1-0.6,2.2-1.2,3.3-1.7c2.5-1.1,3.3-0.7,4.3,1.9	c-0.9,1.3-1,2.7-0.9,4.2c0.1,1.4,0.3,2.8,0.3,4.2c0,3.4-1.4,4.4-4.5,3.1c-2.6-1.1-5.2-2.4-7.8-3.5c-1.3-0.6-2.6-0.8-4.1-0.9	c-2,0-3.3,0.8-4.1,2.6c-0.8,1.8-0.6,3.5,0.7,5c1.4,1.7,3.2,2.8,5.1,3.9c1.7,1,3.4,1.9,5,3c2.6,1.7,2.6,3.3,0.1,5.2	c-0.2,0.1-0.3,0.3-0.5,0.4c-1.5,0.2-2.7,1-3.9,1.8c-1.1,0.7-2.2,1.5-3.5,2c-2.3,0.9-3.5,0.2-3.9-2.2c-0.3-1.9-0.3-3.8-0.3-5.6	c0-2.3-0.2-4.6-1-6.8c-0.8-2.2-2.4-3.3-4.5-3.2c-2,0.1-3.4,1.2-4.2,3.2c-1,2.7-1,5.5-1.1,8.3c-0.1,1.3-0.1,2.7-0.3,4	c-0.4,2.5-1.7,3.2-4,2.3c-0.6-0.2-1.2-0.6-1.8-0.8c-1.8-1.1-3.7-2.2-5.4-3.3c-0.6-0.4-1.2-0.9-1.7-1.5c-1-1-0.9-2.1,0.1-3.1	c1.4-1.4,3.3-2.3,5-3.3c2-1.2,4-2.3,5.7-4c1.8-1.8,2.2-3.8,1.2-5.7c-1.1-2-2.7-2.7-5.3-2.3c-2.9,0.5-5.3,2-7.9,3.1	c-1.1,0.5-2.1,1-3.3,1.4c-2.4,0.8-3.5,0-3.8-2.5C22.4,59.4,22.4,59.1,22.4,58.8z" class="st20"/><path d="M98,79c0,3.9-3.2,7-7.1,7.1c-4.1,0-7.3-3.2-7.2-7.3c0-4,3.2-7.2,7.2-7.1C94.9,71.6,98,74.8,98,79z" class="st15"/></svg>