<svg xmlns="http://www.w3.org/2000/svg" xmlns:xlink="http://www.w3.org/1999/xlink" style="enable-background:new 0 0 40 40" id="Layer_1" x="0" y="0" version="1.1" viewBox="0 0 40 40" xml:space="preserve"><style type="text/css"/><g id="lrga6E.tif"><g><path d="M1.2,8.9c1.2,0,2.4,0.1,3.6,0.3C6.4,9.5,8,10.1,9.4,11c0.9,0.5,1.7,1.1,2.5,1.8c1.2,1,2.3,2.2,3.5,3.3 c0.6,0.6,1.2,1.2,2.1,1.5c0.4,0.1,0.8,0.2,1.2,0.2c3.6,0,7.2,0,10.8,0c0.1,0,0.2,0,0.3,0c0-0.1,0-0.2-0.1-0.3 c-0.6-1.5-1.2-2.9-1.7-4.4c0-0.1-0.1-0.1-0.1-0.2c0-0.2,0-0.4,0.1-0.5c0.2-0.1,0.4-0.1,0.5,0.1c0.9,0.7,1.7,1.3,2.6,2 c1.5,1.1,3,2.3,4.5,3.4c0.8,0.6,1.6,1.3,2.5,1.9c0.4,0.3,0.4,0.5,0,0.8c-1.7,1.3-3.4,2.6-5.1,3.9c-1.4,1.1-2.9,2.2-4.3,3.3 c-0.2,0.2-0.4,0.3-0.6,0.1c-0.2-0.2-0.2-0.4-0.1-0.6c0.5-1.3,1-2.6,1.5-3.9c0.1-0.3,0.2-0.5,0.3-0.8c-0.2,0-0.3,0-0.4,0 c-3.6,0-7.1,0-10.7,0c-1,0-1.8,0.4-2.5,1c-1.3,1.2-2.6,2.5-3.9,3.7c-1.4,1.3-3.1,2.3-4.9,3.1c-1.9,0.8-3.9,1.1-5.9,1.1 c-0.1,0-0.2,0-0.2,0c0-1.6,0-3.2,0-4.7c0,0,0.1,0,0.1,0c3.1,0,5.8-1.1,8-3.2c0.9-0.8,1.7-1.6,2.5-2.4c0.3-0.3,0.7-0.6,1-0.9 c-0.3-0.3-0.6-0.6-0.9-0.9c-1-0.9-2-1.9-3-2.8c-1.5-1.3-3.2-2.3-5.2-2.6c-0.8-0.2-1.7-0.2-2.6-0.2C1.2,12,1.2,10.4,1.2,8.9z"/></g></g></svg>