<svg xmlns="http://www.w3.org/2000/svg" xmlns:xlink="http://www.w3.org/1999/xlink" x="0" y="0" version="1.1" viewBox="0 0 579.9 439.4" xml:space="preserve" style="enable-background:new 0 0 579.9 439.4"><style type="text/css">.st4{fill:none;stroke:#1c425c;stroke-width:8;stroke-linecap:round;stroke-linejoin:round;stroke-miterlimit:10}.st7{fill:#1c425c}.st40{fill:#94399e}.st52,.st54{stroke:#1c425c;stroke-width:8;stroke-linecap:round;stroke-linejoin:round}.st52{fill:#4ad9d9;stroke-miterlimit:10}.st54{fill:#94399e}.st54,.st57,.st61{stroke-miterlimit:10}.st57{fill:#fff1ce;stroke:#1c425c;stroke-width:8;stroke-linecap:round;stroke-linejoin:round}.st61{stroke-dasharray:8}.st61,.st62,.st63{fill:none;stroke:#94399e;stroke-width:8;stroke-linejoin:round}.st63{stroke-dasharray:7.9701,7.9701}</style><g id="Revised_color_icons"><g><circle cx="173.3" cy="219.7" r="135.6" class="st61"/><g><g><g><line x1="530.5" x2="530.5" y1="419" y2="415" class="st62"/><line x1="530.5" x2="530.5" y1="407" y2="28.4" class="st63"/><line x1="530.5" x2="530.5" y1="24.4" y2="20.4" class="st62"/></g></g><g><path d="M509.7,415.7h41.6c1.3,0,1.9,1.6,1,2.5L531.5,439c-0.6,0.6-1.5,0.6-2,0l-20.8-20.8 C507.7,417.3,508.4,415.7,509.7,415.7z" class="st40"/></g><g><path d="M509.7,23.7h41.6c1.3,0,1.9-1.6,1-2.5L531.5,0.4c-0.6-0.6-1.5-0.6-2,0l-20.8,20.8 C507.7,22.1,508.4,23.7,509.7,23.7z" class="st40"/></g></g><g><path d="M220.9,50.4h109.3c6.8,0,12.2,5.5,12.2,12.2V172" class="st4"/><path d="M4,267.4v109.4c0,6.8,5.5,12.2,12.2,12.2h109.3" class="st4"/><path d="M4,172V62.7c0-6.8,5.5-12.2,12.2-12.2h109.3" class="st4"/><path d="M342.5,267.4v109.4c0,6.8-5.5,12.2-12.2,12.2H220.9" class="st4"/></g><path d="M259.9,224.7c0.1-1.6,0.1-3.3,0.1-5c0-1.7,0-3.3-0.1-5l-24.8-12.2c-1.5-5.5-3.8-10.7-6.6-15.5l8.9-25.8 c-2.6-2.8-5.3-5.4-8.2-7.9l-26,9.6c0,0,0,0,0,0c-3.9-2-8-3.7-12.2-4.9l-11.3-24.9c-2.1-0.2-4.2-0.2-6.3-0.2s-4.2,0.1-6.3,0.2 L155.6,158c-4.3,1.2-8.4,2.9-12.2,4.9l-26-9.6c-2.9,2.4-5.6,5.1-8.2,7.9l8.9,25.8c-2.9,4.8-5.1,10-6.6,15.5l-24.8,12.2 c-0.1,1.6-0.1,3.3-0.1,5c0,1.7,0,3.3,0.1,5l24.8,12.2c1.5,5.5,3.8,10.7,6.6,15.5l-8.9,25.8c2.6,2.8,5.3,5.4,8.2,7.9l26-9.6 c3.9,2,8,3.7,12.2,4.9l11.3,24.9c2.1,0.2,4.2,0.2,6.3,0.2s4.2-0.1,6.3-0.2l11.3-24.9c4.3-1.2,8.4-2.9,12.2-4.9c0,0,0,0,0,0l26,9.6 c2.9-2.4,5.6-5.1,8.2-7.9l-8.9-25.8c2.9-4.8,5.1-10,6.6-15.5L259.9,224.7z M173.3,243.8c-13.3,0-24.1-10.8-24.1-24.1 s10.8-24.1,24.1-24.1c13.3,0,24.1,10.8,24.1,24.1S186.6,243.8,173.3,243.8z" class="st54"/><rect width="90.7" height="90.7" x="297.2" y="174.3" class="st52"/><rect width="90.7" height="90.7" x="485.1" y="174.3" class="st52"/><rect width="90.7" height="90.7" x="485.1" y="50.4" class="st52"/><rect width="90.7" height="90.7" x="485.1" y="298.3" class="st52"/><g><g><path d="M433,252.7v-21.5c0-0.8-0.6-1.4-1.4-1.4h-26c-0.8,0-1.4-0.6-1.4-1.4v-17.1c0-0.8,0.6-1.4,1.4-1.4h26 c0.8,0,1.4-0.6,1.4-1.4v-21.5c0-1.3,1.6-1.9,2.5-1l33,33c0.6,0.6,0.6,1.5,0,2l-33,33C434.6,254.6,433,254,433,252.7z" class="st7"/></g></g><circle cx="342.5" cy="219.7" r="16.7" class="st57"/><circle cx="530.5" cy="219.7" r="16.7" class="st57"/><circle cx="530.5" cy="95.8" r="16.7" class="st57"/><circle cx="530.5" cy="343.6" r="16.7" class="st57"/></g></g></svg>