<svg xmlns="http://www.w3.org/2000/svg" xmlns:xlink="http://www.w3.org/1999/xlink" x="0" y="0" version="1.1" viewBox="0 0 493.4 321.4" xml:space="preserve" style="enable-background:new 0 0 493.4 321.4"><style type="text/css">.st4{fill:none;stroke:#1c425c;stroke-width:8;stroke-linecap:round;stroke-linejoin:round;stroke-miterlimit:10}.st7{fill:#1c425c}.st12,.st52,.st53{fill:none;stroke:#1c425c;stroke-width:8;stroke-linecap:round;stroke-linejoin:round}.st52,.st53{fill:#4ad9d9;stroke-miterlimit:10}.st53{fill:#ff9311}</style><g id="Revised_color_icons"><g><line x1="166.1" x2="325.4" y1="160.7" y2="160.7" class="st4"/><g><polyline points="103.9 272 62 272 62 49.4 103.9 49.4" class="st12"/><g><path d="M97.8,288v-31.9c0-1.3,1.6-1.9,2.5-1l16,16c0.6,0.6,0.6,1.5,0,2l-16,16C99.3,289.9,97.8,289.3,97.8,288z" class="st7"/></g><g><path d="M97.8,33.4v31.9c0,1.3,1.6,1.9,2.5,1l16-16c0.6-0.6,0.6-1.5,0-2l-16-16C99.3,31.5,97.8,32.1,97.8,33.4z" class="st7"/></g><g><path d="M97.8,145V177c0,1.3,1.6,1.9,2.5,1l16-16c0.6-0.6,0.6-1.5,0-2l-16-16C99.3,143.1,97.8,143.8,97.8,145z" class="st7"/></g></g><polyline points="211.4 49.4 270.1 49.4 270.1 272 211.4 272" class="st4"/><rect width="90.7" height="90.7" x="120.7" y="4" class="st52"/><path d="M175.9,32.2c-0.6-0.4-1.3-0.7-2-1l-1.8-8.1c-1.8-0.4-3.6-0.6-5.5-0.7l-3.7,7.4l0,0c-1.4,0.2-2.8,0.6-4.2,1.1 l0,0l-7-4.5c-1.5,1-3,2.1-4.4,3.4l2.6,7.8c-0.4,0.6-0.8,1.2-1.2,1.8c-0.4,0.6-0.7,1.3-1,2l-8.1,1.8c-0.4,1.8-0.6,3.6-0.7,5.5 l7.4,3.7l0,0c0.2,1.4,0.6,2.8,1.1,4.2l0,0l-4.5,7c1,1.5,2.1,3,3.4,4.4l7.8-2.6c0.6,0.4,1.2,0.8,1.8,1.2c0.6,0.4,1.3,0.7,2,1 l1.8,8.1c1.8,0.4,3.6,0.6,5.5,0.7l3.7-7.4l0,0c1.4-0.2,2.8-0.6,4.2-1.1l0,0l7,4.5c1.5-1,3-2.1,4.4-3.4l-2.6-7.8 c0.4-0.6,0.8-1.2,1.2-1.8c0.4-0.6,0.7-1.3,1-2l8.1-1.8c0.4-1.8,0.6-3.6,0.7-5.5l-7.4-3.7l0,0c-0.2-1.4-0.6-2.8-1.1-4.2l0,0l4.5-7 c-1-1.5-2.1-3-3.4-4.4l-7.8,2.6C177.1,32.9,176.5,32.5,175.9,32.2z M172.1,52.8c-1.9,3.3-6.1,4.5-9.4,2.6 c-3.3-1.9-4.5-6.1-2.6-9.4s6.1-4.5,9.4-2.6C172.8,45.3,173.9,49.5,172.1,52.8z" class="st53"/><rect width="90.7" height="90.7" x="120.7" y="115.3" class="st52"/><path d="M175.9,143.5c-0.6-0.4-1.3-0.7-2-1l-1.8-8.1c-1.8-0.4-3.6-0.6-5.5-0.7l-3.7,7.4l0,0 c-1.4,0.2-2.8,0.6-4.2,1.1l0,0l-7-4.5c-1.5,1-3,2.1-4.4,3.4l2.6,7.8c-0.4,0.6-0.8,1.2-1.2,1.8c-0.4,0.6-0.7,1.3-1,2l-8.1,1.8 c-0.4,1.8-0.6,3.6-0.7,5.5l7.4,3.7l0,0c0.2,1.4,0.6,2.8,1.1,4.2l0,0l-4.5,7c1,1.5,2.1,3,3.4,4.4l7.8-2.6c0.6,0.4,1.2,0.8,1.8,1.2 c0.6,0.4,1.3,0.7,2,1l1.8,8.1c1.8,0.4,3.6,0.6,5.5,0.7l3.7-7.4l0,0c1.4-0.2,2.8-0.6,4.2-1.1l0,0l7,4.5c1.5-1,3-2.1,4.4-3.4 l-2.6-7.8c0.4-0.6,0.8-1.2,1.2-1.8c0.4-0.6,0.7-1.3,1-2l8.1-1.8c0.4-1.8,0.6-3.6,0.7-5.5l-7.4-3.7l0,0c-0.2-1.4-0.6-2.8-1.1-4.2 l0,0l4.5-7c-1-1.5-2.1-3-3.4-4.4l-7.8,2.6C177.1,144.2,176.5,143.9,175.9,143.5z M172.1,164.1c-1.9,3.3-6.1,4.5-9.4,2.6 c-3.3-1.9-4.5-6.1-2.6-9.4c1.9-3.3,6.1-4.5,9.4-2.6S173.9,160.8,172.1,164.1z" class="st53"/><rect width="90.7" height="90.7" x="120.7" y="226.7" class="st52"/><path d="M175.9,254.8c-0.6-0.4-1.3-0.7-2-1l-1.8-8.1c-1.8-0.4-3.6-0.6-5.5-0.7l-3.7,7.4l0,0 c-1.4,0.2-2.8,0.6-4.2,1.1l0,0l-7-4.5c-1.5,1-3,2.1-4.4,3.4l2.6,7.8c-0.4,0.6-0.8,1.2-1.2,1.8c-0.4,0.6-0.7,1.3-1,2l-8.1,1.8 c-0.4,1.8-0.6,3.6-0.7,5.5l7.4,3.7l0,0c0.2,1.4,0.6,2.8,1.1,4.2l0,0l-4.5,7c1,1.5,2.1,3,3.4,4.4l7.8-2.6c0.6,0.4,1.2,0.8,1.8,1.2 c0.6,0.4,1.3,0.7,2,1l1.8,8.1c1.8,0.4,3.6,0.6,5.5,0.7l3.7-7.4l0,0c1.4-0.2,2.8-0.6,4.2-1.1l0,0l7,4.5c1.5-1,3-2.1,4.4-3.4 l-2.6-7.8c0.4-0.6,0.8-1.2,1.2-1.8c0.4-0.6,0.7-1.3,1-2l8.1-1.8c0.4-1.8,0.6-3.6,0.7-5.5l-7.4-3.7l0,0c-0.2-1.4-0.6-2.8-1.1-4.2 l0,0l4.5-7c-1-1.5-2.1-3-3.4-4.4l-7.8,2.6C177.1,255.6,176.5,255.2,175.9,254.8z M172.1,275.4c-1.9,3.3-6.1,4.5-9.4,2.6 c-3.3-1.9-4.5-6.1-2.6-9.4c1.9-3.3,6.1-4.5,9.4-2.6S173.9,272.1,172.1,275.4z" class="st53"/><g><path d="M318.8,145V177c0,1.3,1.6,1.9,2.5,1l16-16c0.6-0.6,0.6-1.5,0-2l-16-16C320.3,143.1,318.8,143.8,318.8,145z" class="st7"/></g><g><rect width="148" height="260.1" x="341.4" y="30.2" class="st52"/><g><path d="M398.9,21.8h33c1,0,1.5-1.2,0.8-1.9L416.2,3.4c-0.4-0.4-1.2-0.4-1.6,0l-16.5,16.5 C397.4,20.6,397.9,21.8,398.9,21.8z" class="st7"/></g><g><path d="M431.9,298.6h-33c-1,0-1.5,1.2-0.8,1.9l16.5,16.5c0.4,0.4,1.2,0.4,1.6,0l16.5-16.5 C433.4,299.8,432.9,298.6,431.9,298.6z" class="st7"/></g><g><line x1="473.9" x2="390.5" y1="52" y2="52" class="st4"/><line x1="374.2" x2="356.8" y1="52" y2="52" class="st4"/><line x1="473.9" x2="446.7" y1="76" y2="76" class="st4"/><line x1="433.3" x2="356.8" y1="76" y2="76" class="st4"/><line x1="473.9" x2="464.1" y1="100.1" y2="100.1" class="st4"/><line x1="396.6" x2="386.2" y1="100.1" y2="100.1" class="st4"/><line x1="374.2" x2="356.8" y1="100.1" y2="100.1" class="st4"/><line x1="450.1" x2="411.4" y1="100.1" y2="100.1" class="st4"/><line x1="433.3" x2="396.6" y1="124.1" y2="124.1" class="st4"/><line x1="473.9" x2="446.7" y1="124.1" y2="124.1" class="st4"/><line x1="380.5" x2="356.8" y1="124.1" y2="124.1" class="st4"/><line x1="441.2" x2="423.1" y1="196.3" y2="196.3" class="st4"/><line x1="473.9" x2="453.4" y1="196.3" y2="196.3" class="st4"/><line x1="408.9" x2="356.8" y1="196.3" y2="196.3" class="st4"/><line x1="473.9" x2="419.5" y1="220.4" y2="220.4" class="st4"/><line x1="365.5" x2="356.8" y1="220.4" y2="220.4" class="st4"/><line x1="405.7" x2="380.5" y1="220.4" y2="220.4" class="st4"/><line x1="442.8" x2="403.4" y1="244.4" y2="244.4" class="st4"/><line x1="473.9" x2="457.4" y1="244.4" y2="244.4" class="st4"/><line x1="390.5" x2="356.8" y1="244.4" y2="244.4" class="st4"/><line x1="473.9" x2="419.5" y1="268.5" y2="268.5" class="st4"/><line x1="367.5" x2="356.8" y1="268.5" y2="268.5" class="st4"/><line x1="405.7" x2="380.5" y1="268.5" y2="268.5" class="st4"/></g></g><g><path d="M381,161.4c0,6.5-5.5,11.8-12.2,11.8c-6.6,0-12-5.4-12-12c0-6.3,5.6-11.7,12.1-11.7 C375.5,149.5,381,154.8,381,161.4z M362.3,161.5c0,3.6,3,6.6,6.6,6.6c3.6,0,6.6-3,6.6-6.8c0-3.8-2.9-6.8-6.7-6.8 C365.1,154.6,362.3,157.6,362.3,161.5z" class="st7"/><path d="M389.4,163.8c0,1.7,0.1,2.4,0.4,2.9c0.5,0.8,1.8,1.3,2.9,1.3c1.2,0,2.4-0.6,2.9-1.3c0.3-0.5,0.4-1.2,0.4-2.9 v-13.7h5.5v14.3c0,2.5-0.5,4.1-1.7,5.5c-1.7,2.1-4.4,3.3-7.2,3.3c-2.8,0-5.6-1.2-7.2-3.3c-1.2-1.5-1.7-3.1-1.7-5.5v-14.3h5.5 V163.8z" class="st7"/><path d="M413.9,172.6h-5.5v-17.4h-5.2v-5.1h15.9v5.1h-5.2V172.6z" class="st7"/><path d="M426.2,172.6h-5.5v-22.5h5.7c2.9,0,4.7,0.5,6.1,1.9c1.5,1.3,2.4,3.4,2.4,5.6c0,2.2-0.9,4.3-2.4,5.6 c-1.5,1.4-3.3,1.9-6.2,1.9h-0.2V172.6z M426.7,160.1c2.2,0,3-0.7,3-2.5c0-1.8-0.8-2.5-3-2.5h-0.5v5H426.7z" class="st7"/><path d="M442.5,163.8c0,1.7,0.1,2.4,0.4,2.9c0.5,0.8,1.8,1.3,2.9,1.3c1.2,0,2.4-0.6,2.9-1.3c0.3-0.5,0.4-1.2,0.4-2.9 v-13.7h5.5v14.3c0,2.5-0.5,4.1-1.7,5.5c-1.7,2.1-4.4,3.3-7.2,3.3c-2.8,0-5.6-1.2-7.2-3.3c-1.2-1.5-1.7-3.1-1.7-5.5v-14.3h5.5 V163.8z" class="st7"/><path d="M467.1,172.6h-5.5v-17.4h-5.2v-5.1h15.9v5.1h-5.2V172.6z" class="st7"/></g><line x1="4" x2="105.3" y1="160.7" y2="160.7" class="st4"/></g></g></svg>