<svg xmlns="http://www.w3.org/2000/svg" xmlns:xlink="http://www.w3.org/1999/xlink" x="0" y="0" version="1.1" viewBox="0 0 400 400" xml:space="preserve" style="enable-background:new 0 0 400 400"><style type="text/css">.st52,.st54{fill:#4ad9d9;stroke:#1c425c;stroke-width:8;stroke-linecap:round;stroke-linejoin:round;stroke-miterlimit:10}.st54{fill:#94399e}</style><g id="Revised_color_icons"><g><path d="M379,48.5H21c-2.8,0-5,2.2-5,5v293c0,2.8,2.2,5,5,5h358c2.8,0,5-2.2,5-5v-293C384,50.8,381.8,48.5,379,48.5z M342.3,69.9c8.8,0,16,7.2,16,16c0,8.8-7.2,16-16,16c-8.8,0-16-7.2-16-16C326.3,77.1,333.4,69.9,342.3,69.9z M295.6,69.9 c8.8,0,16,7.2,16,16c0,8.8-7.2,16-16,16c-8.8,0-16-7.2-16-16C279.6,77.1,286.8,69.9,295.6,69.9z M249,69.9c8.8,0,16,7.2,16,16 c0,8.8-7.2,16-16,16c-8.8,0-16-7.2-16-16C233,77.1,240.1,69.9,249,69.9z M362.3,326.3H37.7V123.4h324.6V326.3z" class="st52"/><g><polygon points="96.5 224.8 150.2 278.6 134.3 294.5 64.6 224.8 134.3 155.1 150.2 171.1" class="st54"/><polygon points="303.5 224.8 249.8 171.1 265.7 155.1 335.4 224.8 265.7 294.5 249.8 278.6" class="st54"/><rect width="19.5" height="146.7" x="190.3" y="151.5" class="st54" transform="matrix(0.9534 0.3016 -0.3016 0.9534 77.1333 -49.8573)"/></g></g></g></svg>