<svg xmlns="http://www.w3.org/2000/svg" xmlns:xlink="http://www.w3.org/1999/xlink" x="0" y="0" version="1.1" viewBox="0 0 400 400" xml:space="preserve" style="enable-background:new 0 0 400 400"><style type="text/css">.st52{fill:#4ad9d9}.st52,.st54,.st66{stroke:#1c425c;stroke-width:8;stroke-linecap:round;stroke-linejoin:round;stroke-miterlimit:10}.st54{fill:#94399e}.st66{fill:#fff}</style><g id="Revised_color_icons"><path d="M22.7,92.5v192c0,3.3,2.7,6,6,6h64.2c3.3,0,6,2.7,6,6v68.8c0,5.3,6.5,8,10.2,4.2l77.3-77.3 c1.1-1.1,2.7-1.8,4.2-1.8h180.6c3.3,0,6-2.7,6-6v-192c0-3.3-2.7-6-6-6H28.7C25.4,86.5,22.7,89.2,22.7,92.5z M357.3,270.5H188.2 c-5.3,0-10.4,2.1-14.1,5.9l-55.2,55.2v-41.1c0-11-9-20-20-20H42.7v-164h314.7V270.5z" class="st52"/><g><polygon points="184.7 191.3 207.4 213.9 176.4 222.2" class="st54"/><polygon points="190.3 170.6 198.9 162 222 149.6 209.6 172.7 212.4 175.6 235.5 163.1 223.1 186.3 226 189.1 249.1 176.7 236.7 199.8 228.1 208.4 207.4 213.9 184.7 191.3" class="st66"/><polygon points="198.9 162 304.1 56.7 341.9 94.6 236.7 199.8 249.1 176.7 226 189.1 223.1 186.3 235.5 163.1 212.4 175.6 209.6 172.7 222 149.6" class="st54"/><rect width="11.4" height="53.5" x="331.3" y="35" class="st54" transform="matrix(0.7071 -0.7071 0.7071 0.7071 55.0697 256.3476)"/><path d="M369.8,66.7L332,28.8l14.4-14.4c3.2-3.2,8.3-3.2,11.5,0l26.3,26.3c3.2,3.2,3.2,8.3,0,11.5L369.8,66.7z" class="st54"/></g></g></svg>