<svg xmlns="http://www.w3.org/2000/svg" xmlns:xlink="http://www.w3.org/1999/xlink" style="enable-background:new 0 0 478 207" x="0" y="0" version="1.1" viewBox="0 0 478 207" xml:space="preserve"><style type="text/css">.st1{fill:#fffad5}.st1,.st4,.st52,.st53,.st57{stroke:#1c425c;stroke-width:8;stroke-linecap:round;stroke-linejoin:round;stroke-miterlimit:10}.st4{fill:none}.st52{fill:#4ad9d9}.st53{fill:#ff9311}.st57{fill:#fff1ce}</style><g id="Revised_color_icons"><g><rect width="83" height="83" x="262" y="4" class="st52"/><path d="M45.5,203L45.5,203C22.6,203,4,184.4,4,161.5v0C4,138.6,22.6,120,45.5,120h0c22.9,0,41.5,18.6,41.5,41.5v0 C87,184.4,68.4,203,45.5,203z" class="st53"/><rect width="83" height="83" x="133" y="120" class="st52"/><rect width="83" height="83" x="262" y="120" class="st52"/><rect width="83" height="83" x="391" y="120" class="st52"/><line x1="87" x2="133" y1="161.5" y2="161.5" class="st1"/><line x1="216" x2="262" y1="161.5" y2="161.5" class="st1"/><line x1="345" x2="391" y1="45.5" y2="161.5" class="st1"/><line x1="345" x2="386" y1="161.5" y2="161.5" class="st1"/><line x1="216" x2="262" y1="161.5" y2="45.5" class="st1"/><g><g><line x1="45.9" x2="57.4" y1="150.1" y2="150.1" class="st4"/><line x1="18.6" x2="34.6" y1="150.1" y2="150.1" class="st4"/><line x1="69.4" x2="72.4" y1="150.1" y2="150.1" class="st4"/></g><g><line x1="54.9" x2="72.4" y1="161.5" y2="161.5" class="st4"/><line x1="31.1" x2="43.6" y1="161.5" y2="161.5" class="st4"/><line x1="18.2" x2="19" y1="161.5" y2="161.5" class="st4"/></g><g><line x1="41.4" x2="60.4" y1="172.9" y2="172.9" class="st4"/><line x1="18.2" x2="30.8" y1="172.9" y2="172.9" class="st4"/><line x1="72" x2="72.8" y1="172.9" y2="172.9" class="st4"/></g></g><circle cx="174.5" cy="161.5" r="16.7" class="st57"/><circle cx="303.5" cy="161.5" r="16.7" class="st57"/><circle cx="432.5" cy="161.5" r="16.7" class="st57"/><circle cx="303.5" cy="45.5" r="16.7" class="st57"/></g></g></svg>