<svg xmlns="http://www.w3.org/2000/svg" xmlns:xlink="http://www.w3.org/1999/xlink" style="enable-background:new 0 0 400 400" x="0" y="0" version="1.1" viewBox="0 0 400 400" xml:space="preserve"><style type="text/css">.st0{fill:#ffd34e}.st0,.st52,.st53,.st54,.st56,.st64{stroke:#1c425c;stroke-width:8;stroke-linecap:round;stroke-linejoin:round;stroke-miterlimit:10}.st52{fill:#4ad9d9}.st53{fill:#ff9311}.st54{fill:#94399e}.st56{fill:#36b1bf}.st64{fill:#d64700}</style><g id="Revised_color_icons"><g><g><circle cx="75.3" cy="62" r="50" class="st56"/><path d="M25.3,145.8c0,17.3,3.2,33.3,8.6,46.5c0.4,1.1,1.4,1.8,2.4,1.8h78c1,0,1.9-0.7,2.4-1.8 c5.5-13.3,8.6-29.3,8.6-46.5c0-12.7-1.7-24.6-4.8-35.4c-0.6-2.2-2.9-2.9-4.3-1.4c-9,9.9-20.4,16.6-33.1,18.5 c-1,0.2-1.8,0.9-2.2,2.1l-3.2,10.9c-0.8,2.8-4.2,2.8-5,0l-3.2-10.8c-0.3-1.1-1.2-1.9-2.2-2.1c-12.7-2-24.1-8.6-33.2-18.5 c-1.4-1.6-3.7-0.8-4.3,1.4C27,121.2,25.3,133.2,25.3,145.8z" class="st56"/></g></g><g><g><circle cx="324.7" cy="62" r="50" class="st0"/><path d="M274.7,145.8c0,17.3,3.2,33.3,8.6,46.5c0.4,1.1,1.4,1.8,2.4,1.8h78c1,0,1.9-0.7,2.4-1.8 c5.5-13.3,8.6-29.3,8.6-46.5c0-12.7-1.7-24.6-4.8-35.4c-0.6-2.2-2.9-2.9-4.3-1.4c-9,9.9-20.4,16.6-33.1,18.5 c-1,0.2-1.8,0.9-2.2,2.1l-3.2,10.9c-0.8,2.8-4.2,2.8-5,0l-3.2-10.8c-0.3-1.1-1.2-1.9-2.2-2.1c-12.7-2-24.1-8.6-33.2-18.5 c-1.4-1.6-3.7-0.8-4.3,1.4C276.3,121.2,274.7,133.2,274.7,145.8z" class="st0"/></g></g><g><g><circle cx="200" cy="81.3" r="50" class="st64"/><path d="M150,165.1c0,17.3,3.2,33.3,8.6,46.5c0.4,1.1,1.4,1.8,2.4,1.8h78c1,0,1.9-0.7,2.4-1.8 c5.5-13.3,8.6-29.3,8.6-46.5c0-12.7-1.7-24.6-4.8-35.4c-0.6-2.2-2.9-2.9-4.3-1.4c-9,9.9-20.4,16.6-33.1,18.5 c-1,0.2-1.8,0.9-2.2,2.1l-3.2,10.9c-0.8,2.8-4.2,2.8-5,0l-3.2-10.8c-0.3-1.1-1.2-1.9-2.2-2.1c-12.7-2-24.1-8.6-33.2-18.5 c-1.4-1.6-3.7-0.8-4.3,1.4C151.7,140.5,150,152.5,150,165.1z" class="st64"/></g></g><g><g><circle cx="117" cy="173.9" r="50" class="st53"/><path d="M67,257.8c0,17.3,3.2,33.3,8.6,46.5c0.4,1.1,1.4,1.8,2.4,1.8h78c1,0,1.9-0.7,2.4-1.8 c5.5-13.3,8.6-29.3,8.6-46.5c0-12.7-1.7-24.6-4.8-35.4c-0.6-2.2-2.9-2.9-4.3-1.4c-9,9.9-20.4,16.6-33.1,18.5 c-1,0.2-1.8,0.9-2.2,2.1l-3.2,10.9c-0.8,2.8-4.2,2.8-5,0l-3.2-10.8c-0.3-1.1-1.2-1.9-2.2-2.1c-12.7-2-24.1-8.6-33.2-18.5 c-1.4-1.6-3.7-0.8-4.3,1.4C68.7,233.2,67,245.1,67,257.8z" class="st53"/></g></g><g><g><circle cx="283" cy="173.9" r="50" class="st52"/><path d="M233,257.8c0,17.3,3.2,33.3,8.6,46.5c0.4,1.1,1.4,1.8,2.4,1.8h78c1,0,1.9-0.7,2.4-1.8 c5.5-13.3,8.6-29.3,8.6-46.5c0-12.7-1.7-24.6-4.8-35.4c-0.6-2.2-2.9-2.9-4.3-1.4c-9,9.9-20.4,16.6-33.1,18.5 c-1,0.2-1.8,0.9-2.2,2.1l-3.2,10.9c-0.8,2.8-4.2,2.8-5,0l-3.2-10.8c-0.3-1.1-1.2-1.9-2.2-2.1c-12.7-2-24.1-8.6-33.2-18.5 c-1.4-1.6-3.7-0.8-4.3,1.4C234.7,233.2,233,245.1,233,257.8z" class="st52"/></g></g><g><g><circle cx="200" cy="236.6" r="50" class="st54"/><path d="M150,320.4c0,17.3,3.2,33.3,8.6,46.5c0.4,1.1,1.4,1.8,2.4,1.8h78c1,0,1.9-0.7,2.4-1.8 c5.5-13.3,8.6-29.3,8.6-46.5c0-12.7-1.7-24.6-4.8-35.4c-0.6-2.2-2.9-2.9-4.3-1.4c-9,9.9-20.4,16.6-33.1,18.5 c-1,0.2-1.8,0.9-2.2,2.1l-3.2,10.9c-0.8,2.8-4.2,2.8-5,0l-3.2-10.8c-0.3-1.1-1.2-1.9-2.2-2.1c-12.7-2-24.1-8.6-33.2-18.5 c-1.4-1.6-3.7-0.8-4.3,1.4C151.7,295.8,150,307.8,150,320.4z" class="st54"/></g></g></g></svg>