<svg xmlns="http://www.w3.org/2000/svg" xmlns:xlink="http://www.w3.org/1999/xlink" style="enable-background:new 0 0 478 323" x="0" y="0" version="1.1" viewBox="0 0 478 323" xml:space="preserve"><style type="text/css">.st0{fill:#ffd34e}.st0,.st4,.st52,.st53,.st54,.st55{stroke:#1c425c;stroke-width:8;stroke-linecap:round;stroke-linejoin:round;stroke-miterlimit:10}.st4{fill:none}.st52{fill:#4ad9d9}.st53{fill:#ff9311}.st54{fill:#94399e}.st55{fill:#f48e36}</style><g id="Revised_color_icons"><rect width="83" height="83" x="133" y="4" class="st0"/><rect width="83" height="83" x="262" y="4" class="st52"/><rect width="83" height="83" x="4" y="120" class="st53"/><rect width="83" height="83" x="133" y="120" class="st0"/><rect width="83" height="83" x="262" y="120" class="st52"/><rect width="83" height="83" x="391" y="120" class="st54"/><rect width="83" height="83" x="4" y="236" class="st55"/><rect width="83" height="83" x="133" y="236" class="st0"/><rect width="83" height="83" x="262" y="236" class="st52"/><line x1="87" x2="133" y1="161.5" y2="45.5" class="st4"/><line x1="87" x2="133" y1="277.5" y2="277.5" class="st4"/><line x1="87" x2="133" y1="161.5" y2="161.5" class="st4"/><line x1="216" x2="262" y1="45.5" y2="45.5" class="st4"/><line x1="216" x2="262" y1="161.5" y2="161.5" class="st4"/><line x1="345" x2="391" y1="45.5" y2="161.5" class="st4"/><line x1="345" x2="386" y1="161.5" y2="161.5" class="st4"/><line x1="216" x2="262" y1="277.5" y2="277.5" class="st4"/><line x1="345" x2="391" y1="277.5" y2="161.5" class="st4"/></g></svg>