<svg xmlns="http://www.w3.org/2000/svg" xmlns:xlink="http://www.w3.org/1999/xlink" style="enable-background:new 0 0 336.5 366" x="0" y="0" version="1.1" viewBox="0 0 336.5 366" xml:space="preserve"><style type="text/css">.st4{fill:none}.st4,.st52,.st53,.st54{stroke:#1c425c;stroke-width:8;stroke-linecap:round;stroke-linejoin:round;stroke-miterlimit:10}.st52{fill:#4ad9d9}.st53{fill:#ff9311}.st54{fill:#94399e}</style><g id="Revised_color_icons"><path d="M226.6,18.5C208.3,11,188.2,6.9,167.2,6.9c-20.5,0-40.2,4-58.2,11.1" class="st4"/><path d="M11.6,183.1L11.6,183.1c6.1,49.7,35.6,92.2,77,116.3" class="st4"/><path d="M322.7,183.4L322.7,183.4c-6.2,49.6-35.6,92-77,116" class="st4"/><g><g><circle cx="44.6" cy="49.7" r="37" class="st54"/><path d="M81.7,111.8c0,12.8-2.3,24.6-6.4,34.5c-0.3,0.8-1,1.3-1.8,1.3H15.7c-0.7,0-1.4-0.5-1.8-1.3 c-4-9.8-6.4-21.7-6.4-34.5c0-9.4,1.3-18.2,3.5-26.2c0.5-1.6,2.1-2.2,3.2-1c6.7,7.3,15.1,12.3,24.5,13.7c0.7,0.1,1.4,0.7,1.6,1.5 l2.3,8c0.6,2.1,3.1,2.1,3.7,0l2.3-8c0.2-0.8,0.9-1.4,1.6-1.5c9.4-1.5,17.9-6.4,24.6-13.7c1-1.1,2.7-0.6,3.2,1 C80.4,93.6,81.7,102.4,81.7,111.8z" class="st54"/></g></g><g><g><circle cx="291.5" cy="49.7" r="37" class="st52"/><path d="M328.5,111.8c0,12.8-2.3,24.6-6.4,34.5c-0.3,0.8-1,1.3-1.8,1.3h-57.8c-0.7,0-1.4-0.5-1.8-1.3 c-4-9.8-6.4-21.7-6.4-34.5c0-9.4,1.3-18.2,3.5-26.2c0.5-1.6,2.1-2.2,3.2-1c6.7,7.3,15.1,12.3,24.5,13.7c0.7,0.1,1.4,0.7,1.6,1.5 l2.3,8c0.6,2.1,3.1,2.1,3.7,0l2.3-8c0.2-0.8,0.9-1.4,1.6-1.5c9.4-1.5,17.9-6.4,24.6-13.7c1-1.1,2.7-0.6,3.2,1 C327.3,93.6,328.5,102.4,328.5,111.8z" class="st52"/></g></g><g><g><circle cx="167.2" cy="260.5" r="37" class="st53"/><path d="M130.1,322.5c0,12.8,2.3,24.6,6.4,34.5c0.3,0.8,1,1.3,1.8,1.3h57.8c0.7,0,1.4-0.5,1.8-1.3 c4-9.8,6.4-21.7,6.4-34.5c0-9.4-1.3-18.2-3.5-26.2c-0.5-1.6-2.1-2.2-3.2-1c-6.7,7.3-15.1,12.3-24.5,13.7 c-0.7,0.1-1.4,0.7-1.6,1.5l-2.3,8c-0.6,2.1-3.1,2.1-3.7,0l-2.3-8c-0.2-0.8-0.9-1.4-1.6-1.5c-9.4-1.5-17.9-6.4-24.6-13.7 c-1-1.1-2.7-0.6-3.2,1C131.4,304.3,130.1,313.2,130.1,322.5z" class="st53"/></g></g></g></svg>