<svg xmlns="http://www.w3.org/2000/svg" xmlns:xlink="http://www.w3.org/1999/xlink" x="0" y="0" version="1.1" viewBox="0 0 336.5 366" xml:space="preserve" style="enable-background:new 0 0 336.5 366"><style type="text/css">.st52,.st53{fill:#4ad9d9;stroke:#1c425c;stroke-width:8;stroke-linecap:round;stroke-linejoin:round;stroke-miterlimit:10}.st53{fill:#ff9311}</style><g id="Revised_color_icons"><path d="M330.2,183c0,83.7-63.5,152.6-145,161.1c-5.6,0.6-11.3,0.9-17,0.9s-11.4-0.3-17-0.9 c-81.5-8.5-145-77.4-145-161.1c0-89.5,72.5-162,162-162S330.2,93.5,330.2,183z" class="st52"/><path d="M156.6,88.6c0-11.2-9.1-20.3-20.3-20.3s-20.3,9.1-20.3,20.3c0,0.5,0,0.9,0,1.4h0v76.7h40.7V90h0 C156.6,89.5,156.6,89.1,156.6,88.6z M136.3,99.2c-4.9,0-8.9-4-8.9-8.9c0-4.9,4-8.9,8.9-8.9c4.9,0,8.9,4,8.9,8.9 C145.2,95.2,141.2,99.2,136.3,99.2z" class="st53"/><path d="M220.6,88.6c0-11.2-9.1-20.3-20.3-20.3s-20.3,9.1-20.3,20.3c0,0.5,0,0.9,0,1.4h0v76.7h40.7V90h0 C220.6,89.5,220.6,89.1,220.6,88.6z M200.3,99.2c-4.9,0-8.9-4-8.9-8.9c0-4.9,4-8.9,8.9-8.9c4.9,0,8.9,4,8.9,8.9 C209.2,95.2,205.2,99.2,200.3,99.2z" class="st53"/><path d="M254.2,183c0,41.6-29.6,76.4-68.9,84.2v76.2c-5.6,0.4-11.3,0.6-17,0.6s-11.4-0.2-17-0.6v-76.2 c-39.3-7.9-68.9-42.6-68.9-84.2H254.2z" class="st53"/></g></svg>