<svg xmlns="http://www.w3.org/2000/svg" xmlns:xlink="http://www.w3.org/1999/xlink" style="enable-background:new 0 0 219.8 219.2" x="0" y="0" version="1.1" viewBox="0 0 219.8 219.2" xml:space="preserve"><style type="text/css">.st1{fill:#fffad5}.st1,.st4,.st52,.st53,.st56{stroke:#1c425c;stroke-width:8;stroke-linecap:round;stroke-linejoin:round;stroke-miterlimit:10}.st4{fill:none}.st52{fill:#4ad9d9}.st53{fill:#ff9311}.st56{fill:#36b1bf}</style><g id="Revised_color_icons"><g><polygon points="215.8 4 170 49.8 87 49.8 132.8 4" class="st56"/><rect width="83" height=".5" x="49.8" y="132.2" class="st1"/><rect width="37.2" height=".5" x="132.8" y="132.2" class="st1"/><polygon points="215.8 4 215.8 169.5 170 215.2 170 49.8" class="st56"/><rect width="83" height="82.5" x="4" y="49.8" class="st52"/><rect width="83" height=".5" x="4" y="132.2" class="st1"/><rect width="83" height="82.5" x="4" y="132.8" class="st52"/><rect width="83" height=".5" x="4" y="132.2" class="st1"/><rect width="83" height="82.5" x="87" y="132.8" class="st52"/><rect width="83" height=".5" x="87" y="132.2" class="st1"/><rect width="83" height=".5" x="87" y="132.2" class="st1"/><polygon points="132.8 4 87 49.8 4 49.8 49.8 4" class="st56"/><line x1="170" x2="212.6" y1="132.8" y2="90.1" class="st4"/><rect width="83" height="82.5" x="87" y="49.8" class="st52"/><g><circle cx="45.5" cy="91" r="27.2" class="st53"/><path d="M35.1,91.4l7.2,13.6c0,0,1.9-6.4,4.7-12.7c3.5-7.9,8.9-15.2,8.9-15.2" class="st4"/></g><g><circle cx="128.5" cy="91" r="27.2" class="st53"/><path d="M118.1,91.4l7.2,13.6c0,0,1.9-6.4,4.7-12.7c3.5-7.9,8.9-15.2,8.9-15.2" class="st4"/></g><g><circle cx="128.5" cy="174" r="27.2" class="st53"/><path d="M118.1,174.4l7.2,13.6c0,0,1.9-6.4,4.7-12.7c3.5-7.9,8.9-15.2,8.9-15.2" class="st4"/></g><g><circle cx="45.5" cy="174" r="27.2" class="st53"/><path d="M35.1,174.4l7.2,13.6c0,0,1.9-6.4,4.7-12.7c3.5-7.9,8.9-15.2,8.9-15.2" class="st4"/></g></g></g></svg>