<svg xmlns="http://www.w3.org/2000/svg" xmlns:xlink="http://www.w3.org/1999/xlink" style="enable-background:new 0 0 322.2 265.2" x="0" y="0" version="1.1" viewBox="0 0 322.2 265.2" xml:space="preserve"><style type="text/css">.st4{fill:none;stroke:#1c425c;stroke-width:8;stroke-linecap:round;stroke-linejoin:round;stroke-miterlimit:10}.st7{fill:#1c425c}.st52{fill:#4ad9d9}.st52,.st53,.st54,.st57{stroke:#1c425c;stroke-width:8;stroke-linecap:round;stroke-linejoin:round;stroke-miterlimit:10}.st53{fill:#ff9311}.st54{fill:#94399e}.st57{fill:#fff1ce}</style><g id="Revised_color_icons"><g><path d="M295.7,80l-58.5,35.2c8.1,13.4,12.7,29.1,12.7,45.8h68.2C318.2,131.4,310,103.7,295.7,80z M161.1,4 C74.3,4,4,74.3,4,161.1h68.2c0-49.1,39.8-88.9,88.9-88.9c16.3,0,31.5,4.4,44.7,12l34.3-59C216.8,11.7,189.9,4,161.1,4z" class="st52"/><path d="M295.7,80l-58.5,35.2c-7.7-12.8-18.6-23.5-31.5-31l34.3-59C262.9,38.5,282,57.4,295.7,80z" class="st53"/><path d="M231.9,161.1v29.2c0,39.1-31.7,70.8-70.8,70.8s-70.8-31.7-70.8-70.8v-29.2c0,5,0.5,9.9,1.5,14.6 c1.1,5.1,2.7,10,4.8,14.6c11.1,24.5,35.8,41.6,64.5,41.6s53.4-17.1,64.5-41.6c2.1-4.6,3.7-9.5,4.8-14.6 C231.4,171,231.9,166.1,231.9,161.1z" class="st54"/><path d="M231.9,161.1c0,5-0.5,9.9-1.5,14.6c-1.1,5.1-2.7,10-4.8,14.6c-11.1,24.5-35.8,41.6-64.5,41.6 s-53.4-17.1-64.5-41.6c-2.1-4.6-3.7-9.5-4.8-14.6c-1-4.7-1.5-9.6-1.5-14.6c0-39.1,31.7-70.8,70.8-70.8S231.9,122,231.9,161.1z" class="st57"/><line x1="196.2" x2="174.9" y1="119.5" y2="144.7" class="st4"/><g><path d="M145.2,52.1V35.8L143,37l-2.7-4.6l6.4-3.6h4.3v23.3H145.2z" class="st7"/><path d="M161.1,49.6c0,1.7-1.4,3.1-3.2,3.1c-1.8,0-3.2-1.4-3.2-3.1c0-1.7,1.5-3,3.2-3 C159.6,46.5,161.1,47.9,161.1,49.6z" class="st7"/><path d="M164.8,35.3c0-4,3.4-7.2,7.8-7.2c4.4,0,7.8,3.2,7.8,7.1c0,1.7-0.5,2.9-1.9,4.4c1.8,1.5,2.6,3.2,2.6,5.3 c0,4.4-3.7,7.7-8.5,7.7c-4.9,0-8.5-3.3-8.5-7.7c0-2.1,0.8-3.8,2.6-5.3C165.3,38.2,164.8,37,164.8,35.3z M169.7,45 c0,1.6,1.2,2.7,2.9,2.7c1.7,0,2.9-1.1,2.9-2.6c0-1.7-1.1-2.7-3-2.7C170.8,42.3,169.7,43.4,169.7,45z M170.2,35.5 c0,1.3,1,2.2,2.4,2.2c1.4,0,2.4-0.9,2.4-2.2c0-1.4-1-2.3-2.4-2.3S170.2,34.1,170.2,35.5z" class="st7"/></g><g><path d="M234.4,85V68.7l-2.2,1.2l-2.7-4.6l6.4-3.6h4.3V85H234.4z" class="st7"/><path d="M250.3,82.5c0,1.7-1.4,3.1-3.2,3.1c-1.8,0-3.2-1.4-3.2-3.1c0-1.7,1.5-3,3.2-3 C248.8,79.4,250.3,80.8,250.3,82.5z" class="st7"/><path d="M254.5,82.7l3.9-5.3c-4.2-0.8-6.9-3.9-6.9-7.9c0-4.7,3.9-8.5,8.7-8.5c4.9,0,8.8,3.7,8.8,8.5 c0,1.9-0.7,3.8-1.9,5.5L259,86L254.5,82.7z M257.1,69.5c0,1.8,1.3,3,3.1,3s3.1-1.3,3.1-3.1c0-1.9-1.3-3.2-3-3.2 C258.4,66.2,257.1,67.6,257.1,69.5z" class="st7"/></g><g><path d="M60.7,85V68.7l-2.2,1.2l-2.7-4.6l6.4-3.6h4.3V85H60.7z" class="st7"/><path d="M76.5,82.5c0,1.7-1.4,3.1-3.2,3.1c-1.8,0-3.2-1.4-3.2-3.1c0-1.7,1.5-3,3.2-3S76.5,80.8,76.5,82.5z" class="st7"/><path d="M78.7,67v-5.3h16.6v3.9L84.1,86l-5-2.6L88.2,67H78.7z" class="st7"/></g><g><path d="M259.4,140.2l8.1-8.9c1.5-1.6,2.1-2.7,2.1-3.9s-0.8-1.9-2.2-1.9c-1.7,0-2.3,0.7-3,3.4l-5.3-1.4 c0.3-1.5,0.7-2.5,1.2-3.4c1.4-2.3,4-3.7,7.2-3.7c4.6,0,7.7,2.9,7.7,7.2c0,2.3-0.9,4.3-2.7,6.3l-4.8,5.3h7.9v5.3h-16.3V140.2z" class="st7"/><path d="M284.6,141.9c0,1.7-1.4,3.1-3.2,3.1c-1.8,0-3.2-1.4-3.2-3.1c0-1.7,1.5-3,3.2-3 C283.2,138.9,284.6,140.2,284.6,141.9z" class="st7"/><path d="M305.3,132.8c0,8.1-3.3,12.3-9.5,12.3c-6.4,0-9.6-4.2-9.6-12.5c0-7.9,3.3-12.1,9.6-12.1 C302,120.5,305.3,124.7,305.3,132.8z M291.9,132.9c0,2.3,0.3,4.1,1,5.4c0.6,1.1,1.5,1.6,2.8,1.6c2.6,0,3.9-2.2,3.9-7 c0-2.4-0.4-4.3-1-5.6c-0.6-1.2-1.5-1.7-2.8-1.7C293.1,125.6,291.9,128,291.9,132.9z" class="st7"/></g><g><path d="M25.2,144.5v-16.4l-2.2,1.2l-2.7-4.6l6.4-3.6h4.3v23.3H25.2z" class="st7"/><path d="M41,141.9c0,1.7-1.4,3.1-3.2,3.1c-1.8,0-3.2-1.4-3.2-3.1c0-1.7,1.5-3,3.2-3C39.6,138.9,41,140.2,41,141.9z" class="st7"/><path d="M57.8,123.4l-3.9,5.3c4.2,0.8,6.9,3.9,6.9,7.9c0,4.7-3.9,8.5-8.7,8.5c-4.9,0-8.8-3.7-8.8-8.5 c0-1.9,0.7-3.8,1.9-5.5l8-10.9L57.8,123.4z M49.1,136.7c0,1.9,1.3,3.2,3,3.2c1.8,0,3.1-1.4,3.1-3.3c0-1.8-1.3-3-3.1-3 S49.1,134.9,49.1,136.7z" class="st7"/></g><g><g><line x1="104.8" x2="104.8" y1="233.4" y2="204.1" class="st4"/><line x1="120.9" x2="120.9" y1="248.7" y2="219.4" class="st4"/><line x1="137" x2="137" y1="257" y2="227.7" class="st4"/><line x1="153" x2="153" y1="260.7" y2="231.5" class="st4"/><line x1="169.1" x2="169.1" y1="260.7" y2="231.5" class="st4"/><line x1="185.2" x2="185.2" y1="257" y2="227.7" class="st4"/><line x1="201.3" x2="201.3" y1="248.7" y2="219.4" class="st4"/><line x1="217.3" x2="217.3" y1="233.4" y2="204.1" class="st4"/></g></g></g></g></svg>