<svg xmlns="http://www.w3.org/2000/svg" xmlns:xlink="http://www.w3.org/1999/xlink" style="enable-background:new 0 0 480 340" id="Layer_1" x="0" y="0" version="1.1" viewBox="0 0 480 340" xml:space="preserve"><style type="text/css">.st0{fill:#ffd34e}.st0,.st1,.st121,.st4{stroke:#1c425c;stroke-width:8;stroke-linecap:round;stroke-linejoin:round;stroke-miterlimit:10}.st1{fill:none}.st4{fill:#4ad9d9}.st121{fill:#efefef}</style><g><g><line x1="139.091" x2="93.274" y1="150.89" y2="150.89" class="st1"/><circle cx="93.274" cy="150.89" r="8.359" class="st0"/></g><g><line x1="179.936" x2="28.359" y1="187.483" y2="187.483" class="st1"/><circle cx="28.359" cy="187.483" r="8.359" class="st0"/></g><g><line x1="179.936" x2="112.988" y1="235.807" y2="235.807" class="st1"/><circle cx="112.988" cy="235.807" r="8.359" class="st0"/></g><g><line x1="145.645" x2="145.645" y1="144.019" y2="14.238" class="st1"/><circle cx="145.645" cy="14.238" r="8.359" class="st0"/></g><g><g><polyline points="221.612 230.833 221.612 325.762 282.664 325.762" class="st1"/><circle cx="282.664" cy="325.762" r="8.359" class="st0"/></g><g><line x1="314.472" x2="314.472" y1="248.005" y2="325.762" class="st1"/><circle cx="314.472" cy="325.762" r="8.359" class="st0"/></g><g><line x1="179.201" x2="179.201" y1="195.981" y2="325.762" class="st1"/><circle cx="179.201" cy="325.762" r="8.359" class="st0"/></g></g><g><polyline points="179.406 109.167 179.406 14.238 314.472 14.238" class="st1"/><circle cx="314.472" cy="14.238" r="8.359" class="st0"/></g><g><line x1="349.31" x2="403.498" y1="236.012" y2="236.012" class="st1"/><circle cx="403.498" cy="236.012" r="8.359" class="st0"/></g><g><line x1="335.937" x2="403.498" y1="178.92" y2="178.92" class="st1"/><circle cx="403.498" cy="178.92" r="8.359" class="st0"/></g><g><line x1="335.937" x2="451.641" y1="122.033" y2="122.033" class="st1"/><circle cx="451.641" cy="122.033" r="8.359" class="st0"/></g><circle cx="248.043" cy="165.497" r="124.785" class="st4"/><path d="M331.584,121.572h-84.688c-0.02-0.331-0.03-0.667-0.03-1.004c0-8.889,7.012-16.14,15.807-16.524 c0-0.411,0.013-0.822,0.04-1.237c0.674-10.287,9.56-18.08,19.848-17.405c8.298,0.544,14.973,6.432,16.889,14.087 c0.184-0.006,0.367-0.008,0.552-0.008c6.193,0,11.647,3.158,14.842,7.95c0.78-0.132,1.581-0.201,2.398-0.201 C325.162,107.23,331.584,113.65,331.584,121.572z" class="st121"/><path d="M349.583,183.632H146.511c-0.047-0.795-0.072-1.598-0.072-2.407c0-21.315,16.813-38.702,37.903-39.623 c0-0.984,0.032-1.971,0.097-2.967c1.617-24.668,22.925-43.353,47.593-41.736c19.897,1.305,35.903,15.423,40.499,33.78 c0.44-0.014,0.881-0.02,1.323-0.02c14.849,0,27.928,7.572,35.589,19.064c1.869-0.316,3.791-0.481,5.75-0.481 C334.185,149.242,349.583,164.638,349.583,183.632z" class="st121"/><path d="M341.12,227.89H201.629c-0.033-0.546-0.05-1.098-0.05-1.653c0-14.642,11.549-26.585,26.036-27.217 c0-0.676,0.022-1.354,0.067-2.038c1.11-16.945,15.747-29.779,32.692-28.669c13.668,0.896,24.662,10.594,27.819,23.204 c0.302-0.009,0.605-0.014,0.909-0.014c10.2,0,19.184,5.202,24.446,13.095c1.284-0.217,2.604-0.33,3.95-0.33 C330.543,204.267,341.12,214.842,341.12,227.89z" class="st121"/></g></svg>