<svg xmlns="http://www.w3.org/2000/svg" xmlns:xlink="http://www.w3.org/1999/xlink" style="enable-background:new 0 0 480 340" id="Layer_1" x="0" y="0" version="1.1" viewBox="0 0 480 340" xml:space="preserve"><style type="text/css">.st0{fill:#ffd34e}.st0,.st1,.st104,.st121,.st4,.st95{stroke:#1c425c;stroke-width:8;stroke-linecap:round;stroke-linejoin:round;stroke-miterlimit:10}.st1{fill:none}.st4{fill:#4ad9d9}.st95{fill:#bdd350}.st104{fill:#e74c3c}.st121{fill:#efefef}</style><g><line x1="342.047" x2="431.587" y1="86.361" y2="170" class="st1"/><line x1="342.047" x2="431.587" y1="253.639" y2="170" class="st1"/><rect width="84.9" height="59.845" x="125.194" y="56.438" class="st95"/><rect width="84.9" height="59.845" x="257.147" y="56.438" class="st95"/><rect width="84.9" height="59.845" x="125.194" y="140.077" class="st95"/><rect width="84.9" height="59.845" x="257.147" y="140.077" class="st0"/><rect width="84.9" height="59.845" x="389.1" y="140.077" class="st121"/><rect width="84.9" height="59.845" x="125.194" y="223.717" class="st95"/><rect width="84.9" height="59.845" x="257.147" y="223.717" class="st104"/><line x1="48.41" x2="125.194" y1="170" y2="86.361" class="st1"/><line x1="78.141" x2="125.194" y1="253.639" y2="253.639" class="st1"/><line x1="48.41" x2="125.194" y1="170" y2="170" class="st1"/><line x1="210.094" x2="257.147" y1="86.361" y2="86.361" class="st1"/><line x1="210.094" x2="257.147" y1="170" y2="170" class="st1"/><line x1="342.047" x2="383.986" y1="170" y2="170" class="st1"/><line x1="210.094" x2="257.147" y1="253.639" y2="253.639" class="st1"/><g><line x1="138.632" x2="196.657" y1="155.386" y2="155.386" class="st1"/><line x1="138.632" x2="158.551" y1="183.966" y2="183.966" class="st1"/></g><g><line x1="138.632" x2="196.657" y1="72.071" y2="72.071" class="st1"/><line x1="138.632" x2="158.551" y1="100.651" y2="100.651" class="st1"/></g><g><line x1="138.632" x2="196.657" y1="239.349" y2="239.349" class="st1"/><line x1="138.632" x2="158.551" y1="267.929" y2="267.929" class="st1"/></g><rect width="84.9" height="59.845" x="6" y="223.717" class="st4"/><g><line x1="19.437" x2="77.463" y1="239.349" y2="239.349" class="st1"/><line x1="19.437" x2="39.356" y1="267.929" y2="267.929" class="st1"/></g><g><line x1="270.584" x2="328.61" y1="239.349" y2="239.349" class="st1"/><line x1="270.584" x2="290.504" y1="267.929" y2="267.929" class="st1"/></g><g><line x1="270.584" x2="328.61" y1="155.71" y2="155.71" class="st1"/><line x1="270.584" x2="290.504" y1="184.29" y2="184.29" class="st1"/></g><g><line x1="402.537" x2="460.563" y1="155.71" y2="155.71" class="st1"/><line x1="402.537" x2="422.456" y1="184.29" y2="184.29" class="st1"/></g><g><line x1="270.584" x2="328.61" y1="72.071" y2="72.071" class="st1"/><line x1="270.584" x2="290.504" y1="100.651" y2="100.651" class="st1"/></g><circle cx="48.41" cy="169.777" r="29.981" class="st4"/></g></svg>