<svg xmlns="http://www.w3.org/2000/svg" xmlns:xlink="http://www.w3.org/1999/xlink" style="enable-background:new 0 0 480 340" id="Layer_1" x="0" y="0" version="1.1" viewBox="0 0 480 340" xml:space="preserve"><style type="text/css">.st0{fill:#ffd34e}.st0,.st1,.st104,.st121,.st4,.st95{stroke:#1c425c;stroke-width:8;stroke-linecap:round;stroke-linejoin:round;stroke-miterlimit:10}.st1{fill:none}.st4{fill:#4ad9d9}.st95{fill:#bdd350}.st104{fill:#e74c3c}.st121{fill:#efefef}</style><g><line x1="39.472" x2="135.817" y1="273.415" y2="273.415" class="st1"/><line x1="39.472" x2="435.196" y1="170" y2="170" class="st1"/><line x1="232.163" x2="331.266" y1="66.585" y2="170" class="st1"/><line x1="135.817" x2="232.163" y1="170" y2="66.585" class="st1"/><line x1="135.817" x2="232.163" y1="273.415" y2="170" class="st1"/><circle cx="39.472" cy="170" r="34.472" class="st4"/><circle cx="39.472" cy="273.415" r="34.472" class="st4"/><path d="M106.313,140.577c-3.119,3.119-5.048,24.664-5.048,29.423s1.929,26.304,5.048,29.423 s24.664,5.048,29.423,5.048c4.76,0,26.304-1.929,29.423-5.048s5.048-24.664,5.048-29.423s-1.929-26.304-5.048-29.423 s-24.664-5.048-29.423-5.048C130.977,135.528,109.432,137.458,106.313,140.577z" class="st95"/><path d="M106.313,243.991c-3.119,3.119-5.048,24.664-5.048,29.423c0,4.76,1.929,26.304,5.048,29.423 c3.119,3.119,24.664,5.048,29.423,5.048c4.76,0,26.304-1.929,29.423-5.048c3.119-3.119,5.048-24.664,5.048-29.423 c0-4.76-1.929-26.304-5.048-29.423s-24.664-5.048-29.423-5.048C130.977,238.943,109.432,240.872,106.313,243.991z" class="st95"/><polygon points="266.472 170 266.472 204.472 232.001 204.472 197.529 204.472 197.529 170 197.529 135.528 232.001 135.528 266.472 135.528" class="st0"/><polygon points="266.634 66.585 266.634 101.057 232.163 101.057 197.691 101.057 197.691 66.585 197.691 32.114 232.163 32.114 266.634 32.114" class="st104"/><polygon points="330.932 135.528 308.721 144.146 303.745 170 293.794 204.472 330.932 204.472 368.07 204.472 358.119 170 353.143 144.146" class="st121"/><polygon points="435.196 135.528 415.293 170 395.391 204.472 435.196 204.472 475 204.472 455.098 170" class="st121"/></g></svg>