<svg xmlns="http://www.w3.org/2000/svg" xmlns:xlink="http://www.w3.org/1999/xlink" style="enable-background:new 0 0 480 340" id="Layer_1" x="0" y="0" version="1.1" viewBox="0 0 480 340" xml:space="preserve"><style type="text/css">.st0{fill:#ffd34e}.st0,.st1,.st104,.st121,.st4,.st95{stroke:#1c425c;stroke-width:8;stroke-linecap:round;stroke-linejoin:round;stroke-miterlimit:10}.st1{fill:none}.st4{fill:#4ad9d9}.st95{fill:#bdd350}.st104{fill:#e74c3c}.st121{fill:#efefef}</style><g><rect width="99.507" height="214.637" x="290.926" y="62.682" class="st0"/><line x1="38.082" x2="442.076" y1="121.154" y2="121.154" class="st1"/><g><g><line x1="38.082" x2="442.076" y1="218.846" y2="218.846" class="st1"/><g><path d="M67.787,218.846c0,8.203-3.325,15.629-8.701,21.005s-12.802,8.701-21.005,8.701s-15.629-3.325-21.005-8.701 s-8.701-12.802-8.701-21.005s3.325-15.629,8.701-21.005c5.376-5.376,12.802-8.701,21.005-8.701 C54.488,189.14,67.787,202.44,67.787,218.846z" class="st4"/><path d="M139.08,189.14c6.152,0,15.626,5.33,19.658,9.362c4.032,4.032,10.43,12.438,10.43,18.59 c0,3.022-2.093,10.493-3.183,13.121c-1.129,2.722-4.274,9.761-6.325,11.812c-4.032,4.032-14.427,6.525-20.58,6.525 c-6.152,0-16.548-2.494-20.58-6.525c-2.051-2.051-5.196-9.09-6.325-11.812c-1.09-2.628-3.183-10.099-3.183-13.121 c0-6.152,6.398-14.559,10.43-18.59C123.454,194.47,132.928,189.14,139.08,189.14z" class="st95"/><path d="M240.079,189.14c4.101,0,15.623,7.336,18.311,10.023c2.688,2.688,12.159,12.074,12.159,16.176 c0,2.015-3.384,13.115-4.111,14.867c-0.753,1.814-4.837,12.627-6.205,13.994c-2.688,2.688-16.053,4.35-20.154,4.35 c-4.101,0-17.467-1.662-20.154-4.35c-1.367-1.367-5.452-12.18-6.205-13.994c-0.727-1.752-4.111-12.852-4.111-14.867 c0-4.101,9.471-13.488,12.159-16.176C224.456,196.476,235.977,189.14,240.079,189.14z" class="st95"/><path d="M341.077,189.14c2.051,0,15.62,9.341,16.964,10.685s13.888,11.71,13.888,13.761 c0,1.007-4.674,15.737-5.038,16.613c-0.376,0.907-5.401,15.493-6.085,16.177c-1.344,1.344-17.678,2.175-19.729,2.175 c-2.051,0-18.385-0.831-19.729-2.175c-0.684-0.684-5.709-15.269-6.085-16.177c-0.363-0.876-5.038-15.606-5.038-16.613 c0-2.051,12.544-12.417,13.888-13.761C325.457,198.481,339.026,189.14,341.077,189.14z" class="st104"/><polygon points="442.076 189.14 410.841 211.833 416.807 230.192 422.772 248.551 442.076 248.551 461.379 248.551 467.345 230.192 473.31 211.833 457.693 200.487" class="st121"/></g></g><g><polygon points="439.699 91.449 422.549 121.154 405.398 150.86 439.699 150.86 474 150.86 456.85 121.154" class="st95"/><path d="M349.885,96.752c-4.083-7.071-14.289-7.071-18.371,0l-11.027,19.099L309.46,134.95 c-4.083,7.071,1.021,15.91,9.186,15.91h22.053h22.053c8.165,0,13.268-8.839,9.186-15.91l-11.027-19.099L349.885,96.752z" class="st95"/><path d="M255.488,102.458c-6.928-12-24.249-12-31.177,0l-6.178,10.701l-6.178,10.701c-6.928,12,1.732,27,15.588,27 h12.357h12.357c13.856,0,22.517-15,15.588-27l-6.178-10.701L255.488,102.458z" class="st95"/><path d="M160.923,106.976c-9.699-16.8-33.948-16.8-43.648,0l-1.756,3.042l-1.756,3.042 c-9.699,16.8,2.425,37.8,21.824,37.8h3.513h3.513c19.399,0,31.523-21,21.824-37.8l-1.756-3.042L160.923,106.976z" class="st95"/><path d="M65.411,121.154c0,16.406-13.3,29.705-29.705,29.705c-8.203,0-15.629-3.325-21.005-8.701 C9.325,136.784,6,129.357,6,121.154s3.325-15.629,8.701-21.005c5.376-5.376,12.802-8.701,21.005-8.701 C52.111,91.449,65.411,104.749,65.411,121.154z" class="st4"/></g></g></g></svg>