<svg xmlns="http://www.w3.org/2000/svg" xmlns:svg="http://www.w3.org/2000/svg" id="svg4206" width="128" height="64" x="0" y="0" version="1.1" viewBox="0 0 128 64" xml:space="preserve"><metadata id="metadata4236"/><style id="style4208" type="text/css">.st0{fill:#c75c5c}.st1{opacity:.2}.st2{fill:#231f20}.st3{fill:#f5cf87}.st4{fill:#4f5d73}</style><g id="Layer_1"><g id="g4239" transform="translate(0,4)"><circle id="circle4213" cx="64" cy="28" r="32" class="st0" style="fill:#c75c5c"/><g style="opacity:.2" id="g4215" class="st1" transform="translate(32,-4)"><path style="fill:#231f20" id="path4217" d="m 17,50 c -4.4,0 -6.2,-3.1 -4,-6.9 L 28,17 c 2.2,-3.8 5.8,-3.8 8,0 l 15,26.1 c 2.2,3.8 0.4,6.9 -4,6.9 l -30,0 z" class="st2"/></g><g id="g4219" transform="translate(32,-4)"><path style="fill:#f5cf87" id="path4221" d="m 17,48 c -4.4,0 -6.2,-3.1 -4,-6.9 L 28,15 c 2.2,-3.8 5.8,-3.8 8,0 l 15,26.1 c 2.2,3.8 0.4,6.9 -4,6.9 l -30,0 z" class="st3"/></g><g id="g4223" transform="translate(32,-4)"><path style="fill:#4f5d73" id="path4225" d="m 34,32 c 0,1.1 -0.9,2 -2,2 l 0,0 c -1.1,0 -2,-0.9 -2,-2 l 0,-8 c 0,-1.1 0.9,-2 2,-2 l 0,0 c 1.1,0 2,0.9 2,2 l 0,8 z" class="st4"/></g><g id="g4227" transform="translate(32,-4)"><path style="fill:#4f5d73" id="path4229" d="m 34,40 c 0,1.1 -0.9,2 -2,2 l 0,0 c -1.1,0 -2,-0.9 -2,-2 l 0,0 c 0,-1.1 0.9,-2 2,-2 l 0,0 c 1.1,0 2,0.9 2,2 l 0,0 z" class="st4"/></g></g></g></svg>